<svg xmlns="http://www.w3.org/2000/svg" id="Capa_1" data-name="Capa 1" viewBox="507.42 0 567.8 358.9">
  <path d="M596.43,.63c27.05,.22,49.49,10.48,67.31,30.63,2.8,3.17,3.98,3.71,7.24,.28,32.75-34.46,83.97-37.82,120.84-8.06,2.5,2.02,3.73,1.89,6.06-.22,32.07-29.09,79.23-31.1,113.6-4.87,2.69,2.05,4.28,2.77,7.26-.05,16.65-15.72,43.28-15.67,60.27,0,2.66,2.45,3.84,2.7,6.51-.1,15.41-16.15,37.04-20.64,57.09-12.23,19.35,8.12,32.17,28.06,31.41,49.59-.5,14.23-5.92,26.52-16.37,36.32-2.37,2.22-2.48,3.33-.05,5.72,22.01,21.69,22.43,52.47,1.12,75.34-1.66,1.78-1.85,2.73-.35,4.82,14.76,20.6,14.73,43.61-.03,63.9-1.52,2.09-1.65,3.18,.16,5.28,33.02,38.44,14.84,96.18-34.23,108.18-19.82,4.85-38.28,.79-54.65-11.51-2.91-2.19-4.78-2.52-8.14-.64-25.24,14.13-50.66,13.97-75.85-.17-3.18-1.79-5.27-1.84-8.35,.19-32.26,21.24-73.01,19.49-103.75-4.48-3-2.34-4.64-2.68-7.79-.04-28.33,23.72-68.34,27.02-100.63,8.44-2.98-1.71-4.81-1.73-7.71,.45-17.47,13.13-41.49,11.62-57.6-3.49-2.27-2.13-3.36-2.39-5.78-.08-21.83,20.85-55.33,18.79-74.73-4.42-18.96-22.67-14.72-57.99,9.3-75.15,3.96-2.83,4.34-4.12,.88-7.84-26.41-28.4-28.33-72.78-4.35-103.57,3.35-4.31,2.92-6.53-.05-10.6-39.89-54.64-6.97-131.82,60.02-140.95,3.78-.51,7.63-.45,11.36-.65Z" style="fill: #fff;"/>
</svg>