<?xml version="1.0" encoding="UTF-8"?>
<svg id="Capa_1" data-name="Capa 1" xmlns="http://www.w3.org/2000/svg" viewBox="0 0 1535.2 198.78">
  <g>
    <path d="M772.74,153.84c-.87-.08-1.72,.13-2.58,.16-1.24,.05-1.84-.77-1.37-1.92,.53-1.3,1.06-2.6,1.65-3.87,.31-.68,.18-.85-.57-.86-7.07-.12-13.67-2-19.75-5.57-10.48-6.16-17.45-15.19-20.67-26.84-4.37-15.79-1.58-30.4,8.72-43.25,6.89-8.6,15.94-13.83,26.92-15.38,12.54-1.76,23.65,1.68,33.22,9.86,8.83,7.54,13.96,17.24,15.53,28.73,1.9,13.95-1.56,26.49-10.63,37.31-6.7,7.99-15.29,12.88-25.59,14.68-.72,.13-1.45,.21-2.18,.26-.57,.03-.65,.2-.36,.68,.66,1.09,1.28,2.21,1.91,3.32,.83,1.46,.4,2.26-1.28,2.44-.72,.08-1.47-.06-2.17,.24-.25,.21-.52,.22-.78,.03Z" style="fill: #bdb83a;"/>
    <path d="M760.75,80.15c0,6.52-4.91,13.15-10.94,14.73-5.68,1.49-10.11-1.62-10.76-7.48-.74-6.62,4.32-13.98,10.65-15.86,6.11-1.81,11.05,2.04,11.05,8.62Z" style="fill: #ebe894;"/>
  </g>
  <g>
    <path d="M688.58,161.51c-.83-.19-1.67-.1-2.51-.18-1.21-.12-1.67-.99-1.08-2.03,.68-1.19,1.36-2.37,2.09-3.53,.39-.61,.28-.8-.44-.91-6.81-1.04-12.94-3.7-18.34-7.94-9.32-7.31-14.87-16.93-16.47-28.6-2.17-15.81,2.42-29.55,14.03-40.62,7.77-7.41,17.18-11.28,27.99-11.35,12.34-.07,22.62,4.7,30.79,13.83,7.54,8.43,11.24,18.46,11.26,29.75,.02,13.71-4.95,25.37-15.11,34.63-7.51,6.84-16.43,10.45-26.61,10.84-.71,.03-1.43,.02-2.14-.04-.56-.04-.65,.11-.44,.61,.49,1.14,.95,2.3,1.42,3.45,.61,1.52,.1,2.23-1.56,2.19-.71-.02-1.41-.25-2.13-.05-.27,.17-.53,.15-.76-.08Z" style="fill: #49ad33;"/>
    <path d="M686.58,88.81c-.84,6.3-6.45,12.05-12.48,12.8-5.67,.7-9.55-2.88-9.41-8.62,.15-6.49,5.98-12.94,12.34-13.93,6.13-.96,10.4,3.41,9.55,9.75Z" style="fill: #8ec478;"/>
  </g>
  <g>
    <path d="M632.57,137.94c-.85-.08-1.67,.13-2.51,.16-1.21,.05-1.79-.75-1.34-1.87,.51-1.27,1.03-2.53,1.6-3.78,.3-.66,.17-.83-.55-.84-6.89-.11-13.32-1.92-19.24-5.39-10.22-5.98-17.02-14.77-20.18-26.11-4.28-15.38-1.59-29.61,8.42-42.14,6.7-8.39,15.5-13.5,26.2-15.02,12.21-1.74,23.04,1.6,32.38,9.55,8.61,7.33,13.63,16.77,15.17,27.96,1.87,13.59-1.48,25.81-10.29,36.36-6.51,7.79-14.87,12.57-24.91,14.34-.7,.12-1.42,.21-2.13,.25-.56,.03-.63,.2-.35,.67,.64,1.06,1.25,2.15,1.87,3.23,.81,1.42,.4,2.2-1.25,2.38-.71,.08-1.43-.05-2.12,.24-.25,.21-.5,.22-.76,.03Z" style="fill: #bd291b;"/>
    <path d="M620.77,66.18c.02,6.36-4.76,12.81-10.63,14.37-5.53,1.46-9.85-1.56-10.49-7.27-.73-6.45,4.18-13.63,10.35-15.47,5.95-1.78,10.76,1.97,10.78,8.38Z" style="fill: #ec776c;"/>
  </g>
  <g>
    <path d="M555.94,151.34c-.79-.31-1.64-.34-2.46-.54-1.18-.29-1.51-1.22-.77-2.17,.84-1.08,1.69-2.15,2.58-3.19,.47-.55,.39-.75-.3-.96-6.59-2.01-12.27-5.53-17-10.51-8.17-8.58-12.28-18.9-12.18-30.67,.14-15.96,6.66-28.89,19.75-38.17,8.76-6.21,18.63-8.69,29.33-7.19,12.22,1.71,21.7,7.91,28.48,18.13,6.25,9.43,8.46,19.89,6.85,31.06-1.96,13.57-8.56,24.39-19.95,32.09-8.41,5.69-17.77,7.97-27.9,6.89-.71-.08-1.42-.19-2.11-.35-.55-.12-.66,.02-.52,.54,.32,1.2,.61,2.41,.91,3.62,.39,1.59-.23,2.22-1.86,1.94-.7-.12-1.36-.45-2.1-.36-.29,.13-.54,.07-.74-.18Z" style="fill: #bdb83a;"/>
    <path d="M564.45,79.11c-1.74,6.11-8.12,11-14.19,10.87-5.72-.12-9.03-4.23-8.07-9.89,1.08-6.4,7.79-11.94,14.22-12,6.21-.06,9.8,4.87,8.04,11.03Z" style="fill: #ebe894;"/>
  </g>
  <g>
    <path d="M504.22,140.87c-.83-.18-1.67-.08-2.51-.15-1.21-.1-1.69-.97-1.1-2.02,.66-1.2,1.33-2.39,2.05-3.55,.38-.62,.27-.8-.45-.9-6.82-.96-12.98-3.55-18.43-7.72-9.4-7.2-15.07-16.75-16.81-28.4-2.36-15.79,2.07-29.58,13.55-40.79,7.68-7.5,17.05-11.49,27.85-11.68,12.33-.22,22.67,4.43,30.96,13.46,7.64,8.34,11.46,18.32,11.61,29.61,.18,13.71-4.65,25.43-14.7,34.81-7.42,6.93-16.31,10.65-26.48,11.16-.71,.04-1.43,.03-2.14-.01-.56-.04-.65,.12-.43,.62,.5,1.14,.98,2.29,1.46,3.43,.63,1.51,.12,2.23-1.53,2.21-.71,0-1.42-.23-2.13-.02-.27,.17-.52,.15-.76-.07Z" style="fill: #5d7dbd;"/>
    <path d="M501.35,68.21c-.77,6.31-6.31,12.13-12.32,12.95-5.66,.77-9.58-2.77-9.52-8.51,.07-6.49,5.83-13.01,12.17-14.08,6.12-1.03,10.44,3.28,9.67,9.64Z" style="fill: #becdeb;"/>
  </g>
  <g>
    <path d="M437.41,151.26c-.8-.3-1.65-.3-2.47-.49-1.18-.27-1.54-1.19-.82-2.15,.82-1.09,1.65-2.18,2.51-3.24,.46-.56,.38-.76-.32-.95-6.63-1.87-12.38-5.28-17.21-10.16-8.34-8.41-12.66-18.65-12.8-30.42-.19-15.96,6.07-29.02,18.97-38.57,8.63-6.39,18.45-9.07,29.18-7.79,12.25,1.46,21.86,7.47,28.84,17.55,6.44,9.3,8.86,19.71,7.48,30.92-1.68,13.61-8.06,24.56-19.29,32.49-8.3,5.86-17.6,8.33-27.75,7.46-.71-.06-1.42-.16-2.12-.3-.55-.11-.66,.03-.51,.55,.35,1.19,.66,2.4,.98,3.6,.42,1.58-.18,2.23-1.82,1.98-.7-.11-1.37-.42-2.11-.31-.29,.14-.54,.08-.75-.17Z" style="fill: #bd291b;"/>
    <path d="M444.44,78.88c-1.62,6.15-7.9,11.16-13.97,11.15-5.72,0-9.12-4.04-8.27-9.72,.95-6.42,7.54-12.1,13.97-12.29,6.2-.19,9.9,4.67,8.27,10.86Z" style="fill: #ec776c;"/>
  </g>
  <g>
    <path d="M385.3,132.93c-.84-.12-1.68,.04-2.51,.03-1.21-.01-1.75-.84-1.24-1.93,.57-1.24,1.16-2.48,1.79-3.69,.34-.64,.21-.82-.51-.87-6.87-.46-13.2-2.6-18.94-6.37-9.9-6.5-16.25-15.62-18.82-27.11-3.49-15.58-.08-29.65,10.56-41.66,7.12-8.04,16.17-12.69,26.93-13.67,12.29-1.11,22.93,2.78,31.85,11.19,8.23,7.76,12.76,17.45,13.72,28.7,1.18,13.66-2.8,25.7-12.14,35.78-6.9,7.45-15.49,11.8-25.61,13.05-.71,.09-1.42,.14-2.14,.14-.56,0-.64,.17-.38,.65,.59,1.1,1.14,2.21,1.7,3.32,.74,1.46,.28,2.21-1.37,2.31-.71,.04-1.43-.13-2.12,.13-.26,.19-.51,.19-.76-.01Z" style="fill: #bdb83a;"/>
    <path d="M377.18,60.66c-.31,6.35-5.41,12.55-11.35,13.81-5.59,1.18-9.76-2.06-10.11-7.8-.4-6.48,4.87-13.4,11.12-14.92,6.03-1.47,10.65,2.52,10.34,8.92Z" style="fill: #ebe894;"/>
  </g>
  <g>
    <path d="M315.55,145.98c-.81-.25-1.66-.21-2.49-.35-1.2-.2-1.6-1.1-.93-2.1,.76-1.14,1.52-2.27,2.33-3.37,.43-.59,.33-.78-.37-.93-6.72-1.5-12.65-4.59-17.75-9.19-8.79-7.94-13.67-17.92-14.46-29.67-1.07-15.93,4.46-29.31,16.81-39.56,8.27-6.86,17.92-10.07,28.7-9.39,12.31,.78,22.24,6.25,29.76,15.93,6.94,8.93,9.94,19.19,9.17,30.46-.93,13.68-6.69,24.97-17.47,33.51-7.96,6.31-17.11,9.29-27.3,8.98-.71-.02-1.43-.08-2.13-.18-.55-.08-.66,.07-.48,.58,.41,1.17,.79,2.36,1.18,3.54,.51,1.56-.06,2.23-1.7,2.08-.71-.07-1.39-.35-2.12-.2-.28,.15-.54,.11-.75-.13Z" style="fill: #49ad33;"/>
    <path d="M318.58,73.33c-1.28,6.23-7.27,11.58-13.33,11.91-5.71,.31-9.33-3.53-8.8-9.25,.6-6.46,6.86-12.5,13.27-13.04,6.19-.53,10.14,4.12,8.85,10.39Z" style="fill: #8ec478;"/>
  </g>
  <g>
    <path d="M254.8,145.98c-.81-.25-1.66-.21-2.49-.35-1.2-.2-1.6-1.1-.93-2.1,.76-1.14,1.52-2.27,2.33-3.37,.43-.59,.33-.78-.37-.93-6.72-1.5-12.65-4.59-17.75-9.19-8.79-7.94-13.67-17.92-14.46-29.67-1.07-15.93,4.46-29.31,16.81-39.56,8.27-6.86,17.92-10.07,28.7-9.39,12.31,.78,22.24,6.25,29.76,15.93,6.94,8.93,9.94,19.19,9.17,30.46-.93,13.68-6.69,24.97-17.47,33.51-7.96,6.31-17.11,9.29-27.3,8.98-.71-.02-1.43-.08-2.13-.18-.55-.08-.66,.07-.48,.58,.41,1.17,.79,2.36,1.18,3.54,.51,1.56-.06,2.23-1.7,2.08-.71-.07-1.39-.35-2.12-.2-.28,.15-.54,.11-.75-.13Z" style="fill: #bd291b;"/>
    <path d="M257.83,73.33c-1.28,6.23-7.27,11.58-13.33,11.91-5.71,.31-9.33-3.53-8.8-9.25,.6-6.46,6.86-12.5,13.27-13.04,6.19-.53,10.14,4.12,8.85,10.39Z" style="fill: #ec776c;"/>
  </g>
  <g>
    <path d="M218.69,129.03c-.84-.14-1.68,0-2.51-.02-1.21-.04-1.73-.88-1.2-1.96,.6-1.23,1.21-2.45,1.87-3.65,.35-.64,.23-.81-.49-.88-6.86-.61-13.14-2.89-18.8-6.79-9.75-6.71-15.9-15.97-18.22-27.52-3.15-15.65,.57-29.64,11.48-41.42,7.3-7.88,16.45-12.33,27.23-13.07,12.31-.84,22.87,3.28,31.6,11.89,8.06,7.94,12.37,17.72,13.09,28.99,.87,13.69-3.36,25.63-12.92,35.51-7.06,7.3-15.75,11.46-25.89,12.48-.71,.07-1.43,.11-2.14,.1-.56,0-.65,.15-.4,.64,.56,1.11,1.09,2.23,1.63,3.35,.71,1.48,.23,2.22-1.42,2.28-.71,.03-1.43-.16-2.13,.08-.26,.19-.52,.18-.76-.03Z" style="fill: #5d7dbd;"/>
    <path d="M212.16,56.61c-.45,6.34-5.69,12.43-11.66,13.55-5.62,1.06-9.71-2.28-9.93-8.02-.25-6.49,5.17-13.29,11.45-14.67,6.06-1.34,10.59,2.75,10.14,9.14Z" style="fill: #becdeb;"/>
  </g>
  <g>
    <path d="M640.96,181.44c-.79-.31-1.64-.34-2.46-.54-1.18-.29-1.51-1.22-.77-2.17,.84-1.08,1.69-2.15,2.58-3.19,.47-.55,.39-.75-.3-.96-6.59-2.01-12.27-5.53-17-10.51-8.17-8.58-12.28-18.9-12.18-30.67,.14-15.96,6.66-28.89,19.75-38.17,8.76-6.21,18.63-8.69,29.33-7.19,12.22,1.71,21.7,7.91,28.48,18.13,6.25,9.43,8.46,19.89,6.85,31.06-1.96,13.57-8.56,24.39-19.95,32.09-8.41,5.69-17.77,7.97-27.9,6.89-.71-.08-1.42-.19-2.11-.35-.55-.12-.66,.02-.52,.54,.32,1.2,.61,2.41,.91,3.62,.39,1.59-.23,2.22-1.86,1.94-.7-.12-1.36-.45-2.1-.36-.29,.13-.54,.07-.74-.18Z" style="fill: #bdb83a;"/>
    <path d="M649.47,109.22c-1.74,6.11-8.12,11-14.19,10.87-5.72-.12-9.03-4.23-8.07-9.89,1.08-6.4,7.79-11.94,14.22-12,6.21-.06,9.8,4.87,8.04,11.03Z" style="fill: #ebe894;"/>
  </g>
  <g>
    <path d="M579.73,185.62c-.83-.18-1.67-.08-2.51-.15-1.21-.1-1.69-.97-1.1-2.02,.66-1.2,1.33-2.39,2.05-3.55,.38-.62,.27-.8-.45-.9-6.82-.96-12.98-3.55-18.43-7.72-9.4-7.2-15.07-16.75-16.81-28.4-2.36-15.79,2.07-29.58,13.55-40.79,7.68-7.5,17.05-11.49,27.85-11.68,12.33-.22,22.67,4.43,30.96,13.46,7.64,8.34,11.46,18.32,11.61,29.61,.18,13.71-4.65,25.43-14.7,34.81-7.42,6.93-16.31,10.65-26.48,11.16-.71,.04-1.43,.03-2.14-.01-.56-.04-.65,.12-.43,.62,.5,1.14,.98,2.29,1.46,3.43,.63,1.51,.12,2.23-1.53,2.21-.71,0-1.42-.23-2.13-.02-.27,.17-.52,.15-.76-.07Z" style="fill: #5d7dbd;"/>
    <path d="M576.87,112.96c-.77,6.31-6.31,12.13-12.32,12.95-5.66,.77-9.58-2.77-9.52-8.51,.07-6.49,5.83-13.01,12.17-14.08,6.12-1.03,10.44,3.28,9.67,9.64Z" style="fill: #becdeb;"/>
  </g>
  <g>
    <path d="M511.83,198.25c-.8-.3-1.65-.3-2.47-.49-1.18-.27-1.54-1.19-.82-2.15,.82-1.09,1.65-2.18,2.51-3.24,.46-.56,.38-.76-.32-.95-6.63-1.87-12.38-5.28-17.21-10.16-8.34-8.41-12.66-18.65-12.8-30.42-.19-15.96,6.07-29.02,18.97-38.57,8.63-6.39,18.45-9.07,29.18-7.79,12.25,1.46,21.86,7.47,28.84,17.55,6.44,9.3,8.86,19.71,7.48,30.92-1.68,13.61-8.06,24.56-19.29,32.49-8.3,5.86-17.6,8.33-27.75,7.46-.71-.06-1.42-.16-2.12-.3-.55-.11-.66,.03-.51,.55,.35,1.19,.66,2.4,.98,3.6,.42,1.58-.18,2.23-1.82,1.98-.7-.11-1.37-.42-2.11-.31-.29,.14-.54,.08-.75-.17Z" style="fill: #bd291b;"/>
    <path d="M518.86,125.86c-1.62,6.15-7.9,11.16-13.97,11.15-5.72,0-9.12-4.04-8.27-9.72,.95-6.42,7.54-12.1,13.97-12.29,6.2-.19,9.9,4.67,8.27,10.86Z" style="fill: #ec776c;"/>
  </g>
  <g>
    <path d="M459.72,179.92c-.84-.12-1.68,.04-2.51,.03-1.21-.01-1.75-.84-1.24-1.93,.57-1.24,1.16-2.48,1.79-3.69,.34-.64,.21-.82-.51-.87-6.87-.46-13.2-2.6-18.94-6.37-9.9-6.5-16.25-15.62-18.82-27.11-3.49-15.58-.08-29.65,10.56-41.66,7.12-8.04,16.17-12.69,26.93-13.67,12.29-1.11,22.93,2.78,31.85,11.19,8.23,7.76,12.76,17.45,13.72,28.7,1.18,13.66-2.8,25.7-12.14,35.78-6.9,7.45-15.49,11.8-25.61,13.05-.71,.09-1.42,.14-2.14,.14-.56,0-.64,.17-.38,.65,.59,1.1,1.14,2.21,1.7,3.32,.74,1.46,.28,2.21-1.37,2.31-.71,.04-1.43-.13-2.12,.13-.26,.19-.51,.19-.76-.01Z" style="fill: #bdb83a;"/>
    <path d="M451.6,107.65c-.31,6.35-5.41,12.55-11.35,13.81-5.59,1.18-9.76-2.06-10.11-7.8-.4-6.48,4.87-13.4,11.12-14.92,6.03-1.47,10.65,2.52,10.34,8.92Z" style="fill: #ebe894;"/>
  </g>
  <g>
    <path d="M389.97,192.97c-.81-.25-1.66-.21-2.49-.35-1.2-.2-1.6-1.1-.93-2.1,.76-1.14,1.52-2.27,2.33-3.37,.43-.59,.33-.78-.37-.93-6.72-1.5-12.65-4.59-17.75-9.19-8.79-7.94-13.67-17.92-14.46-29.67-1.07-15.93,4.46-29.31,16.81-39.56,8.27-6.86,17.92-10.07,28.7-9.39,12.31,.78,22.24,6.25,29.76,15.93,6.94,8.93,9.94,19.19,9.17,30.46-.93,13.68-6.69,24.97-17.47,33.51-7.96,6.31-17.11,9.29-27.3,8.98-.71-.02-1.43-.08-2.13-.18-.55-.08-.66,.07-.48,.58,.41,1.17,.79,2.36,1.18,3.54,.51,1.56-.06,2.23-1.7,2.08-.71-.07-1.39-.35-2.12-.2-.28,.15-.54,.11-.75-.13Z" style="fill: #49ad33;"/>
    <path d="M392.99,120.31c-1.28,6.23-7.27,11.58-13.33,11.91-5.71,.31-9.33-3.53-8.8-9.25,.6-6.46,6.86-12.5,13.27-13.04,6.19-.53,10.14,4.12,8.85,10.39Z" style="fill: #8ec478;"/>
  </g>
  <g>
    <path d="M329.22,192.97c-.81-.25-1.66-.21-2.49-.35-1.2-.2-1.6-1.1-.93-2.1,.76-1.14,1.52-2.27,2.33-3.37,.43-.59,.33-.78-.37-.93-6.72-1.5-12.65-4.59-17.75-9.19-8.79-7.94-13.67-17.92-14.46-29.67-1.07-15.93,4.46-29.31,16.81-39.56,8.27-6.86,17.92-10.07,28.7-9.39,12.31,.78,22.24,6.25,29.76,15.93,6.94,8.93,9.94,19.19,9.17,30.46-.93,13.68-6.69,24.97-17.47,33.51-7.96,6.31-17.11,9.29-27.3,8.98-.71-.02-1.43-.08-2.13-.18-.55-.08-.66,.07-.48,.58,.41,1.17,.79,2.36,1.18,3.54,.51,1.56-.06,2.23-1.7,2.08-.71-.07-1.39-.35-2.12-.2-.28,.15-.54,.11-.75-.13Z" style="fill: #bd291b;"/>
    <path d="M332.25,120.31c-1.28,6.23-7.27,11.58-13.33,11.91-5.71,.31-9.33-3.53-8.8-9.25,.6-6.46,6.86-12.5,13.27-13.04,6.19-.53,10.14,4.12,8.85,10.39Z" style="fill: #ec776c;"/>
  </g>
  <g>
    <path d="M293.11,176.02c-.84-.14-1.68,0-2.51-.02-1.21-.04-1.73-.88-1.2-1.96,.6-1.23,1.21-2.45,1.87-3.65,.35-.64,.23-.81-.49-.88-6.86-.61-13.14-2.89-18.8-6.79-9.75-6.71-15.9-15.97-18.22-27.52-3.15-15.65,.57-29.64,11.48-41.42,7.3-7.88,16.45-12.33,27.23-13.07,12.31-.84,22.87,3.28,31.6,11.89,8.06,7.94,12.37,17.72,13.09,28.99,.87,13.69-3.36,25.63-12.92,35.51-7.06,7.3-15.75,11.46-25.89,12.48-.71,.07-1.43,.11-2.14,.1-.56,0-.65,.15-.4,.64,.56,1.11,1.09,2.23,1.63,3.35,.71,1.48,.23,2.22-1.42,2.28-.71,.03-1.43-.16-2.13,.08-.26,.19-.52,.18-.76-.03Z" style="fill: #5d7dbd;"/>
    <path d="M286.58,103.59c-.45,6.34-5.69,12.43-11.66,13.55-5.62,1.06-9.71-2.28-9.93-8.02-.25-6.49,5.17-13.29,11.45-14.67,6.06-1.34,10.59,2.75,10.14,9.14Z" style="fill: #becdeb;"/>
  </g>
  <g>
    <path d="M51.69,175.55c.85-.08,1.67,.13,2.51,.16,1.21,.05,1.79-.75,1.34-1.87-.51-1.27-1.03-2.53-1.6-3.78-.3-.66-.17-.83,.55-.84,6.89-.11,13.32-1.92,19.24-5.39,10.22-5.98,17.02-14.77,20.18-26.11,4.28-15.38,1.59-29.61-8.42-42.14-6.7-8.39-15.5-13.5-26.2-15.02-12.21-1.74-23.04,1.6-32.38,9.55-8.61,7.33-13.63,16.77-15.17,27.96-1.87,13.59,1.48,25.81,10.29,36.36,6.51,7.79,14.87,12.57,24.91,14.34,.7,.12,1.42,.21,2.13,.25,.56,.03,.63,.2,.35,.67-.64,1.06-1.25,2.15-1.87,3.23-.81,1.42-.4,2.2,1.25,2.38,.71,.08,1.43-.05,2.12,.24,.25,.21,.5,.22,.76,.03Z" style="fill: #bd291b;"/>
    <path d="M63.49,103.8c-.02,6.36,4.76,12.81,10.63,14.37,5.53,1.46,9.85-1.56,10.49-7.27,.73-6.45-4.18-13.63-10.35-15.47-5.95-1.78-10.76,1.97-10.78,8.38Z" style="fill: #ec776c;"/>
  </g>
  <g>
    <path d="M156.57,114.27c.85-.08,1.67,.13,2.51,.16,1.21,.05,1.79-.75,1.34-1.87-.51-1.27-1.03-2.53-1.6-3.78-.3-.66-.17-.83,.55-.84,6.89-.11,13.32-1.92,19.24-5.39,10.22-5.98,17.02-14.77,20.18-26.11,4.28-15.38,1.59-29.61-8.42-42.14-6.7-8.39-15.5-13.5-26.2-15.02-12.21-1.74-23.04,1.6-32.38,9.55-8.61,7.33-13.63,16.77-15.17,27.96-1.87,13.59,1.48,25.81,10.29,36.36,6.51,7.79,14.87,12.57,24.91,14.34,.7,.12,1.42,.21,2.13,.25,.56,.03,.63,.2,.35,.67-.64,1.06-1.25,2.15-1.87,3.23-.81,1.42-.4,2.2,1.25,2.38,.71,.08,1.43-.05,2.12,.24,.25,.21,.5,.22,.76,.03Z" style="fill: #bd291b;"/>
    <path d="M168.37,42.51c-.02,6.36,4.76,12.81,10.63,14.37,5.53,1.46,9.85-1.56,10.49-7.27,.73-6.45-4.18-13.63-10.35-15.47-5.95-1.78-10.76,1.97-10.78,8.38Z" style="fill: #ec776c;"/>
  </g>
  <g>
    <path d="M128.32,188.95c.79-.31,1.64-.34,2.46-.54,1.18-.29,1.51-1.22,.77-2.17-.84-1.08-1.69-2.15-2.58-3.19-.47-.55-.39-.75,.3-.96,6.59-2.01,12.27-5.53,17-10.51,8.17-8.58,12.28-18.9,12.18-30.67-.14-15.96-6.66-28.89-19.75-38.17-8.76-6.21-18.63-8.69-29.33-7.19-12.22,1.71-21.7,7.91-28.48,18.13-6.25,9.43-8.46,19.89-6.85,31.06,1.96,13.57,8.56,24.39,19.95,32.09,8.41,5.69,17.77,7.97,27.9,6.89,.71-.08,1.42-.19,2.11-.35,.55-.12,.66,.02,.52,.54-.32,1.2-.61,2.41-.91,3.62-.39,1.59,.23,2.22,1.86,1.94,.7-.12,1.36-.45,2.1-.36,.29,.13,.54,.07,.74-.18Z" style="fill: #bdb83a;"/>
    <path d="M119.81,116.73c1.74,6.11,8.12,11,14.19,10.87,5.72-.12,9.03-4.23,8.07-9.89-1.08-6.4-7.79-11.94-14.22-12-6.21-.06-9.8,4.87-8.04,11.03Z" style="fill: #ebe894;"/>
  </g>
  <g>
    <path d="M54.78,93.82c.79-.31,1.64-.34,2.46-.54,1.18-.29,1.51-1.22,.77-2.17-.84-1.08-1.69-2.15-2.58-3.19-.47-.55-.39-.75,.3-.96,6.59-2.01,12.27-5.53,17-10.51,8.17-8.58,12.28-18.9,12.18-30.67-.14-15.96-6.66-28.89-19.75-38.17C56.4,1.4,46.53-1.07,35.83,.42,23.61,2.13,14.13,8.34,7.36,18.55,1.11,27.98-1.1,38.44,.51,49.62c1.96,13.57,8.56,24.39,19.95,32.09,8.41,5.69,17.77,7.97,27.9,6.89,.71-.08,1.42-.19,2.11-.35,.55-.12,.66,.02,.52,.54-.32,1.2-.61,2.41-.91,3.62-.39,1.59,.23,2.22,1.86,1.94,.7-.12,1.36-.45,2.1-.36,.29,.13,.54,.07,.74-.18Z" style="fill: #bdb83a;"/>
    <path d="M46.28,21.6c1.74,6.11,8.12,11,14.19,10.87,5.72-.12,9.03-4.23,8.07-9.89-1.08-6.4-7.79-11.94-14.22-12-6.21-.06-9.8,4.87-8.04,11.03Z" style="fill: #ebe894;"/>
  </g>
  <g>
    <path d="M180.04,178.49c.83-.18,1.67-.08,2.51-.15,1.21-.1,1.69-.97,1.1-2.02-.66-1.2-1.33-2.39-2.05-3.55-.38-.62-.27-.8,.45-.9,6.82-.96,12.98-3.55,18.43-7.72,9.4-7.2,15.07-16.75,16.81-28.4,2.36-15.79-2.07-29.58-13.55-40.79-7.68-7.5-17.05-11.49-27.85-11.68-12.33-.22-22.67,4.43-30.96,13.46-7.64,8.34-11.46,18.32-11.61,29.61-.18,13.71,4.65,25.43,14.7,34.81,7.42,6.93,16.31,10.65,26.48,11.16,.71,.04,1.43,.03,2.14-.01,.56-.04,.65,.12,.43,.62-.5,1.14-.98,2.29-1.46,3.43-.63,1.51-.12,2.23,1.53,2.21,.71,0,1.42-.23,2.13-.02,.27,.17,.52,.15,.76-.07Z" style="fill: #49ad33;"/>
    <path d="M182.91,105.82c.77,6.31,6.31,12.13,12.32,12.95,5.66,.77,9.58-2.77,9.52-8.51-.07-6.49-5.83-13.01-12.17-14.08-6.12-1.03-10.44,3.28-9.67,9.64Z" style="fill: #8ec478;"/>
  </g>
  <g>
    <path d="M100.32,103.38c.83-.18,1.67-.08,2.51-.15,1.21-.1,1.69-.97,1.1-2.02-.66-1.2-1.33-2.39-2.05-3.55-.38-.62-.27-.8,.45-.9,6.82-.96,12.98-3.55,18.43-7.72,9.4-7.2,15.07-16.75,16.81-28.4,2.36-15.79-2.07-29.58-13.55-40.79-7.68-7.5-17.05-11.49-27.85-11.68-12.33-.22-22.67,4.43-30.96,13.46-7.64,8.34-11.46,18.32-11.61,29.61-.18,13.71,4.65,25.43,14.7,34.81,7.42,6.93,16.31,10.65,26.48,11.16,.71,.04,1.43,.03,2.14-.01,.56-.04,.65,.12,.43,.62-.5,1.14-.98,2.29-1.46,3.43-.63,1.51-.12,2.23,1.53,2.21,.71,0,1.42-.23,2.13-.02,.27,.17,.52,.15,.76-.07Z" style="fill: #49ad33;"/>
    <path d="M103.18,30.71c.77,6.31,6.31,12.13,12.32,12.95,5.66,.77,9.58-2.77,9.52-8.51-.07-6.49-5.83-13.01-12.17-14.08-6.12-1.03-10.44,3.28-9.67,9.64Z" style="fill: #8ec478;"/>
  </g>
  <g>
    <path d="M246.85,188.87c.8-.3,1.65-.3,2.47-.49,1.18-.27,1.54-1.19,.82-2.15-.82-1.09-1.65-2.18-2.51-3.24-.46-.56-.38-.76,.32-.95,6.63-1.87,12.38-5.28,17.21-10.16,8.34-8.41,12.66-18.65,12.8-30.42,.19-15.96-6.07-29.02-18.97-38.57-8.63-6.39-18.45-9.07-29.18-7.79-12.25,1.46-21.86,7.47-28.84,17.55-6.44,9.3-8.86,19.71-7.48,30.92,1.68,13.61,8.06,24.56,19.29,32.49,8.3,5.86,17.6,8.33,27.75,7.46,.71-.06,1.42-.16,2.12-.3,.55-.11,.66,.03,.51,.55-.35,1.19-.66,2.4-.98,3.6-.42,1.58,.18,2.23,1.82,1.98,.7-.11,1.37-.42,2.11-.31,.29,.14,.54,.08,.75-.17Z" style="fill: #bd291b;"/>
    <path d="M239.82,116.49c1.62,6.15,7.9,11.16,13.97,11.15,5.72,0,9.12-4.04,8.27-9.72-.95-6.42-7.54-12.1-13.97-12.29-6.2-.19-9.9,4.67-8.27,10.86Z" style="fill: #ec776c;"/>
  </g>
  <g>
    <path d="M846.62,161.51c.83-.19,1.67-.1,2.51-.18,1.21-.12,1.67-.99,1.08-2.03-.68-1.19-1.36-2.37-2.09-3.53-.39-.61-.28-.8,.44-.91,6.81-1.04,12.94-3.7,18.34-7.94,9.32-7.31,14.87-16.93,16.47-28.6,2.17-15.81-2.42-29.55-14.03-40.62-7.77-7.41-17.18-11.28-27.99-11.35-12.34-.07-22.62,4.7-30.79,13.83-7.54,8.43-11.24,18.46-11.26,29.75-.02,13.71,4.95,25.37,15.11,34.63,7.51,6.84,16.43,10.45,26.61,10.84,.71,.03,1.43,.02,2.14-.04,.56-.04,.65,.11,.44,.61-.49,1.14-.95,2.3-1.42,3.45-.61,1.52-.1,2.23,1.56,2.19,.71-.02,1.41-.25,2.13-.05,.27,.17,.53,.15,.76-.08Z" style="fill: #49ad33;"/>
    <path d="M848.62,88.81c.84,6.3,6.45,12.05,12.48,12.8,5.67,.7,9.55-2.88,9.41-8.62-.15-6.49-5.98-12.94-12.34-13.93-6.13-.96-10.4,3.41-9.55,9.75Z" style="fill: #8ec478;"/>
  </g>
  <g>
    <path d="M902.64,137.94c.85-.08,1.67,.13,2.51,.16,1.21,.05,1.79-.75,1.34-1.87-.51-1.27-1.03-2.53-1.6-3.78-.3-.66-.17-.83,.55-.84,6.89-.11,13.32-1.92,19.24-5.39,10.22-5.98,17.02-14.77,20.18-26.11,4.28-15.38,1.59-29.61-8.42-42.14-6.7-8.39-15.5-13.5-26.2-15.02-12.21-1.74-23.04,1.6-32.38,9.55-8.61,7.33-13.63,16.77-15.17,27.96-1.87,13.59,1.48,25.81,10.29,36.36,6.51,7.79,14.87,12.57,24.91,14.34,.7,.12,1.42,.21,2.13,.25,.56,.03,.63,.2,.35,.67-.64,1.06-1.25,2.15-1.87,3.23-.81,1.42-.4,2.2,1.25,2.38,.71,.08,1.43-.05,2.12,.24,.25,.21,.5,.22,.76,.03Z" style="fill: #bd291b;"/>
    <path d="M914.43,66.18c-.02,6.36,4.76,12.81,10.63,14.37,5.53,1.46,9.85-1.56,10.49-7.27,.73-6.45-4.18-13.63-10.35-15.47-5.95-1.78-10.76,1.97-10.78,8.38Z" style="fill: #ec776c;"/>
  </g>
  <g>
    <path d="M804.31,188.69c.85-.08,1.67,.13,2.51,.16,1.21,.05,1.79-.75,1.34-1.87-.51-1.27-1.03-2.53-1.6-3.78-.3-.66-.17-.83,.55-.84,6.89-.11,13.32-1.92,19.24-5.39,10.22-5.98,17.02-14.77,20.18-26.11,4.28-15.38,1.59-29.61-8.42-42.14-6.7-8.39-15.5-13.5-26.2-15.02-12.21-1.74-23.04,1.6-32.38,9.55-8.61,7.33-13.63,16.77-15.17,27.96-1.87,13.59,1.48,25.81,10.29,36.36,6.51,7.79,14.87,12.57,24.91,14.34,.7,.12,1.42,.21,2.13,.25,.56,.03,.63,.2,.35,.67-.64,1.06-1.25,2.15-1.87,3.23-.81,1.42-.4,2.2,1.25,2.38,.71,.08,1.43-.05,2.12,.24,.25,.21,.5,.22,.76,.03Z" style="fill: #bd291b;"/>
    <path d="M816.11,116.94c-.02,6.36,4.76,12.81,10.63,14.37,5.53,1.46,9.85-1.56,10.49-7.27,.73-6.45-4.18-13.63-10.35-15.47-5.95-1.78-10.76,1.97-10.78,8.38Z" style="fill: #ec776c;"/>
  </g>
  <g>
    <path d="M979.26,151.34c.79-.31,1.64-.34,2.46-.54,1.18-.29,1.51-1.22,.77-2.17-.84-1.08-1.69-2.15-2.58-3.19-.47-.55-.39-.75,.3-.96,6.59-2.01,12.27-5.53,17-10.51,8.17-8.58,12.28-18.9,12.18-30.67-.14-15.96-6.66-28.89-19.75-38.17-8.76-6.21-18.63-8.69-29.33-7.19-12.22,1.71-21.7,7.91-28.48,18.13-6.25,9.43-8.46,19.89-6.85,31.06,1.96,13.57,8.56,24.39,19.95,32.09,8.41,5.69,17.77,7.97,27.9,6.89,.71-.08,1.42-.19,2.11-.35,.55-.12,.66,.02,.52,.54-.32,1.2-.61,2.41-.91,3.62-.39,1.59,.23,2.22,1.86,1.94,.7-.12,1.36-.45,2.1-.36,.29,.13,.54,.07,.74-.18Z" style="fill: #bdb83a;"/>
    <path d="M970.76,79.11c1.74,6.11,8.12,11,14.19,10.87,5.72-.12,9.03-4.23,8.07-9.89-1.08-6.4-7.79-11.94-14.22-12-6.21-.06-9.8,4.87-8.04,11.03Z" style="fill: #ebe894;"/>
  </g>
  <g>
    <path d="M1030.99,140.87c.83-.18,1.67-.08,2.51-.15,1.21-.1,1.69-.97,1.1-2.02-.66-1.2-1.33-2.39-2.05-3.55-.38-.62-.27-.8,.45-.9,6.82-.96,12.98-3.55,18.43-7.72,9.4-7.2,15.07-16.75,16.81-28.4,2.36-15.79-2.07-29.58-13.55-40.79-7.68-7.5-17.05-11.49-27.85-11.68-12.33-.22-22.67,4.43-30.96,13.46-7.64,8.34-11.46,18.32-11.61,29.61-.18,13.71,4.65,25.43,14.7,34.81,7.42,6.93,16.31,10.65,26.48,11.16,.71,.04,1.43,.03,2.14-.01,.56-.04,.65,.12,.43,.62-.5,1.14-.98,2.29-1.46,3.43-.63,1.51-.12,2.23,1.53,2.21,.71,0,1.42-.23,2.13-.02,.27,.17,.52,.15,.76-.07Z" style="fill: #5d7dbd;"/>
    <path d="M1033.86,68.21c.77,6.31,6.31,12.13,12.32,12.95,5.66,.77,9.58-2.77,9.52-8.51-.07-6.49-5.83-13.01-12.17-14.08-6.12-1.03-10.44,3.28-9.67,9.64Z" style="fill: #becdeb;"/>
  </g>
  <g>
    <path d="M1097.79,151.26c.8-.3,1.65-.3,2.47-.49,1.18-.27,1.54-1.19,.82-2.15-.82-1.09-1.65-2.18-2.51-3.24-.46-.56-.38-.76,.32-.95,6.63-1.87,12.38-5.28,17.21-10.16,8.34-8.41,12.66-18.65,12.8-30.42,.19-15.96-6.07-29.02-18.97-38.57-8.63-6.39-18.45-9.07-29.18-7.79-12.25,1.46-21.86,7.47-28.84,17.55-6.44,9.3-8.86,19.71-7.48,30.92,1.68,13.61,8.06,24.56,19.29,32.49,8.3,5.86,17.6,8.33,27.75,7.46,.71-.06,1.42-.16,2.12-.3,.55-.11,.66,.03,.51,.55-.35,1.19-.66,2.4-.98,3.6-.42,1.58,.18,2.23,1.82,1.98,.7-.11,1.37-.42,2.11-.31,.29,.14,.54,.08,.75-.17Z" style="fill: #bd291b;"/>
    <path d="M1090.76,78.88c1.62,6.15,7.9,11.16,13.97,11.15,5.72,0,9.12-4.04,8.27-9.72-.95-6.42-7.54-12.1-13.97-12.29-6.2-.19-9.9,4.67-8.27,10.86Z" style="fill: #ec776c;"/>
  </g>
  <g>
    <path d="M1149.9,132.93c.84-.12,1.68,.04,2.51,.03,1.21-.01,1.75-.84,1.24-1.93-.57-1.24-1.16-2.48-1.79-3.69-.34-.64-.21-.82,.51-.87,6.87-.46,13.2-2.6,18.94-6.37,9.9-6.5,16.25-15.62,18.82-27.11,3.49-15.58,.08-29.65-10.56-41.66-7.12-8.04-16.17-12.69-26.93-13.67-12.29-1.11-22.93,2.78-31.85,11.19-8.23,7.76-12.76,17.45-13.72,28.7-1.18,13.66,2.8,25.7,12.14,35.78,6.9,7.45,15.49,11.8,25.61,13.05,.71,.09,1.42,.14,2.14,.14,.56,0,.64,.17,.38,.65-.59,1.1-1.14,2.21-1.7,3.32-.74,1.46-.28,2.21,1.37,2.31,.71,.04,1.43-.13,2.12,.13,.26,.19,.51,.19,.76-.01Z" style="fill: #bdb83a;"/>
    <path d="M1158.02,60.66c.31,6.35,5.41,12.55,11.35,13.81,5.59,1.18,9.76-2.06,10.11-7.8,.4-6.48-4.87-13.4-11.12-14.92-6.03-1.47-10.65,2.52-10.34,8.92Z" style="fill: #ebe894;"/>
  </g>
  <g>
    <path d="M1219.65,145.98c.81-.25,1.66-.21,2.49-.35,1.2-.2,1.6-1.1,.93-2.1-.76-1.14-1.52-2.27-2.33-3.37-.43-.59-.33-.78,.37-.93,6.72-1.5,12.65-4.59,17.75-9.19,8.79-7.94,13.67-17.92,14.46-29.67,1.07-15.93-4.46-29.31-16.81-39.56-8.27-6.86-17.92-10.07-28.7-9.39-12.31,.78-22.24,6.25-29.76,15.93-6.94,8.93-9.94,19.19-9.17,30.46,.93,13.68,6.69,24.97,17.47,33.51,7.96,6.31,17.11,9.29,27.3,8.98,.71-.02,1.43-.08,2.13-.18,.55-.08,.66,.07,.48,.58-.41,1.17-.79,2.36-1.18,3.54-.51,1.56,.06,2.23,1.7,2.08,.71-.07,1.39-.35,2.12-.2,.28,.15,.54,.11,.75-.13Z" style="fill: #49ad33;"/>
    <path d="M1216.63,73.33c1.28,6.23,7.27,11.58,13.33,11.91,5.71,.31,9.33-3.53,8.8-9.25-.6-6.46-6.86-12.5-13.27-13.04-6.19-.53-10.14,4.12-8.85,10.39Z" style="fill: #8ec478;"/>
  </g>
  <g>
    <path d="M1280.4,145.98c.81-.25,1.66-.21,2.49-.35,1.2-.2,1.6-1.1,.93-2.1-.76-1.14-1.52-2.27-2.33-3.37-.43-.59-.33-.78,.37-.93,6.72-1.5,12.65-4.59,17.75-9.19,8.79-7.94,13.67-17.92,14.46-29.67,1.07-15.93-4.46-29.31-16.81-39.56-8.27-6.86-17.92-10.07-28.7-9.39-12.31,.78-22.24,6.25-29.76,15.93-6.94,8.93-9.94,19.19-9.17,30.46,.93,13.68,6.69,24.97,17.47,33.51,7.96,6.31,17.11,9.29,27.3,8.98,.71-.02,1.43-.08,2.13-.18,.55-.08,.66,.07,.48,.58-.41,1.17-.79,2.36-1.18,3.54-.51,1.56,.06,2.23,1.7,2.08,.71-.07,1.39-.35,2.12-.2,.28,.15,.54,.11,.75-.13Z" style="fill: #bd291b;"/>
    <path d="M1277.37,73.33c1.28,6.23,7.27,11.58,13.33,11.91,5.71,.31,9.33-3.53,8.8-9.25-.6-6.46-6.86-12.5-13.27-13.04-6.19-.53-10.14,4.12-8.85,10.39Z" style="fill: #ec776c;"/>
  </g>
  <g>
    <path d="M1316.51,129.03c.84-.14,1.68,0,2.51-.02,1.21-.04,1.73-.88,1.2-1.96-.6-1.23-1.21-2.45-1.87-3.65-.35-.64-.23-.81,.49-.88,6.86-.61,13.14-2.89,18.8-6.79,9.75-6.71,15.9-15.97,18.22-27.52,3.15-15.65-.57-29.64-11.48-41.42-7.3-7.88-16.45-12.33-27.23-13.07-12.31-.84-22.87,3.28-31.6,11.89-8.06,7.94-12.37,17.72-13.09,28.99-.87,13.69,3.36,25.63,12.92,35.51,7.06,7.3,15.75,11.46,25.89,12.48,.71,.07,1.43,.11,2.14,.1,.56,0,.65,.15,.4,.64-.56,1.11-1.09,2.23-1.63,3.35-.71,1.48-.23,2.22,1.42,2.28,.71,.03,1.43-.16,2.13,.08,.26,.19,.52,.18,.76-.03Z" style="fill: #5d7dbd;"/>
    <path d="M1323.04,56.61c.45,6.34,5.69,12.43,11.66,13.55,5.62,1.06,9.71-2.28,9.93-8.02,.25-6.49-5.17-13.29-11.45-14.67-6.06-1.34-10.59,2.75-10.14,9.14Z" style="fill: #becdeb;"/>
  </g>
  <g>
    <path d="M894.24,181.44c.79-.31,1.64-.34,2.46-.54,1.18-.29,1.51-1.22,.77-2.17-.84-1.08-1.69-2.15-2.58-3.19-.47-.55-.39-.75,.3-.96,6.59-2.01,12.27-5.53,17-10.51,8.17-8.58,12.28-18.9,12.18-30.67-.14-15.96-6.66-28.89-19.75-38.17-8.76-6.21-18.63-8.69-29.33-7.19-12.22,1.71-21.7,7.91-28.48,18.13-6.25,9.43-8.46,19.89-6.85,31.06,1.96,13.57,8.56,24.39,19.95,32.09,8.41,5.69,17.77,7.97,27.9,6.89,.71-.08,1.42-.19,2.11-.35,.55-.12,.66,.02,.52,.54-.32,1.2-.61,2.41-.91,3.62-.39,1.59,.23,2.22,1.86,1.94,.7-.12,1.36-.45,2.1-.36,.29,.13,.54,.07,.74-.18Z" style="fill: #bdb83a;"/>
    <path d="M885.74,109.22c1.74,6.11,8.12,11,14.19,10.87,5.72-.12,9.03-4.23,8.07-9.89-1.08-6.4-7.79-11.94-14.22-12-6.21-.06-9.8,4.87-8.04,11.03Z" style="fill: #ebe894;"/>
  </g>
  <g>
    <path d="M955.47,185.62c.83-.18,1.67-.08,2.51-.15,1.21-.1,1.69-.97,1.1-2.02-.66-1.2-1.33-2.39-2.05-3.55-.38-.62-.27-.8,.45-.9,6.82-.96,12.98-3.55,18.43-7.72,9.4-7.2,15.07-16.75,16.81-28.4,2.36-15.79-2.07-29.58-13.55-40.79-7.68-7.5-17.05-11.49-27.85-11.68-12.33-.22-22.67,4.43-30.96,13.46-7.64,8.34-11.46,18.32-11.61,29.61-.18,13.71,4.65,25.43,14.7,34.81,7.42,6.93,16.31,10.65,26.48,11.16,.71,.04,1.43,.03,2.14-.01,.56-.04,.65,.12,.43,.62-.5,1.14-.98,2.29-1.46,3.43-.63,1.51-.12,2.23,1.53,2.21,.71,0,1.42-.23,2.13-.02,.27,.17,.52,.15,.76-.07Z" style="fill: #5d7dbd;"/>
    <path d="M958.34,112.96c.77,6.31,6.31,12.13,12.32,12.95,5.66,.77,9.58-2.77,9.52-8.51-.07-6.49-5.83-13.01-12.17-14.08-6.12-1.03-10.44,3.28-9.67,9.64Z" style="fill: #becdeb;"/>
  </g>
  <g>
    <path d="M737.38,188.57c.83-.18,1.67-.08,2.51-.15,1.21-.1,1.69-.97,1.1-2.02-.66-1.2-1.33-2.39-2.05-3.55-.38-.62-.27-.8,.45-.9,6.82-.96,12.98-3.55,18.43-7.72,9.4-7.2,15.07-16.75,16.81-28.4,2.36-15.79-2.07-29.58-13.55-40.79-7.68-7.5-17.05-11.49-27.85-11.68-12.33-.22-22.67,4.43-30.96,13.46-7.64,8.34-11.46,18.32-11.61,29.61-.18,13.71,4.65,25.43,14.7,34.81,7.42,6.93,16.31,10.65,26.48,11.16,.71,.04,1.43,.03,2.14-.01,.56-.04,.65,.12,.43,.62-.5,1.14-.98,2.29-1.46,3.43-.63,1.51-.12,2.23,1.53,2.21,.71,0,1.42-.23,2.13-.02,.27,.17,.52,.15,.76-.07Z" style="fill: #5d7dbd;"/>
    <path d="M740.25,115.91c.77,6.31,6.31,12.13,12.32,12.95,5.66,.77,9.58-2.77,9.52-8.51-.07-6.49-5.83-13.01-12.17-14.08-6.12-1.03-10.44,3.28-9.67,9.64Z" style="fill: #becdeb;"/>
  </g>
  <g>
    <path d="M1023.38,198.25c.8-.3,1.65-.3,2.47-.49,1.18-.27,1.54-1.19,.82-2.15-.82-1.09-1.65-2.18-2.51-3.24-.46-.56-.38-.76,.32-.95,6.63-1.87,12.38-5.28,17.21-10.16,8.34-8.41,12.66-18.65,12.8-30.42,.19-15.96-6.07-29.02-18.97-38.57-8.63-6.39-18.45-9.07-29.18-7.79-12.25,1.46-21.86,7.47-28.84,17.55-6.44,9.3-8.86,19.71-7.48,30.92,1.68,13.61,8.06,24.56,19.29,32.49,8.3,5.86,17.6,8.33,27.75,7.46,.71-.06,1.42-.16,2.12-.3,.55-.11,.66,.03,.51,.55-.35,1.19-.66,2.4-.98,3.6-.42,1.58,.18,2.23,1.82,1.98,.7-.11,1.37-.42,2.11-.31,.29,.14,.54,.08,.75-.17Z" style="fill: #bd291b;"/>
    <path d="M1016.34,125.86c1.62,6.15,7.9,11.16,13.97,11.15,5.72,0,9.12-4.04,8.27-9.72-.95-6.42-7.54-12.1-13.97-12.29-6.2-.19-9.9,4.67-8.27,10.86Z" style="fill: #ec776c;"/>
  </g>
  <g>
    <path d="M1075.49,179.92c.84-.12,1.68,.04,2.51,.03,1.21-.01,1.75-.84,1.24-1.93-.57-1.24-1.16-2.48-1.79-3.69-.34-.64-.21-.82,.51-.87,6.87-.46,13.2-2.6,18.94-6.37,9.9-6.5,16.25-15.62,18.82-27.11,3.49-15.58,.08-29.65-10.56-41.66-7.12-8.04-16.17-12.69-26.93-13.67-12.29-1.11-22.93,2.78-31.85,11.19-8.23,7.76-12.76,17.45-13.72,28.7-1.18,13.66,2.8,25.7,12.14,35.78,6.9,7.45,15.49,11.8,25.61,13.05,.71,.09,1.42,.14,2.14,.14,.56,0,.64,.17,.38,.65-.59,1.1-1.14,2.21-1.7,3.32-.74,1.46-.28,2.21,1.37,2.31,.71,.04,1.43-.13,2.12,.13,.26,.19,.51,.19,.76-.01Z" style="fill: #bdb83a;"/>
    <path d="M1083.6,107.65c.31,6.35,5.41,12.55,11.35,13.81,5.59,1.18,9.76-2.06,10.11-7.8,.4-6.48-4.87-13.4-11.12-14.92-6.03-1.47-10.65,2.52-10.34,8.92Z" style="fill: #ebe894;"/>
  </g>
  <g>
    <path d="M1145.24,192.97c.81-.25,1.66-.21,2.49-.35,1.2-.2,1.6-1.1,.93-2.1-.76-1.14-1.52-2.27-2.33-3.37-.43-.59-.33-.78,.37-.93,6.72-1.5,12.65-4.59,17.75-9.19,8.79-7.94,13.67-17.92,14.46-29.67,1.07-15.93-4.46-29.31-16.81-39.56-8.27-6.86-17.92-10.07-28.7-9.39-12.31,.78-22.24,6.25-29.76,15.93-6.94,8.93-9.94,19.19-9.17,30.46,.93,13.68,6.69,24.97,17.47,33.51,7.96,6.31,17.11,9.29,27.3,8.98,.71-.02,1.43-.08,2.13-.18,.55-.08,.66,.07,.48,.58-.41,1.17-.79,2.36-1.18,3.54-.51,1.56,.06,2.23,1.7,2.08,.71-.07,1.39-.35,2.12-.2,.28,.15,.54,.11,.75-.13Z" style="fill: #49ad33;"/>
    <path d="M1142.21,120.31c1.28,6.23,7.27,11.58,13.33,11.91,5.71,.31,9.33-3.53,8.8-9.25-.6-6.46-6.86-12.5-13.27-13.04-6.19-.53-10.14,4.12-8.85,10.39Z" style="fill: #8ec478;"/>
  </g>
  <g>
    <path d="M1205.98,192.97c.81-.25,1.66-.21,2.49-.35,1.2-.2,1.6-1.1,.93-2.1-.76-1.14-1.52-2.27-2.33-3.37-.43-.59-.33-.78,.37-.93,6.72-1.5,12.65-4.59,17.75-9.19,8.79-7.94,13.67-17.92,14.46-29.67,1.07-15.93-4.46-29.31-16.81-39.56-8.27-6.86-17.92-10.07-28.7-9.39-12.31,.78-22.24,6.25-29.76,15.93-6.94,8.93-9.94,19.19-9.17,30.46,.93,13.68,6.69,24.97,17.47,33.51,7.96,6.31,17.11,9.29,27.3,8.98,.71-.02,1.43-.08,2.13-.18,.55-.08,.66,.07,.48,.58-.41,1.17-.79,2.36-1.18,3.54-.51,1.56,.06,2.23,1.7,2.08,.71-.07,1.39-.35,2.12-.2,.28,.15,.54,.11,.75-.13Z" style="fill: #bd291b;"/>
    <path d="M1202.96,120.31c1.28,6.23,7.27,11.58,13.33,11.91,5.71,.31,9.33-3.53,8.8-9.25-.6-6.46-6.86-12.5-13.27-13.04-6.19-.53-10.14,4.12-8.85,10.39Z" style="fill: #ec776c;"/>
  </g>
  <g>
    <path d="M1242.1,176.02c.84-.14,1.68,0,2.51-.02,1.21-.04,1.73-.88,1.2-1.96-.6-1.23-1.21-2.45-1.87-3.65-.35-.64-.23-.81,.49-.88,6.86-.61,13.14-2.89,18.8-6.79,9.75-6.71,15.9-15.97,18.22-27.52,3.15-15.65-.57-29.64-11.48-41.42-7.3-7.88-16.45-12.33-27.23-13.07-12.31-.84-22.87,3.28-31.6,11.89-8.06,7.94-12.37,17.72-13.09,28.99-.87,13.69,3.36,25.63,12.92,35.51,7.06,7.3,15.75,11.46,25.89,12.48,.71,.07,1.43,.11,2.14,.1,.56,0,.65,.15,.4,.64-.56,1.11-1.09,2.23-1.63,3.35-.71,1.48-.23,2.22,1.42,2.28,.71,.03,1.43-.16,2.13,.08,.26,.19,.52,.18,.76-.03Z" style="fill: #5d7dbd;"/>
    <path d="M1248.62,103.59c.45,6.34,5.69,12.43,11.66,13.55,5.62,1.06,9.71-2.28,9.93-8.02,.25-6.49-5.17-13.29-11.45-14.67-6.06-1.34-10.59,2.75-10.14,9.14Z" style="fill: #becdeb;"/>
  </g>
  <g>
    <path d="M1483.51,175.55c-.85-.08-1.67,.13-2.51,.16-1.21,.05-1.79-.75-1.34-1.87,.51-1.27,1.03-2.53,1.6-3.78,.3-.66,.17-.83-.55-.84-6.89-.11-13.32-1.92-19.24-5.39-10.22-5.98-17.02-14.77-20.18-26.11-4.28-15.38-1.59-29.61,8.42-42.14,6.7-8.39,15.5-13.5,26.2-15.02,12.21-1.74,23.04,1.6,32.38,9.55,8.61,7.33,13.63,16.77,15.17,27.96,1.87,13.59-1.48,25.81-10.29,36.36-6.51,7.79-14.87,12.57-24.91,14.34-.7,.12-1.42,.21-2.13,.25-.56,.03-.63,.2-.35,.67,.64,1.06,1.25,2.15,1.87,3.23,.81,1.42,.4,2.2-1.25,2.38-.71,.08-1.43-.05-2.12,.24-.25,.21-.5,.22-.76,.03Z" style="fill: #bd291b;"/>
    <path d="M1471.71,103.8c.02,6.36-4.76,12.81-10.63,14.37-5.53,1.46-9.85-1.56-10.49-7.27-.73-6.45,4.18-13.63,10.35-15.47,5.95-1.78,10.76,1.97,10.78,8.38Z" style="fill: #ec776c;"/>
  </g>
  <g>
    <path d="M1378.64,114.27c-.85-.08-1.67,.13-2.51,.16-1.21,.05-1.79-.75-1.34-1.87,.51-1.27,1.03-2.53,1.6-3.78,.3-.66,.17-.83-.55-.84-6.89-.11-13.32-1.92-19.24-5.39-10.22-5.98-17.02-14.77-20.18-26.11-4.28-15.38-1.59-29.61,8.42-42.14,6.7-8.39,15.5-13.5,26.2-15.02,12.21-1.74,23.04,1.6,32.38,9.55,8.61,7.33,13.63,16.77,15.17,27.96,1.87,13.59-1.48,25.81-10.29,36.36-6.51,7.79-14.87,12.57-24.91,14.34-.7,.12-1.42,.21-2.13,.25-.56,.03-.63,.2-.35,.67,.64,1.06,1.25,2.15,1.87,3.23,.81,1.42,.4,2.2-1.25,2.38-.71,.08-1.43-.05-2.12,.24-.25,.21-.5,.22-.76,.03Z" style="fill: #bd291b;"/>
    <path d="M1366.84,42.51c.02,6.36-4.76,12.81-10.63,14.37-5.53,1.46-9.85-1.56-10.49-7.27-.73-6.45,4.18-13.63,10.35-15.47,5.95-1.78,10.76,1.97,10.78,8.38Z" style="fill: #ec776c;"/>
  </g>
  <g>
    <path d="M1406.88,188.95c-.79-.31-1.64-.34-2.46-.54-1.18-.29-1.51-1.22-.77-2.17,.84-1.08,1.69-2.15,2.58-3.19,.47-.55,.39-.75-.3-.96-6.59-2.01-12.27-5.53-17-10.51-8.17-8.58-12.28-18.9-12.18-30.67,.14-15.96,6.66-28.89,19.75-38.17,8.76-6.21,18.63-8.69,29.33-7.19,12.22,1.71,21.7,7.91,28.48,18.13,6.25,9.43,8.46,19.89,6.85,31.06-1.96,13.57-8.56,24.39-19.95,32.09-8.41,5.69-17.77,7.97-27.9,6.89-.71-.08-1.42-.19-2.11-.35-.55-.12-.66,.02-.52,.54,.32,1.2,.61,2.41,.91,3.62,.39,1.59-.23,2.22-1.86,1.94-.7-.12-1.36-.45-2.1-.36-.29,.13-.54,.07-.74-.18Z" style="fill: #bdb83a;"/>
    <path d="M1415.39,116.73c-1.74,6.11-8.12,11-14.19,10.87-5.72-.12-9.03-4.23-8.07-9.89,1.08-6.4,7.79-11.94,14.22-12,6.21-.06,9.8,4.87,8.04,11.03Z" style="fill: #ebe894;"/>
  </g>
  <g>
    <path d="M1480.42,93.82c-.79-.31-1.64-.34-2.46-.54-1.18-.29-1.51-1.22-.77-2.17,.84-1.08,1.69-2.15,2.58-3.19,.47-.55,.39-.75-.3-.96-6.59-2.01-12.27-5.53-17-10.51-8.17-8.58-12.28-18.9-12.18-30.67,.14-15.96,6.66-28.89,19.75-38.17,8.76-6.21,18.63-8.69,29.33-7.19,12.22,1.71,21.7,7.91,28.48,18.13,6.25,9.43,8.46,19.89,6.85,31.06-1.96,13.57-8.56,24.39-19.95,32.09-8.41,5.69-17.77,7.97-27.9,6.89-.71-.08-1.42-.19-2.11-.35-.55-.12-.66,.02-.52,.54,.32,1.2,.61,2.41,.91,3.62,.39,1.59-.23,2.22-1.86,1.94-.7-.12-1.36-.45-2.1-.36-.29,.13-.54,.07-.74-.18Z" style="fill: #bdb83a;"/>
    <path d="M1488.93,21.6c-1.74,6.11-8.12,11-14.19,10.87-5.72-.12-9.03-4.23-8.07-9.89,1.08-6.4,7.79-11.94,14.22-12,6.21-.06,9.8,4.87,8.04,11.03Z" style="fill: #ebe894;"/>
  </g>
  <g>
    <path d="M1355.16,178.49c-.83-.18-1.67-.08-2.51-.15-1.21-.1-1.69-.97-1.1-2.02,.66-1.2,1.33-2.39,2.05-3.55,.38-.62,.27-.8-.45-.9-6.82-.96-12.98-3.55-18.43-7.72-9.4-7.2-15.07-16.75-16.81-28.4-2.36-15.79,2.07-29.58,13.55-40.79,7.68-7.5,17.05-11.49,27.85-11.68,12.33-.22,22.67,4.43,30.96,13.46,7.64,8.34,11.46,18.32,11.61,29.61,.18,13.71-4.65,25.43-14.7,34.81-7.42,6.93-16.31,10.65-26.48,11.16-.71,.04-1.43,.03-2.14-.01-.56-.04-.65,.12-.43,.62,.5,1.14,.98,2.29,1.46,3.43,.63,1.51,.12,2.23-1.53,2.21-.71,0-1.42-.23-2.13-.02-.27,.17-.52,.15-.76-.07Z" style="fill: #49ad33;"/>
    <path d="M1352.29,105.82c-.77,6.31-6.31,12.13-12.32,12.95-5.66,.77-9.58-2.77-9.52-8.51,.07-6.49,5.83-13.01,12.17-14.08,6.12-1.03,10.44,3.28,9.67,9.64Z" style="fill: #8ec478;"/>
  </g>
  <g>
    <path d="M1434.89,103.38c-.83-.18-1.67-.08-2.51-.15-1.21-.1-1.69-.97-1.1-2.02,.66-1.2,1.33-2.39,2.05-3.55,.38-.62,.27-.8-.45-.9-6.82-.96-12.98-3.55-18.43-7.72-9.4-7.2-15.07-16.75-16.81-28.4-2.36-15.79,2.07-29.58,13.55-40.79,7.68-7.5,17.05-11.49,27.85-11.68,12.33-.22,22.67,4.43,30.96,13.46,7.64,8.34,11.46,18.32,11.61,29.61,.18,13.71-4.65,25.43-14.7,34.81-7.42,6.93-16.31,10.65-26.48,11.16-.71,.04-1.43,.03-2.14-.01-.56-.04-.65,.12-.43,.62,.5,1.14,.98,2.29,1.46,3.43,.63,1.51,.12,2.23-1.53,2.21-.71,0-1.42-.23-2.13-.02-.27,.17-.52,.15-.76-.07Z" style="fill: #49ad33;"/>
    <path d="M1432.02,30.71c-.77,6.31-6.31,12.13-12.32,12.95-5.66,.77-9.58-2.77-9.52-8.51,.07-6.49,5.83-13.01,12.17-14.08,6.12-1.03,10.44,3.28,9.67,9.64Z" style="fill: #8ec478;"/>
  </g>
  <g>
    <path d="M1288.35,188.87c-.8-.3-1.65-.3-2.47-.49-1.18-.27-1.54-1.19-.82-2.15,.82-1.09,1.65-2.18,2.51-3.24,.46-.56,.38-.76-.32-.95-6.63-1.87-12.38-5.28-17.21-10.16-8.34-8.41-12.66-18.65-12.8-30.42-.19-15.96,6.07-29.02,18.97-38.57,8.63-6.39,18.45-9.07,29.18-7.79,12.25,1.46,21.86,7.47,28.84,17.55,6.44,9.3,8.86,19.71,7.48,30.92-1.68,13.61-8.06,24.56-19.29,32.49-8.3,5.86-17.6,8.33-27.75,7.46-.71-.06-1.42-.16-2.12-.3-.55-.11-.66,.03-.51,.55,.35,1.19,.66,2.4,.98,3.6,.42,1.58-.18,2.23-1.82,1.98-.7-.11-1.37-.42-2.11-.31-.29,.14-.54,.08-.75-.17Z" style="fill: #bd291b;"/>
    <path d="M1295.39,116.49c-1.62,6.15-7.9,11.16-13.97,11.15-5.72,0-9.12-4.04-8.27-9.72,.95-6.42,7.54-12.1,13.97-12.29,6.2-.19,9.9,4.67,8.27,10.86Z" style="fill: #ec776c;"/>
  </g>
</svg>