<?xml version="1.0" encoding="UTF-8"?>
<svg id="Capa_1" data-name="Capa 1" xmlns="http://www.w3.org/2000/svg" viewBox="0 0 1101.71 1880.3">
  <g>
    <path d="M37.67,587.21c-.73-.08-1.43,.1-2.14,.13-1.04,.04-1.53-.65-1.14-1.6,.44-1.08,.88-2.17,1.38-3.22,.26-.56,.14-.71-.47-.71-5.9-.12-11.39-1.69-16.46-4.68-8.73-5.16-14.52-12.69-17.2-22.41-3.62-13.17-1.27-25.34,7.34-36.04,5.75-7.16,13.31-11.51,22.47-12.78,10.46-1.45,19.72,1.44,27.68,8.27,7.35,6.3,11.61,14.39,12.9,23.98,1.56,11.64-1.34,22.08-8.92,31.1-5.6,6.65-12.77,10.72-21.37,12.2-.6,.1-1.21,.18-1.82,.21-.48,.03-.55,.17-.3,.57,.55,.91,1.07,1.84,1.6,2.77,.69,1.22,.34,1.88-1.08,2.03-.6,.06-1.23-.05-1.81,.19-.21,.17-.43,.18-.65,.03v-.03Z" style="fill: #69b866;"/>
    <path d="M39.94,614.78c-.58-2.57-1.56-4.94-3.96-6.38-.32-.19-.22-.42-.14-.69,1.82-6.73,2.39-13.6,2.48-20.54-.21,.01-.43,.03-.65,.03h.01c-.05,4.39-.35,8.77-.97,13.12-.34,2.34-.81,4.66-1.42,6.95-.13,.48-.23,.71-.82,.51-.83-.3-1.71-.34-2.6-.22-2.68,.36-4.92,1.57-6.86,3.43-.84,.81-1.55,1.7-1.95,2.79-.65,1.74-.01,3.16,1.73,3.75,2.14,.73,4.18,.51,6.04-.88,1.13-.84,1.95-1.95,2.66-3.14,.84-1.44,1.44-3,2-4.6,.49,.23,.88,.55,1.25,.9,1.61,1.6,2.34,3.62,2.66,5.77,1.19,7.94,.08,15.46-4.12,22.42-4.17,6.92-9.75,12.51-16.21,17.29-.42,.3-.73,.55-.17,.97,4.35-3.13,8.33-6.7,11.81-10.79,5.01-5.9,8.86-12.35,9.59-20.28,.32-3.48,.42-6.96-.36-10.4Zm-5.41-5.13c-.29,.62-.51,1.26-.77,1.9-.05,.13-.11,.26-.16,.39-.19,1.02-.85,2.02-1.48,2.76-1.05,1.21-2.41,2.24-4.01,2.59-.77,.17-1.58,.18-2.35-.02-.73-.18-1.58-.52-2.02-1.17-.55-.81-.2-1.72,.27-2.52,.15-.29,.32-.57,.52-.83,.03-.05,.06-.1,.09-.15,.51-.82,1.22-2.06,2.26-2.22,.02-.02,.05-.04,.07-.06,.24-.21,.5-.39,.76-.57,.04-.04,.08-.08,.14-.11,.09-.05,.19-.09,.28-.14,.59-.35,1.2-.62,1.84-.82,.32-.12,.65-.22,.98-.31,.51-.13,1.03-.16,1.55-.17,.27,0,.55-.02,.82,0,.3,.02,.59,.07,.89,.08,.45,0,.58,.49,.4,.78-.02,.05-.03,.1-.05,.16,.04,.13,.04,.28-.03,.42Z" style="fill: #585758;"/>
    <path d="M27.79,525.75c0,5.44-4.12,10.95-9.14,12.26-4.73,1.23-8.43-1.36-8.96-6.26-.6-5.52,3.62-11.65,8.9-13.21,5.09-1.51,9.21,1.71,9.2,7.2h.01Z" style="fill: #c5e0c1;"/>
  </g>
  <g>
    <path d="M219.2,81.68c-.73-.08-1.43,.1-2.14,.13-1.04,.04-1.53-.65-1.14-1.6,.44-1.08,.88-2.17,1.38-3.22,.26-.56,.14-.71-.47-.71-5.9-.12-11.39-1.69-16.46-4.68-8.73-5.16-14.52-12.69-17.2-22.41-3.62-13.17-1.27-25.34,7.34-36.04,5.75-7.16,13.31-11.51,22.47-12.78,10.46-1.45,19.72,1.44,27.68,8.27,7.35,6.3,11.61,14.39,12.9,23.98,1.56,11.64-1.34,22.08-8.92,31.1-5.6,6.65-12.77,10.72-21.37,12.2-.6,.1-1.21,.18-1.82,.21-.48,.03-.55,.17-.3,.57,.55,.91,1.07,1.84,1.6,2.77,.69,1.22,.34,1.88-1.08,2.03-.6,.06-1.23-.05-1.81,.19-.21,.17-.43,.18-.65,.03v-.03Z" style="fill: #bf2d34;"/>
    <path d="M221.48,109.25c-.58-2.57-1.56-4.94-3.96-6.38-.32-.19-.22-.42-.14-.69,1.82-6.73,2.39-13.6,2.48-20.54-.21,.01-.43,.03-.65,.03h.01c-.05,4.39-.35,8.77-.97,13.12-.34,2.34-.81,4.66-1.42,6.95-.13,.48-.23,.71-.82,.51-.83-.3-1.71-.34-2.6-.22-2.68,.36-4.92,1.57-6.86,3.43-.84,.81-1.55,1.7-1.95,2.79-.65,1.74-.01,3.16,1.73,3.75,2.14,.73,4.18,.51,6.04-.88,1.13-.84,1.95-1.95,2.66-3.14,.84-1.44,1.44-3,2-4.6,.49,.23,.88,.55,1.25,.9,1.61,1.6,2.34,3.62,2.66,5.77,1.19,7.94,.08,15.46-4.12,22.42-4.17,6.92-9.75,12.51-16.21,17.29-.42,.3-.73,.55-.17,.97,4.35-3.13,8.33-6.7,11.81-10.79,5.01-5.9,8.86-12.35,9.59-20.28,.32-3.48,.42-6.96-.36-10.4Zm-5.41-5.13c-.29,.62-.51,1.26-.77,1.9-.05,.13-.11,.26-.16,.39-.19,1.02-.85,2.02-1.48,2.76-1.05,1.21-2.41,2.24-4.01,2.59-.77,.17-1.58,.18-2.35-.02-.73-.18-1.58-.52-2.02-1.17-.55-.81-.2-1.72,.27-2.52,.15-.29,.32-.57,.52-.83,.03-.05,.06-.1,.09-.15,.51-.82,1.22-2.06,2.26-2.22,.02-.02,.05-.04,.07-.06,.24-.21,.5-.39,.76-.57,.04-.04,.08-.08,.14-.11,.09-.05,.19-.09,.28-.14,.59-.35,1.2-.62,1.84-.82,.32-.12,.65-.22,.98-.31,.51-.13,1.03-.16,1.55-.17,.27,0,.55-.02,.82,0,.3,.02,.59,.07,.89,.08,.45,0,.58,.49,.4,.78-.02,.05-.03,.1-.05,.16,.04,.13,.04,.28-.03,.42Z" style="fill: #565740;"/>
    <path d="M209.32,20.21c0,5.44-4.12,10.95-9.14,12.26-4.73,1.23-8.43-1.36-8.96-6.26-.6-5.52,3.62-11.65,8.9-13.21,5.09-1.51,9.21,1.71,9.2,7.2h.01Z" style="fill: #eb8287;"/>
  </g>
  <g>
    <path d="M614.44,375.8c-.73-.08-1.43,.1-2.14,.13-1.04,.04-1.53-.65-1.14-1.6,.44-1.08,.88-2.17,1.38-3.22,.26-.56,.14-.71-.47-.71-5.9-.12-11.39-1.69-16.46-4.68-8.73-5.16-14.52-12.69-17.2-22.41-3.62-13.17-1.27-25.34,7.34-36.04,5.75-7.16,13.31-11.51,22.47-12.78,10.46-1.45,19.72,1.44,27.68,8.27,7.35,6.3,11.61,14.39,12.9,23.98,1.56,11.64-1.34,22.08-8.92,31.1-5.6,6.65-12.77,10.72-21.37,12.2-.6,.1-1.21,.18-1.82,.21-.48,.03-.55,.17-.3,.57,.55,.91,1.07,1.84,1.6,2.77,.69,1.22,.34,1.88-1.08,2.03-.6,.06-1.23-.05-1.81,.19-.21,.17-.43,.18-.65,.03v-.03Z" style="fill: #5d7ebe;"/>
    <path d="M616.71,403.38c-.58-2.57-1.56-4.94-3.96-6.38-.32-.19-.22-.42-.14-.69,1.82-6.73,2.39-13.6,2.48-20.54-.21,.01-.43,.03-.65,.03h.01c-.05,4.39-.35,8.77-.97,13.12-.34,2.34-.81,4.66-1.42,6.95-.13,.48-.23,.71-.82,.51-.83-.3-1.71-.34-2.6-.22-2.68,.36-4.92,1.57-6.86,3.43-.84,.81-1.55,1.7-1.95,2.79-.65,1.74-.01,3.16,1.73,3.75,2.14,.73,4.18,.51,6.04-.88,1.13-.84,1.95-1.95,2.66-3.14,.84-1.44,1.44-3,2-4.6,.49,.23,.88,.55,1.25,.9,1.61,1.6,2.34,3.62,2.66,5.77,1.19,7.94,.08,15.46-4.12,22.42-4.17,6.92-9.75,12.51-16.21,17.29-.42,.3-.73,.55-.17,.97,4.35-3.13,8.33-6.7,11.81-10.79,5.01-5.9,8.86-12.35,9.59-20.28,.32-3.48,.42-6.96-.36-10.4Zm-5.41-5.13c-.29,.62-.51,1.26-.77,1.9-.05,.13-.11,.26-.16,.39-.19,1.02-.85,2.02-1.48,2.76-1.05,1.21-2.41,2.24-4.01,2.59-.77,.17-1.58,.18-2.35-.02-.73-.18-1.58-.52-2.02-1.17-.55-.81-.2-1.72,.27-2.52,.15-.29,.32-.57,.52-.83,.03-.05,.06-.1,.09-.15,.51-.82,1.22-2.06,2.26-2.22,.02-.02,.05-.04,.07-.06,.24-.21,.5-.39,.76-.57,.04-.04,.08-.08,.14-.11,.09-.05,.19-.09,.28-.14,.59-.35,1.2-.62,1.84-.82,.32-.12,.65-.22,.98-.31,.51-.13,1.03-.16,1.55-.17,.27,0,.55-.02,.82,0,.3,.02,.59,.07,.89,.08,.45,0,.58,.49,.4,.78-.02,.05-.03,.1-.05,.16,.04,.13,.04,.28-.03,.42Z" style="fill: #575656;"/>
    <path d="M604.55,314.34c0,5.44-4.12,10.95-9.14,12.26-4.73,1.23-8.43-1.36-8.96-6.26-.6-5.52,3.62-11.65,8.9-13.21,5.09-1.51,9.21,1.71,9.2,7.2h.01Z" style="fill: #becdeb;"/>
  </g>
  <g>
    <path d="M961.42,118.21c-.73-.08-1.43,.1-2.14,.13-1.04,.04-1.53-.65-1.14-1.6,.44-1.08,.88-2.17,1.38-3.22,.26-.56,.14-.71-.47-.71-5.9-.12-11.39-1.69-16.46-4.68-8.73-5.16-14.52-12.69-17.2-22.41-3.62-13.17-1.27-25.34,7.34-36.04,5.75-7.16,13.31-11.51,22.47-12.78,10.46-1.45,19.72,1.44,27.68,8.27,7.35,6.3,11.61,14.39,12.9,23.98,1.56,11.64-1.34,22.08-8.92,31.1-5.6,6.65-12.77,10.72-21.37,12.2-.6,.1-1.21,.18-1.82,.21-.48,.03-.55,.17-.3,.57,.55,.91,1.07,1.84,1.6,2.77,.69,1.22,.34,1.88-1.08,2.03-.6,.06-1.23-.05-1.81,.19-.21,.17-.43,.18-.65,.03v-.03Z" style="fill: #bebb3e;"/>
    <path d="M963.69,145.78c-.58-2.57-1.56-4.94-3.96-6.38-.32-.19-.22-.42-.14-.69,1.82-6.73,2.39-13.6,2.48-20.54-.21,.01-.43,.03-.65,.03h.01c-.05,4.39-.35,8.77-.97,13.12-.34,2.34-.81,4.66-1.42,6.95-.13,.48-.23,.71-.82,.51-.83-.3-1.71-.34-2.6-.22-2.68,.36-4.92,1.57-6.86,3.43-.84,.81-1.55,1.7-1.95,2.79-.65,1.74-.01,3.16,1.73,3.75,2.14,.73,4.18,.51,6.04-.88,1.13-.84,1.95-1.95,2.66-3.14,.84-1.44,1.44-3,2-4.6,.49,.23,.88,.55,1.25,.9,1.61,1.6,2.34,3.62,2.66,5.77,1.19,7.94,.08,15.46-4.12,22.42-4.17,6.92-9.75,12.51-16.21,17.29-.42,.3-.73,.55-.17,.97,4.35-3.13,8.33-6.7,11.81-10.79,5.01-5.9,8.86-12.35,9.59-20.28,.32-3.48,.42-6.96-.36-10.4Zm-5.41-5.13c-.29,.62-.51,1.26-.77,1.9-.05,.13-.11,.26-.16,.39-.19,1.02-.85,2.02-1.48,2.76-1.05,1.21-2.41,2.24-4.01,2.59-.77,.17-1.58,.18-2.35-.02-.73-.18-1.58-.52-2.02-1.17-.55-.81-.2-1.72,.27-2.52,.15-.29,.32-.57,.52-.83,.03-.05,.06-.1,.09-.15,.51-.82,1.22-2.06,2.26-2.22,.02-.02,.05-.04,.07-.06,.24-.21,.5-.39,.76-.57,.04-.04,.08-.08,.14-.11,.09-.05,.19-.09,.28-.14,.59-.35,1.2-.62,1.84-.82,.32-.12,.65-.22,.98-.31,.51-.13,1.03-.16,1.55-.17,.27,0,.55-.02,.82,0,.3,.02,.59,.07,.89,.08,.45,0,.58,.49,.4,.78-.02,.05-.03,.1-.05,.16,.04,.13,.04,.28-.03,.42Z" style="fill: #574658;"/>
    <path d="M951.53,56.74c0,5.44-4.12,10.95-9.14,12.26-4.73,1.23-8.43-1.36-8.96-6.26-.6-5.52,3.62-11.65,8.9-13.21,5.09-1.51,9.21,1.71,9.2,7.2h.01Z" style="fill: #eceb97;"/>
  </g>
  <g>
    <path d="M1033.85,689.89c-.73-.08-1.43,.1-2.14,.13-1.04,.04-1.53-.65-1.14-1.6,.44-1.08,.88-2.17,1.38-3.22,.26-.56,.14-.71-.47-.71-5.9-.12-11.39-1.69-16.46-4.68-8.73-5.16-14.52-12.69-17.2-22.41-3.62-13.17-1.27-25.34,7.34-36.04,5.75-7.16,13.31-11.51,22.47-12.78,10.46-1.45,19.72,1.44,27.68,8.27,7.35,6.3,11.61,14.39,12.9,23.98,1.56,11.64-1.34,22.08-8.92,31.1-5.6,6.65-12.77,10.72-21.37,12.2-.6,.1-1.21,.18-1.82,.21-.48,.03-.55,.17-.3,.57,.55,.91,1.07,1.84,1.6,2.77,.69,1.22,.34,1.88-1.08,2.03-.6,.06-1.23-.05-1.81,.19-.21,.17-.43,.18-.65,.03v-.03Z" style="fill: #69b866;"/>
    <path d="M1036.12,717.47c-.58-2.57-1.56-4.94-3.96-6.38-.32-.19-.22-.42-.14-.69,1.82-6.73,2.39-13.6,2.48-20.54-.21,.01-.43,.03-.65,.03h.01c-.05,4.39-.35,8.77-.97,13.12-.34,2.34-.81,4.66-1.42,6.95-.13,.48-.23,.71-.82,.51-.83-.3-1.71-.34-2.6-.22-2.68,.36-4.92,1.57-6.86,3.43-.84,.81-1.55,1.7-1.95,2.79-.65,1.74-.01,3.16,1.73,3.75,2.14,.73,4.18,.51,6.04-.88,1.13-.84,1.95-1.95,2.66-3.14,.84-1.44,1.44-3,2-4.6,.49,.23,.88,.55,1.25,.9,1.61,1.6,2.34,3.62,2.66,5.77,1.19,7.94,.08,15.46-4.12,22.42-4.17,6.92-9.75,12.51-16.21,17.29-.42,.3-.73,.55-.17,.97,4.35-3.13,8.33-6.7,11.81-10.79,5.01-5.9,8.86-12.35,9.59-20.28,.32-3.48,.42-6.96-.36-10.4Zm-5.41-5.13c-.29,.62-.51,1.26-.77,1.9-.05,.13-.11,.26-.16,.39-.19,1.02-.85,2.02-1.48,2.76-1.05,1.21-2.41,2.24-4.01,2.59-.77,.17-1.58,.18-2.35-.02-.73-.18-1.58-.52-2.02-1.17-.55-.81-.2-1.72,.27-2.52,.15-.29,.32-.57,.52-.83,.03-.05,.06-.1,.09-.15,.51-.82,1.22-2.06,2.26-2.22,.02-.02,.05-.04,.07-.06,.24-.21,.5-.39,.76-.57,.04-.04,.08-.08,.14-.11,.09-.05,.19-.09,.28-.14,.59-.35,1.2-.62,1.84-.82,.32-.12,.65-.22,.98-.31,.51-.13,1.03-.16,1.55-.17,.27,0,.55-.02,.82,0,.3,.02,.59,.07,.89,.08,.45,0,.58,.49,.4,.78-.02,.05-.03,.1-.05,.16,.04,.13,.04,.28-.03,.42Z" style="fill: #585758;"/>
    <path d="M1023.97,628.43c0,5.44-4.12,10.95-9.14,12.26-4.73,1.23-8.43-1.36-8.96-6.26-.6-5.52,3.62-11.65,8.9-13.21,5.09-1.51,9.21,1.71,9.2,7.2h.01Z" style="fill: #c5e0c1;"/>
  </g>
  <g>
    <path d="M165.38,1137.73c-.73-.08-1.43,.1-2.14,.13-1.04,.04-1.53-.65-1.14-1.6,.44-1.08,.88-2.17,1.38-3.22,.26-.56,.14-.71-.47-.71-5.9-.12-11.39-1.69-16.46-4.68-8.73-5.16-14.52-12.69-17.2-22.41-3.62-13.17-1.27-25.34,7.34-36.04,5.75-7.16,13.31-11.51,22.47-12.78,10.46-1.45,19.72,1.44,27.68,8.27,7.35,6.3,11.61,14.39,12.9,23.98,1.56,11.64-1.34,22.08-8.92,31.1-5.6,6.65-12.77,10.72-21.37,12.2-.6,.1-1.21,.18-1.82,.21-.48,.03-.55,.17-.3,.57,.55,.91,1.07,1.84,1.6,2.77,.69,1.22,.34,1.88-1.08,2.03-.6,.06-1.23-.05-1.81,.19-.21,.17-.43,.18-.65,.03v-.03Z" style="fill: #bebb3e;"/>
    <path d="M167.66,1165.3c-.58-2.57-1.56-4.94-3.96-6.38-.32-.19-.22-.42-.14-.69,1.82-6.73,2.39-13.6,2.48-20.54-.21,.01-.43,.03-.65,.03h.01c-.05,4.39-.35,8.77-.97,13.12-.34,2.34-.81,4.66-1.42,6.95-.13,.48-.23,.71-.82,.51-.83-.3-1.71-.34-2.6-.22-2.68,.36-4.92,1.57-6.86,3.43-.84,.81-1.55,1.7-1.95,2.79-.65,1.74-.01,3.16,1.73,3.75,2.14,.73,4.18,.51,6.04-.88,1.13-.84,1.95-1.95,2.66-3.14,.84-1.44,1.44-3,2-4.6,.49,.23,.88,.55,1.25,.9,1.61,1.6,2.34,3.62,2.66,5.77,1.19,7.94,.08,15.46-4.12,22.42-4.17,6.92-9.75,12.51-16.21,17.29-.42,.3-.73,.55-.17,.97,4.35-3.13,8.33-6.7,11.81-10.79,5.01-5.9,8.86-12.35,9.59-20.28,.32-3.48,.42-6.96-.36-10.4Zm-5.41-5.13c-.29,.62-.51,1.26-.77,1.9-.05,.13-.11,.26-.16,.39-.19,1.02-.85,2.02-1.48,2.76-1.05,1.21-2.41,2.24-4.01,2.59-.77,.17-1.58,.18-2.35-.02-.73-.18-1.58-.52-2.02-1.17-.55-.81-.2-1.72,.27-2.52,.15-.29,.32-.57,.52-.83,.03-.05,.06-.1,.09-.15,.51-.82,1.22-2.06,2.26-2.22,.02-.02,.05-.04,.07-.06,.24-.21,.5-.39,.76-.57,.04-.04,.08-.08,.14-.11,.09-.05,.19-.09,.28-.14,.59-.35,1.2-.62,1.84-.82,.32-.12,.65-.22,.98-.31,.51-.13,1.03-.16,1.55-.17,.27,0,.55-.02,.82,0,.3,.02,.59,.07,.89,.08,.45,0,.58,.49,.4,.78-.02,.05-.03,.1-.05,.16,.04,.13,.04,.28-.03,.42Z" style="fill: #574658;"/>
    <path d="M155.5,1076.27c0,5.44-4.12,10.95-9.14,12.26-4.73,1.23-8.43-1.36-8.96-6.26-.6-5.52,3.62-11.65,8.9-13.21,5.09-1.51,9.21,1.71,9.2,7.2h.01Z" style="fill: #eceb97;"/>
  </g>
  <g>
    <path d="M652.75,1009.98c-.73-.08-1.43,.1-2.14,.13-1.04,.04-1.53-.65-1.14-1.6,.44-1.08,.88-2.17,1.38-3.22,.26-.56,.14-.71-.47-.71-5.9-.12-11.39-1.69-16.46-4.68-8.73-5.16-14.52-12.69-17.2-22.41-3.62-13.17-1.27-25.34,7.34-36.04,5.75-7.16,13.31-11.51,22.47-12.78,10.46-1.45,19.72,1.44,27.68,8.27,7.35,6.3,11.61,14.39,12.9,23.98,1.56,11.64-1.34,22.08-8.92,31.1-5.6,6.65-12.77,10.72-21.37,12.2-.6,.1-1.21,.18-1.82,.21-.48,.03-.55,.17-.3,.57,.55,.91,1.07,1.84,1.6,2.77,.69,1.22,.34,1.88-1.08,2.03-.6,.06-1.23-.05-1.81,.19-.21,.17-.43,.18-.65,.03v-.03Z" style="fill: #bf2d34;"/>
    <path d="M655.02,1037.55c-.58-2.57-1.56-4.94-3.96-6.38-.32-.19-.22-.42-.14-.69,1.82-6.73,2.39-13.6,2.48-20.54-.21,.01-.43,.03-.65,.03h.01c-.05,4.39-.35,8.77-.97,13.12-.34,2.34-.81,4.66-1.42,6.95-.13,.48-.23,.71-.82,.51-.83-.3-1.71-.34-2.6-.22-2.68,.36-4.92,1.57-6.86,3.43-.84,.81-1.55,1.7-1.95,2.79-.65,1.74-.01,3.16,1.73,3.75,2.14,.73,4.18,.51,6.04-.88,1.13-.84,1.95-1.95,2.66-3.14,.84-1.44,1.44-3,2-4.6,.49,.23,.88,.55,1.25,.9,1.61,1.6,2.34,3.62,2.66,5.77,1.19,7.94,.08,15.46-4.12,22.42-4.17,6.92-9.75,12.51-16.21,17.29-.42,.3-.73,.55-.17,.97,4.35-3.13,8.33-6.7,11.81-10.79,5.01-5.9,8.86-12.35,9.59-20.28,.32-3.48,.42-6.96-.36-10.4Zm-5.41-5.13c-.29,.62-.51,1.26-.77,1.9-.05,.13-.11,.26-.16,.39-.19,1.02-.85,2.02-1.48,2.76-1.05,1.21-2.41,2.24-4.01,2.59-.77,.17-1.58,.18-2.35-.02-.73-.18-1.58-.52-2.02-1.17-.55-.81-.2-1.72,.27-2.52,.15-.29,.32-.57,.52-.83,.03-.05,.06-.1,.09-.15,.51-.82,1.22-2.06,2.26-2.22,.02-.02,.05-.04,.07-.06,.24-.21,.5-.39,.76-.57,.04-.04,.08-.08,.14-.11,.09-.05,.19-.09,.28-.14,.59-.35,1.2-.62,1.84-.82,.32-.12,.65-.22,.98-.31,.51-.13,1.03-.16,1.55-.17,.27,0,.55-.02,.82,0,.3,.02,.59,.07,.89,.08,.45,0,.58,.49,.4,.78-.02,.05-.03,.1-.05,.16,.04,.13,.04,.28-.03,.42Z" style="fill: #565740;"/>
    <path d="M642.87,948.51c0,5.44-4.12,10.95-9.14,12.26-4.73,1.23-8.43-1.36-8.96-6.26-.6-5.52,3.62-11.65,8.9-13.21,5.09-1.51,9.21,1.71,9.2,7.2h.01Z" style="fill: #eb8287;"/>
  </g>
  <g>
    <path d="M187.32,1811.25c-.73-.08-1.43,.1-2.14,.13-1.04,.04-1.53-.65-1.14-1.6,.44-1.08,.88-2.17,1.38-3.22,.26-.56,.14-.71-.47-.71-5.9-.12-11.39-1.69-16.46-4.68-8.73-5.16-14.52-12.69-17.2-22.41-3.62-13.17-1.27-25.34,7.34-36.04,5.75-7.16,13.31-11.51,22.47-12.78,10.46-1.45,19.72,1.44,27.68,8.27,7.35,6.3,11.61,14.39,12.9,23.98,1.56,11.64-1.34,22.08-8.92,31.1-5.6,6.65-12.77,10.72-21.37,12.2-.6,.1-1.21,.18-1.82,.21-.48,.03-.55,.17-.3,.57,.55,.91,1.07,1.84,1.6,2.77,.69,1.22,.34,1.88-1.08,2.03-.6,.06-1.23-.05-1.81,.19-.21,.17-.43,.18-.65,.03v-.03Z" style="fill: #69b866;"/>
    <path d="M189.59,1838.83c-.58-2.57-1.56-4.94-3.96-6.38-.32-.19-.22-.42-.14-.69,1.82-6.73,2.39-13.6,2.48-20.54-.21,.01-.43,.03-.65,.03h.01c-.05,4.39-.35,8.77-.97,13.12-.34,2.34-.81,4.66-1.42,6.95-.13,.48-.23,.71-.82,.51-.83-.3-1.71-.34-2.6-.22-2.68,.36-4.92,1.57-6.86,3.43-.84,.81-1.55,1.7-1.95,2.79-.65,1.74-.01,3.16,1.73,3.75,2.14,.73,4.18,.51,6.04-.88,1.13-.84,1.95-1.95,2.66-3.14,.84-1.44,1.44-3,2-4.6,.49,.23,.88,.55,1.25,.9,1.61,1.6,2.34,3.62,2.66,5.77,1.19,7.94,.08,15.46-4.12,22.42-4.17,6.92-9.75,12.51-16.21,17.29-.42,.3-.73,.55-.17,.97,4.35-3.13,8.33-6.7,11.81-10.79,5.01-5.9,8.86-12.35,9.59-20.28,.32-3.48,.42-6.96-.36-10.4Zm-5.41-5.13c-.29,.62-.51,1.26-.77,1.9-.05,.13-.11,.26-.16,.39-.19,1.02-.85,2.02-1.48,2.76-1.05,1.21-2.41,2.24-4.01,2.59-.77,.17-1.58,.18-2.35-.02-.73-.18-1.58-.52-2.02-1.17-.55-.81-.2-1.72,.27-2.52,.15-.29,.32-.57,.52-.83,.03-.05,.06-.1,.09-.15,.51-.82,1.22-2.06,2.26-2.22,.02-.02,.05-.04,.07-.06,.24-.21,.5-.39,.76-.57,.04-.04,.08-.08,.14-.11,.09-.05,.19-.09,.28-.14,.59-.35,1.2-.62,1.84-.82,.32-.12,.65-.22,.98-.31,.51-.13,1.03-.16,1.55-.17,.27,0,.55-.02,.82,0,.3,.02,.59,.07,.89,.08,.45,0,.58,.49,.4,.78-.02,.05-.03,.1-.05,.16,.04,.13,.04,.28-.03,.42Z" style="fill: #585758;"/>
    <path d="M177.43,1749.79c0,5.44-4.12,10.95-9.14,12.26-4.73,1.23-8.43-1.36-8.96-6.26-.6-5.52,3.62-11.65,8.9-13.21,5.09-1.51,9.21,1.71,9.2,7.2h.01Z" style="fill: #c5e0c1;"/>
  </g>
  <g>
    <path d="M623.1,1589.83c-.73-.08-1.43,.1-2.14,.13-1.04,.04-1.53-.65-1.14-1.6,.44-1.08,.88-2.17,1.38-3.22,.26-.56,.14-.71-.47-.71-5.9-.12-11.39-1.69-16.46-4.68-8.73-5.16-14.52-12.69-17.2-22.41-3.62-13.17-1.27-25.34,7.34-36.04,5.75-7.16,13.31-11.51,22.47-12.78,10.46-1.45,19.72,1.44,27.68,8.27,7.35,6.3,11.61,14.39,12.9,23.98,1.56,11.64-1.34,22.08-8.92,31.1-5.6,6.65-12.77,10.72-21.37,12.2-.6,.1-1.21,.18-1.82,.21-.48,.03-.55,.17-.3,.57,.55,.91,1.07,1.84,1.6,2.77,.69,1.22,.34,1.88-1.08,2.03-.6,.06-1.23-.05-1.81,.19-.21,.17-.43,.18-.65,.03v-.03Z" style="fill: #5d7ebe;"/>
    <path d="M625.37,1617.41c-.58-2.57-1.56-4.94-3.96-6.38-.32-.19-.22-.42-.14-.69,1.82-6.73,2.39-13.6,2.48-20.54-.21,.01-.43,.03-.65,.03h.01c-.05,4.39-.35,8.77-.97,13.12-.34,2.34-.81,4.66-1.42,6.95-.13,.48-.23,.71-.82,.51-.83-.3-1.71-.34-2.6-.22-2.68,.36-4.92,1.57-6.86,3.43-.84,.81-1.55,1.7-1.95,2.79-.65,1.74-.01,3.16,1.73,3.75,2.14,.73,4.18,.51,6.04-.88,1.13-.84,1.95-1.95,2.66-3.14,.84-1.44,1.44-3,2-4.6,.49,.23,.88,.55,1.25,.9,1.61,1.6,2.34,3.62,2.66,5.77,1.19,7.94,.08,15.46-4.12,22.42-4.17,6.92-9.75,12.51-16.21,17.29-.42,.3-.73,.55-.17,.97,4.35-3.13,8.33-6.7,11.81-10.79,5.01-5.9,8.86-12.35,9.59-20.28,.32-3.48,.42-6.96-.36-10.4Zm-5.41-5.13c-.29,.62-.51,1.26-.77,1.9-.05,.13-.11,.26-.16,.39-.19,1.02-.85,2.02-1.48,2.76-1.05,1.21-2.41,2.24-4.01,2.59-.77,.17-1.58,.18-2.35-.02-.73-.18-1.58-.52-2.02-1.17-.55-.81-.2-1.72,.27-2.52,.15-.29,.32-.57,.52-.83,.03-.05,.06-.1,.09-.15,.51-.82,1.22-2.06,2.26-2.22,.02-.02,.05-.04,.07-.06,.24-.21,.5-.39,.76-.57,.04-.04,.08-.08,.14-.11,.09-.05,.19-.09,.28-.14,.59-.35,1.2-.62,1.84-.82,.32-.12,.65-.22,.98-.31,.51-.13,1.03-.16,1.55-.17,.27,0,.55-.02,.82,0,.3,.02,.59,.07,.89,.08,.45,0,.58,.49,.4,.78-.02,.05-.03,.1-.05,.16,.04,.13,.04,.28-.03,.42Z" style="fill: #575656;"/>
    <path d="M613.21,1528.37c0,5.44-4.12,10.95-9.14,12.26-4.73,1.23-8.43-1.36-8.96-6.26-.6-5.52,3.62-11.65,8.9-13.21,5.09-1.51,9.21,1.71,9.2,7.2h.01Z" style="fill: #becdeb;"/>
  </g>
  <g>
    <path d="M1052.56,1776.8c-.73-.08-1.43,.1-2.14,.13-1.04,.04-1.53-.65-1.14-1.6,.44-1.08,.88-2.17,1.38-3.22,.26-.56,.14-.71-.47-.71-5.9-.12-11.39-1.69-16.46-4.68-8.73-5.16-14.52-12.69-17.2-22.41-3.62-13.17-1.27-25.34,7.34-36.04,5.75-7.16,13.31-11.51,22.47-12.78,10.46-1.45,19.72,1.44,27.68,8.27,7.35,6.3,11.61,14.39,12.9,23.98,1.56,11.64-1.34,22.08-8.92,31.1-5.6,6.65-12.77,10.72-21.37,12.2-.6,.1-1.21,.18-1.82,.21-.48,.03-.55,.17-.3,.57,.55,.91,1.07,1.84,1.6,2.77,.69,1.22,.34,1.88-1.08,2.03-.6,.06-1.23-.05-1.81,.19-.21,.17-.43,.18-.65,.03v-.03Z" style="fill: #bf2d34;"/>
    <path d="M1054.83,1804.37c-.58-2.57-1.56-4.94-3.96-6.38-.32-.19-.22-.42-.14-.69,1.82-6.73,2.39-13.6,2.48-20.54-.21,.01-.43,.03-.65,.03h.01c-.05,4.39-.35,8.77-.97,13.12-.34,2.34-.81,4.66-1.42,6.95-.13,.48-.23,.71-.82,.51-.83-.3-1.71-.34-2.6-.22-2.68,.36-4.92,1.57-6.86,3.43-.84,.81-1.55,1.7-1.95,2.79-.65,1.74-.01,3.16,1.73,3.75,2.14,.73,4.18,.51,6.04-.88,1.13-.84,1.95-1.95,2.66-3.14,.84-1.44,1.44-3,2-4.6,.49,.23,.88,.55,1.25,.9,1.61,1.6,2.34,3.62,2.66,5.77,1.19,7.94,.08,15.46-4.12,22.42-4.17,6.92-9.75,12.51-16.21,17.29-.42,.3-.73,.55-.17,.97,4.35-3.13,8.33-6.7,11.81-10.79,5.01-5.9,8.86-12.35,9.59-20.28,.32-3.48,.42-6.96-.36-10.4Zm-5.41-5.13c-.29,.62-.51,1.26-.77,1.9-.05,.13-.11,.26-.16,.39-.19,1.02-.85,2.02-1.48,2.76-1.05,1.21-2.41,2.24-4.01,2.59-.77,.17-1.58,.18-2.35-.02-.73-.18-1.58-.52-2.02-1.17-.55-.81-.2-1.72,.27-2.52,.15-.29,.32-.57,.52-.83,.03-.05,.06-.1,.09-.15,.51-.82,1.22-2.06,2.26-2.22,.02-.02,.05-.04,.07-.06,.24-.21,.5-.39,.76-.57,.04-.04,.08-.08,.14-.11,.09-.05,.19-.09,.28-.14,.59-.35,1.2-.62,1.84-.82,.32-.12,.65-.22,.98-.31,.51-.13,1.03-.16,1.55-.17,.27,0,.55-.02,.82,0,.3,.02,.59,.07,.89,.08,.45,0,.58,.49,.4,.78-.02,.05-.03,.1-.05,.16,.04,.13,.04,.28-.03,.42Z" style="fill: #565740;"/>
    <path d="M1042.67,1715.34c0,5.44-4.12,10.95-9.14,12.26-4.73,1.23-8.43-1.36-8.96-6.26-.6-5.52,3.62-11.65,8.9-13.21,5.09-1.51,9.21,1.71,9.2,7.2h.01Z" style="fill: #eb8287;"/>
  </g>
  <g>
    <path d="M1066.95,1265.4c-.73-.08-1.43,.1-2.14,.13-1.04,.04-1.53-.65-1.14-1.6,.44-1.08,.88-2.17,1.38-3.22,.26-.56,.14-.71-.47-.71-5.9-.12-11.39-1.69-16.46-4.68-8.73-5.16-14.52-12.69-17.2-22.41-3.62-13.17-1.27-25.34,7.34-36.04,5.75-7.16,13.31-11.51,22.47-12.78,10.46-1.45,19.72,1.44,27.68,8.27,7.35,6.3,11.61,14.39,12.9,23.98,1.56,11.64-1.34,22.08-8.92,31.1-5.6,6.65-12.77,10.72-21.37,12.2-.6,.1-1.21,.18-1.82,.21-.48,.03-.55,.17-.3,.57,.55,.91,1.07,1.84,1.6,2.77,.69,1.22,.34,1.88-1.08,2.03-.6,.06-1.23-.05-1.81,.19-.21,.17-.43,.18-.65,.03v-.03Z" style="fill: #bebb3e;"/>
    <path d="M1069.22,1292.98c-.58-2.57-1.56-4.94-3.96-6.38-.32-.19-.22-.42-.14-.69,1.82-6.73,2.39-13.6,2.48-20.54-.21,.01-.43,.03-.65,.03h.01c-.05,4.39-.35,8.77-.97,13.12-.34,2.34-.81,4.66-1.42,6.95-.13,.48-.23,.71-.82,.51-.83-.3-1.71-.34-2.6-.22-2.68,.36-4.92,1.57-6.86,3.43-.84,.81-1.55,1.7-1.95,2.79-.65,1.74-.01,3.16,1.73,3.75,2.14,.73,4.18,.51,6.04-.88,1.13-.84,1.95-1.95,2.66-3.14,.84-1.44,1.44-3,2-4.6,.49,.23,.88,.55,1.25,.9,1.61,1.6,2.34,3.62,2.66,5.77,1.19,7.94,.08,15.46-4.12,22.42-4.17,6.92-9.75,12.51-16.21,17.29-.42,.3-.73,.55-.17,.97,4.35-3.13,8.33-6.7,11.81-10.79,5.01-5.9,8.86-12.35,9.59-20.28,.32-3.48,.42-6.96-.36-10.4Zm-5.41-5.13c-.29,.62-.51,1.26-.77,1.9-.05,.13-.11,.26-.16,.39-.19,1.02-.85,2.02-1.48,2.76-1.05,1.21-2.41,2.24-4.01,2.59-.77,.17-1.58,.18-2.35-.02-.73-.18-1.58-.52-2.02-1.17-.55-.81-.2-1.72,.27-2.52,.15-.29,.32-.57,.52-.83,.03-.05,.06-.1,.09-.15,.51-.82,1.22-2.06,2.26-2.22,.02-.02,.05-.04,.07-.06,.24-.21,.5-.39,.76-.57,.04-.04,.08-.08,.14-.11,.09-.05,.19-.09,.28-.14,.59-.35,1.2-.62,1.84-.82,.32-.12,.65-.22,.98-.31,.51-.13,1.03-.16,1.55-.17,.27,0,.55-.02,.82,0,.3,.02,.59,.07,.89,.08,.45,0,.58,.49,.4,.78-.02,.05-.03,.1-.05,.16,.04,.13,.04,.28-.03,.42Z" style="fill: #574658;"/>
    <path d="M1057.06,1203.94c0,5.44-4.12,10.95-9.14,12.26-4.73,1.23-8.43-1.36-8.96-6.26-.6-5.52,3.62-11.65,8.9-13.21,5.09-1.51,9.21,1.71,9.2,7.2h.01Z" style="fill: #eceb97;"/>
  </g>
</svg>