<?xml version="1.0" encoding="UTF-8"?>
<svg id="Capa_1" data-name="Capa 1" xmlns="http://www.w3.org/2000/svg" viewBox="0 0 1500.86 153">
  <path d="M427.76,15.14l-9.6,133.02-415.21,.44-.69-.56c-1.14-.75-1.82-1.87-2.28-3.18,.01-7.65,.48-15.31,.5-22.95,.93-6.72,2.07-13.25,2.31-19.6C14.99,50.63,70.48,11.71,137.31,11.82c28.74,.04,55.41,7.36,77.29,19.71C249.53,11.99,291.75,.67,337.14,.73c2.06,0,4.11,0,5.94,0V0c30.03,.42,58.68,5.77,84.69,15.14Z" style="fill: #010101;"/>
  <path d="M1500.86,149.17c-.44,1.34-1.09,2.49-2.19,3.25l-.65,.58-1100.42-2.23,.4-137.23c19.75-6.1,40.77-9.73,62.78-10.33v.2c.87,0,1.53,0,2.19,0,43.84-.04,84.42,11.8,118.01,31.87C614.35,14.57,654.92,2.29,698.54,1.68v.95s.66,0,.66,0c43.84-.04,84.64,11.8,118.24,32.05C850.79,14.01,891.35,1.72,934.98,1.11v.77c.66,0,1.53,0,2.17,0,43.84-.03,84.42,11.8,118.25,32.06C1088.75,13.24,1129.32,.97,1172.94,.36v.76c1.75,0,3.71,0,5.68,0,43.41-.03,83.76,11.61,117.14,31.68,20.93-12.64,46.45-20.13,73.93-20.15,63.91-.05,116.94,39.91,128.53,92.9,.22,6.5,1.32,13.21,2.19,20.1,0,7.84,.45,15.68,.46,23.53Z" style="fill: #010101;"/>
  <path d="M3.42,143.16H0" style="fill: #010101;"/>
</svg>