<?xml version="1.0" encoding="utf-8"?>
<!-- Generator: Adobe Illustrator 26.5.0, SVG Export Plug-In . SVG Version: 6.00 Build 0)  -->
<svg version="1.1"
	 id="Layer_1" xmlns:dc="http://purl.org/dc/elements/1.1/" xmlns:ns1="http://sozi.baierouge.fr" xmlns:sodipodi="http://sodipodi.sourceforge.net/DTD/sodipodi-0.dtd" xmlns:cc="http://web.resource.org/cc/" xmlns:inkscape="http://www.inkscape.org/namespaces/inkscape" xmlns:rdf="http://www.w3.org/1999/02/22-rdf-syntax-ns#"
	 xmlns="http://www.w3.org/2000/svg" xmlns:xlink="http://www.w3.org/1999/xlink" x="0px" y="0px" viewBox="0 0 624.3 85.7"
	 style="enable-background:new 0 0 624.3 85.7;" xml:space="preserve">
<path d="M625.7,87.3c0.5-0.4,0.8-1,1-1.7c0-4.1-0.2-8.2-0.2-12.3c-0.4-3.6-0.9-7.1-1-10.5c-5.3-27.7-29.6-48.6-58.9-48.6
	c-12.6,0-24.3,3.9-33.9,10.5C517.4,14.2,498.9,8.1,479,8.1c-0.9,0-1.8,0-2.6,0V7.7c-20,0.3-38.6,6.7-53.9,17.5
	C407,14.6,388.4,8.4,368.3,8.4c-0.3,0-0.7,0-1,0V8c-20,0.3-38.6,6.7-53.9,17.5c-15.4-10.6-34.1-16.8-54.2-16.8h-0.3V8.2
	c-20,0.3-38.6,6.7-53.9,17.5C189.6,15.2,171,9,150.9,9c-0.3,0-0.6,0-1,0V8.9c-13.4,0.4-26,3.6-37.5,8.9c-2.7-10.3-12-18-23.2-18
	c-13.2,0-24,10.8-24,24c0,2.8,0.5,5.4,1.3,7.9c-4.5-1.2-9.2-1.9-14.1-1.9C23.5,29.9,0,53.4,0,82.3c0,1.1,0,2.2,0.1,3.3l625.3,2
	C625.5,87.5,625.6,87.4,625.7,87.3z"/>
</svg>
