<?xml version="1.0" standalone="no"?>
<!DOCTYPE svg PUBLIC "-//W3C//DTD SVG 20010904//EN"
 "http://www.w3.org/TR/2001/REC-SVG-20010904/DTD/svg10.dtd">
<svg version="1.0" xmlns="http://www.w3.org/2000/svg"
 width="640.000000pt" height="1280.000000pt" viewBox="0 0 640.000000 1280.000000"
 preserveAspectRatio="xMidYMid meet">
<metadata>
Created by potrace 1.15, written by Peter Selinger 2001-2017
</metadata>
<g transform="translate(0.000000,1280.000000) scale(0.100000,-0.100000)"
fill="#000000" stroke="none">
<path d="M2505 12715 c-432 -59 -836 -235 -1195 -521 -118 -94 -331 -309 -429
-433 -363 -457 -595 -1013 -676 -1616 -37 -280 -43 -492 -20 -765 52 -644 249
-1318 571 -1962 459 -916 1119 -1646 1780 -1967 84 -40 91 -47 101 -81 7 -29
7 -37 -2 -34 -18 7 -31 -16 -39 -65 -6 -39 -4 -47 19 -72 l27 -27 -59 -31
c-118 -63 -163 -117 -163 -197 0 -29 3 -35 16 -30 85 33 181 49 312 53 78 3
158 2 177 -1 l35 -7 0 -184 c0 -339 23 -422 186 -666 197 -295 290 -512 330
-770 19 -122 14 -369 -10 -485 -58 -285 -209 -631 -416 -954 -190 -297 -310
-567 -390 -883 -55 -218 -73 -360 -74 -567 0 -226 26 -358 84 -420 27 -28 80
-43 80 -21 0 20 -13 41 -25 41 -41 0 -83 154 -91 330 -20 418 136 968 392
1385 161 263 198 326 253 435 123 241 197 448 242 685 21 105 18 407 -5 520
-47 235 -153 471 -329 733 -120 179 -147 239 -167 377 -11 81 -14 435 -2 435
4 0 23 -4 42 -9 81 -21 88 -21 94 -5 10 26 -11 51 -89 106 -51 35 -78 61 -82
78 -3 14 -12 38 -20 54 -13 26 -13 29 6 42 20 14 19 34 -2 62 -7 9 -13 9 -23
1 -19 -15 -18 -11 12 69 l25 69 82 41 c276 137 540 334 812 607 393 392 691
817 970 1380 264 534 443 1084 520 1600 69 464 61 940 -24 1345 -187 890 -697
1630 -1401 2033 -241 138 -509 234 -790 283 -130 22 -509 28 -645 9z"/>
</g>
</svg>
