<?xml version="1.0" encoding="UTF-8"?>
<svg id="Capa_1" data-name="Capa 1" xmlns="http://www.w3.org/2000/svg" viewBox="0 0 1504.31 148.5">
  <g>
    <path d="M756.63,131.81c-1.09-.11-2.15,.16-3.23,.2-1.56,.06-2.31-.97-1.72-2.41,.66-1.63,1.33-3.26,2.07-4.86,.39-.85,.22-1.07-.71-1.08-8.87-.15-17.16-2.51-24.79-6.99-13.15-7.73-21.9-19.07-25.95-33.69-5.48-19.82-1.99-38.15,10.94-54.29,8.65-10.8,20-17.36,33.79-19.3,15.74-2.21,29.69,2.11,41.7,12.37,11.08,9.47,17.53,21.64,19.49,36.06,2.38,17.51-1.96,33.25-13.34,46.83-8.41,10.03-19.19,16.17-32.12,18.42-.91,.16-1.82,.27-2.74,.32-.72,.04-.82,.25-.45,.86,.82,1.37,1.61,2.77,2.4,4.16,1.05,1.84,.51,2.83-1.61,3.06-.91,.1-1.85-.07-2.73,.3-.32,.26-.65,.28-.98,.03Z" style="fill: #bdb83a;"/>
    <path d="M741.58,39.32c0,8.19-6.17,16.5-13.73,18.49-7.12,1.87-12.69-2.04-13.5-9.39-.92-8.31,5.42-17.55,13.37-19.91,7.67-2.28,13.87,2.56,13.87,10.82Z" style="fill: #ebe894;"/>
  </g>
  <g>
    <path d="M650.99,141.44c-1.04-.24-2.1-.12-3.15-.22-1.51-.15-2.1-1.24-1.35-2.55,.85-1.49,1.71-2.98,2.63-4.43,.49-.77,.35-1-.55-1.14-8.54-1.3-16.24-4.65-23.02-9.97-11.69-9.17-18.67-21.25-20.68-35.89-2.72-19.85,3.04-37.09,17.62-50.99,9.76-9.3,21.57-14.16,35.13-14.24,15.48-.09,28.39,5.9,38.65,17.36,9.47,10.58,14.11,23.17,14.13,37.34,.03,17.21-6.21,31.84-18.97,43.47-9.42,8.59-20.62,13.12-33.41,13.61-.89,.03-1.8,.02-2.69-.05-.7-.05-.82,.14-.55,.77,.62,1.43,1.19,2.88,1.78,4.33,.77,1.91,.12,2.8-1.95,2.75-.89-.02-1.78-.31-2.67-.06-.34,.21-.66,.19-.95-.09Z" style="fill: #49ad33;"/>
    <path d="M648.48,50.19c-1.06,7.91-8.1,15.13-15.66,16.07-7.12,.88-11.98-3.61-11.82-10.82,.19-8.14,7.51-16.24,15.49-17.49,7.7-1.2,13.05,4.27,11.99,12.24Z" style="fill: #8ec478;"/>
  </g>
  <g>
    <path d="M570.25,130.93c-1.06-.1-2.1,.16-3.15,.2-1.52,.06-2.25-.94-1.68-2.34,.64-1.59,1.29-3.18,2-4.74,.38-.83,.21-1.04-.7-1.05-8.64-.14-16.72-2.41-24.16-6.77-12.83-7.51-21.37-18.54-25.33-32.77-5.38-19.3-2-37.16,10.57-52.9,8.41-10.53,19.46-16.95,32.88-18.86,15.33-2.18,28.93,2.01,40.64,11.98,10.81,9.2,17.11,21.05,19.04,35.09,2.35,17.05-1.86,32.39-12.92,45.64-8.17,9.78-18.66,15.78-31.26,18-.88,.16-1.78,.26-2.67,.32-.7,.04-.79,.25-.44,.84,.8,1.34,1.57,2.69,2.35,4.05,1.02,1.79,.5,2.76-1.57,2.99-.89,.1-1.8-.07-2.65,.3-.31,.26-.63,.27-.96,.04Z" style="fill: #bd291b;"/>
    <path d="M555.44,40.86c.02,7.98-5.98,16.08-13.35,18.03-6.94,1.84-12.36-1.96-13.17-9.13-.91-8.09,5.25-17.11,12.99-19.42,7.47-2.23,13.51,2.47,13.53,10.51Z" style="fill: #ec776c;"/>
  </g>
  <g>
    <path d="M474.06,147.74c-.99-.39-2.06-.42-3.08-.67-1.48-.36-1.9-1.53-.97-2.72,1.06-1.35,2.12-2.7,3.24-4,.59-.69,.49-.94-.38-1.2-8.27-2.52-15.4-6.94-21.34-13.19-10.25-10.77-15.41-23.72-15.28-38.5,.17-20.04,8.36-36.26,24.79-47.91,11-7.8,23.38-10.9,36.82-9.03,15.33,2.14,27.24,9.93,35.74,22.76,7.84,11.83,10.62,24.96,8.6,38.99-2.46,17.04-10.74,30.62-25.04,40.28-10.56,7.14-22.3,10.01-35.02,8.65-.89-.09-1.78-.24-2.65-.43-.68-.15-.83,.02-.65,.68,.4,1.51,.77,3.02,1.14,4.54,.49,2-.28,2.79-2.33,2.44-.88-.15-1.71-.56-2.63-.45-.37,.16-.68,.09-.93-.23Z" style="fill: #bdb83a;"/>
    <path d="M484.74,57.09c-2.19,7.67-10.19,13.8-17.81,13.64-7.17-.15-11.34-5.3-10.13-12.42,1.36-8.03,9.78-14.99,17.85-15.07,7.79-.08,12.3,6.11,10.1,13.84Z" style="fill: #ebe894;"/>
  </g>
  <g>
    <path d="M409.14,134.61c-1.04-.23-2.1-.1-3.15-.19-1.52-.13-2.12-1.21-1.38-2.53,.83-1.5,1.67-3,2.57-4.46,.48-.78,.34-1-.56-1.13-8.56-1.2-16.29-4.46-23.14-9.7-11.8-9.03-18.92-21.03-21.1-35.65-2.96-19.82,2.6-37.12,17.01-51.19,9.64-9.42,21.4-14.42,34.96-14.66,15.48-.28,28.46,5.56,38.86,16.9,9.6,10.47,14.38,23,14.57,37.17,.23,17.21-5.83,31.92-18.45,43.7-9.32,8.7-20.47,13.36-33.24,14.01-.89,.05-1.8,.04-2.69-.01-.7-.04-.82,.15-.54,.78,.63,1.43,1.23,2.87,1.83,4.31,.79,1.9,.15,2.8-1.92,2.77-.89-.01-1.78-.29-2.67-.03-.34,.22-.66,.19-.96-.08Z" style="fill: #5d7dbd;"/>
    <path d="M405.54,43.4c-.96,7.92-7.92,15.22-15.47,16.25-7.11,.97-12.03-3.47-11.95-10.68,.09-8.15,7.32-16.33,15.28-17.67,7.68-1.29,13.1,4.12,12.13,12.1Z" style="fill: #becdeb;"/>
  </g>
  <g>
    <path d="M325.29,147.64c-1-.37-2.07-.38-3.1-.61-1.48-.33-1.93-1.49-1.02-2.7,1.03-1.37,2.07-2.74,3.15-4.07,.58-.7,.47-.95-.4-1.2-8.32-2.35-15.53-6.63-21.6-12.75-10.47-10.55-15.89-23.4-16.06-38.18-.24-20.03,7.62-36.43,23.8-48.41,10.83-8.02,23.16-11.38,36.63-9.77,15.37,1.83,27.44,9.38,36.2,22.02,8.08,11.67,11.12,24.74,9.39,38.81-2.11,17.08-10.12,30.83-24.21,40.78-10.41,7.35-22.09,10.46-34.84,9.36-.89-.08-1.78-.2-2.66-.38-.69-.14-.83,.04-.64,.7,.43,1.5,.83,3.01,1.23,4.52,.53,1.99-.23,2.79-2.28,2.48-.88-.13-1.72-.53-2.64-.39-.37,.17-.68,.1-.94-.21Z" style="fill: #bd291b;"/>
    <path d="M334.12,56.79c-2.03,7.71-9.91,14.01-17.53,14-7.18,0-11.44-5.07-10.38-12.21,1.2-8.06,9.47-15.18,17.54-15.43,7.79-.24,12.42,5.86,10.38,13.64Z" style="fill: #ec776c;"/>
  </g>
  <g>
    <path d="M259.88,124.64c-1.05-.16-2.1,.06-3.16,.04-1.52-.02-2.2-1.06-1.56-2.43,.72-1.56,1.45-3.11,2.24-4.63,.42-.81,.27-1.03-.64-1.09-8.62-.58-16.57-3.26-23.78-8-12.43-8.16-20.39-19.6-23.63-34.02-4.38-19.55-.1-37.21,13.26-52.29,8.94-10.09,20.3-15.93,33.8-17.15,15.42-1.39,28.78,3.49,39.98,14.04,10.33,9.74,16.01,21.9,17.22,36.02,1.48,17.15-3.51,32.25-15.24,44.92-8.66,9.35-19.45,14.81-32.14,16.38-.89,.11-1.79,.17-2.68,.18-.7,0-.81,.21-.48,.81,.74,1.38,1.43,2.77,2.14,4.16,.93,1.84,.36,2.78-1.72,2.9-.89,.05-1.8-.16-2.67,.16-.32,.24-.64,.24-.96-.01Z" style="fill: #bdb83a;"/>
    <path d="M249.69,33.93c-.39,7.97-6.79,15.76-14.25,17.33-7.02,1.48-12.25-2.59-12.69-9.79-.5-8.13,6.12-16.82,13.96-18.73,7.57-1.84,13.37,3.16,12.98,11.19Z" style="fill: #ebe894;"/>
  </g>
  <g>
    <path d="M172.33,141.02c-1.02-.32-2.09-.27-3.12-.44-1.5-.25-2.01-1.38-1.17-2.64,.95-1.43,1.91-2.85,2.93-4.23,.54-.74,.42-.97-.47-1.17-8.43-1.89-15.88-5.76-22.28-11.54-11.03-9.96-17.16-22.49-18.15-37.24-1.34-19.99,5.59-36.79,21.1-49.65,10.38-8.6,22.49-12.64,36.03-11.78,15.45,.98,27.91,7.85,37.36,19.99,8.72,11.21,12.47,24.09,11.52,38.23-1.16,17.17-8.4,31.34-21.92,42.06-9.99,7.92-21.48,11.66-34.27,11.27-.89-.03-1.79-.1-2.68-.23-.69-.1-.83,.08-.6,.73,.52,1.47,.99,2.96,1.48,4.44,.64,1.96-.07,2.8-2.14,2.61-.89-.08-1.75-.43-2.66-.25-.36,.19-.67,.14-.95-.16Z" style="fill: #49ad33;"/>
    <path d="M176.13,49.82c-1.6,7.81-9.12,14.53-16.73,14.95-7.16,.39-11.71-4.43-11.04-11.61,.75-8.11,8.62-15.68,16.66-16.37,7.76-.67,12.73,5.17,11.11,13.04Z" style="fill: #8ec478;"/>
  </g>
  <g>
    <path d="M96.09,141.02c-1.02-.32-2.09-.27-3.12-.44-1.5-.25-2.01-1.38-1.17-2.64,.95-1.43,1.91-2.85,2.93-4.23,.54-.74,.42-.97-.47-1.17-8.43-1.89-15.88-5.76-22.28-11.54-11.03-9.96-17.16-22.49-18.15-37.24-1.34-19.99,5.59-36.79,21.1-49.65,10.38-8.6,22.49-12.64,36.03-11.78,15.45,.98,27.91,7.85,37.36,19.99,8.72,11.21,12.47,24.09,11.52,38.23-1.16,17.17-8.4,31.34-21.92,42.06-9.99,7.92-21.48,11.66-34.27,11.27-.89-.03-1.79-.1-2.68-.23-.69-.1-.83,.08-.6,.73,.52,1.47,.99,2.96,1.48,4.44,.64,1.96-.07,2.8-2.14,2.61-.89-.08-1.75-.43-2.66-.25-.36,.19-.67,.14-.95-.16Z" style="fill: #bd291b;"/>
    <path d="M99.88,49.82c-1.6,7.81-9.12,14.53-16.73,14.95-7.16,.39-11.71-4.43-11.04-11.61,.75-8.11,8.62-15.68,16.66-16.37,7.76-.67,12.73,5.17,11.11,13.04Z" style="fill: #ec776c;"/>
  </g>
  <g>
    <path d="M50.76,119.75c-1.05-.18-2.1,0-3.16-.03-1.52-.05-2.17-1.1-1.51-2.46,.76-1.54,1.52-3.08,2.35-4.58,.44-.8,.29-1.02-.62-1.1-8.61-.77-16.49-3.63-23.6-8.52C11.98,94.63,4.27,83.01,1.35,68.53c-3.95-19.64,.72-37.21,14.4-51.99C24.91,6.65,36.4,1.06,49.93,.13c15.45-1.06,28.7,4.12,39.66,14.92,10.11,9.97,15.52,22.24,16.43,36.39,1.1,17.18-4.22,32.17-16.22,44.57-8.87,9.16-19.77,14.38-32.49,15.67-.89,.09-1.79,.13-2.69,.12-.7,0-.81,.19-.5,.8,.7,1.39,1.37,2.8,2.05,4.21,.89,1.86,.29,2.79-1.78,2.86-.89,.03-1.79-.2-2.67,.1-.33,.23-.65,.23-.96-.03Z" style="fill: #5d7dbd;"/>
    <path d="M42.56,28.84c-.56,7.96-7.14,15.6-14.63,17.01-7.05,1.32-12.19-2.86-12.47-10.07-.32-8.14,6.49-16.68,14.37-18.42,7.61-1.68,13.29,3.45,12.73,11.47Z" style="fill: #becdeb;"/>
  </g>
  <g>
    <path d="M853.32,141.44c1.04-.24,2.1-.12,3.15-.22,1.51-.15,2.1-1.24,1.35-2.55-.85-1.49-1.71-2.98-2.63-4.43-.49-.77-.35-1,.55-1.14,8.54-1.3,16.24-4.65,23.02-9.97,11.69-9.17,18.67-21.25,20.68-35.89,2.72-19.85-3.04-37.09-17.62-50.99-9.76-9.3-21.57-14.16-35.13-14.24-15.48-.09-28.39,5.9-38.65,17.36-9.47,10.58-14.11,23.17-14.13,37.34-.03,17.21,6.21,31.84,18.97,43.47,9.42,8.59,20.62,13.12,33.41,13.61,.89,.03,1.8,.02,2.69-.05,.7-.05,.82,.14,.55,.77-.62,1.43-1.19,2.88-1.78,4.33-.77,1.91-.12,2.8,1.95,2.75,.89-.02,1.78-.31,2.67-.06,.34,.21,.66,.19,.95-.09Z" style="fill: #5d7dbd;"/>
    <path d="M855.83,50.19c1.06,7.91,8.1,15.13,15.66,16.07,7.12,.88,11.98-3.61,11.82-10.82-.19-8.14-7.51-16.24-15.49-17.49-7.7-1.2-13.05,4.27-11.99,12.24Z" style="fill: #becdeb;"/>
  </g>
  <g>
    <path d="M934.07,130.93c1.06-.1,2.1,.16,3.15,.2,1.52,.06,2.25-.94,1.68-2.34-.64-1.59-1.29-3.18-2-4.74-.38-.83-.21-1.04,.7-1.05,8.64-.14,16.72-2.41,24.16-6.77,12.83-7.51,21.37-18.54,25.33-32.77,5.38-19.3,2-37.16-10.57-52.9-8.41-10.53-19.46-16.95-32.88-18.86-15.33-2.18-28.93,2.01-40.64,11.98-10.81,9.2-17.11,21.05-19.04,35.09-2.35,17.05,1.86,32.39,12.92,45.64,8.17,9.78,18.66,15.78,31.26,18,.88,.16,1.78,.26,2.67,.32,.7,.04,.79,.25,.44,.84-.8,1.34-1.57,2.69-2.35,4.05-1.02,1.79-.5,2.76,1.57,2.99,.89,.1,1.8-.07,2.65,.3,.31,.26,.63,.27,.96,.04Z" style="fill: #bd291b;"/>
    <path d="M948.88,40.86c-.02,7.98,5.98,16.08,13.35,18.03,6.94,1.84,12.36-1.96,13.17-9.13,.91-8.09-5.25-17.11-12.99-19.42-7.47-2.23-13.51,2.47-13.53,10.51Z" style="fill: #ec776c;"/>
  </g>
  <g>
    <path d="M1030.25,147.74c.99-.39,2.06-.42,3.08-.67,1.48-.36,1.9-1.53,.97-2.72-1.06-1.35-2.12-2.7-3.24-4-.59-.69-.49-.94,.38-1.2,8.27-2.52,15.4-6.94,21.34-13.19,10.25-10.77,15.41-23.72,15.28-38.5-.17-20.04-8.36-36.26-24.79-47.91-11-7.8-23.38-10.9-36.82-9.03-15.33,2.14-27.24,9.93-35.74,22.76-7.84,11.83-10.62,24.96-8.6,38.99,2.46,17.04,10.74,30.62,25.04,40.28,10.56,7.14,22.3,10.01,35.02,8.65,.89-.09,1.78-.24,2.65-.43,.68-.15,.83,.02,.65,.68-.4,1.51-.77,3.02-1.14,4.54-.49,2,.28,2.79,2.33,2.44,.88-.15,1.71-.56,2.63-.45,.37,.16,.68,.09,.93-.23Z" style="fill: #bdb83a;"/>
    <path d="M1019.57,57.09c2.19,7.67,10.19,13.8,17.81,13.64,7.17-.15,11.34-5.3,10.13-12.42-1.36-8.03-9.78-14.99-17.85-15.07-7.79-.08-12.3,6.11-10.1,13.84Z" style="fill: #ebe894;"/>
  </g>
  <g>
    <path d="M1095.17,134.61c1.04-.23,2.1-.1,3.15-.19,1.52-.13,2.12-1.21,1.38-2.53-.83-1.5-1.67-3-2.57-4.46-.48-.78-.34-1,.56-1.13,8.56-1.2,16.29-4.46,23.14-9.7,11.8-9.03,18.92-21.03,21.1-35.65,2.96-19.82-2.6-37.12-17.01-51.19-9.64-9.42-21.4-14.42-34.96-14.66-15.48-.28-28.46,5.56-38.86,16.9-9.6,10.47-14.38,23-14.57,37.17-.23,17.21,5.83,31.92,18.45,43.7,9.32,8.7,20.47,13.36,33.24,14.01,.89,.05,1.8,.04,2.69-.01,.7-.04,.82,.15,.54,.78-.63,1.43-1.23,2.87-1.83,4.31-.79,1.9-.15,2.8,1.92,2.77,.89-.01,1.78-.29,2.67-.03,.34,.22,.66,.19,.96-.08Z" style="fill: #49ad33;"/>
    <path d="M1098.77,43.4c.96,7.92,7.92,15.22,15.47,16.25,7.11,.97,12.03-3.47,11.95-10.68-.09-8.15-7.32-16.33-15.28-17.67-7.68-1.29-13.1,4.12-12.13,12.1Z" style="fill: #8ec478;"/>
  </g>
  <g>
    <path d="M1179.03,147.64c1-.37,2.07-.38,3.1-.61,1.48-.33,1.93-1.49,1.02-2.7-1.03-1.37-2.07-2.74-3.15-4.07-.58-.7-.47-.95,.4-1.2,8.32-2.35,15.53-6.63,21.6-12.75,10.47-10.55,15.89-23.4,16.06-38.18,.24-20.03-7.62-36.43-23.8-48.41-10.83-8.02-23.16-11.38-36.63-9.77-15.37,1.83-27.44,9.38-36.2,22.02-8.08,11.67-11.12,24.74-9.39,38.81,2.11,17.08,10.12,30.83,24.21,40.78,10.41,7.35,22.09,10.46,34.84,9.36,.89-.08,1.78-.2,2.66-.38,.69-.14,.83,.04,.64,.7-.43,1.5-.83,3.01-1.23,4.52-.53,1.99,.23,2.79,2.28,2.48,.88-.13,1.72-.53,2.64-.39,.37,.17,.68,.1,.94-.21Z" style="fill: #bd291b;"/>
    <path d="M1170.2,56.79c2.03,7.71,9.91,14.01,17.53,14,7.18,0,11.44-5.07,10.38-12.21-1.2-8.06-9.47-15.18-17.54-15.43-7.79-.24-12.42,5.86-10.38,13.64Z" style="fill: #ec776c;"/>
  </g>
  <g>
    <path d="M1244.43,124.64c1.05-.16,2.1,.06,3.16,.04,1.52-.02,2.2-1.06,1.56-2.43-.72-1.56-1.45-3.11-2.24-4.63-.42-.81-.27-1.03,.64-1.09,8.62-.58,16.57-3.26,23.78-8,12.43-8.16,20.39-19.6,23.63-34.02,4.38-19.55,.1-37.21-13.26-52.29-8.94-10.09-20.3-15.93-33.8-17.15-15.42-1.39-28.78,3.49-39.98,14.04-10.33,9.74-16.01,21.9-17.22,36.02-1.48,17.15,3.51,32.25,15.24,44.92,8.66,9.35,19.45,14.81,32.14,16.38,.89,.11,1.79,.17,2.68,.18,.7,0,.81,.21,.48,.81-.74,1.38-1.43,2.77-2.14,4.16-.93,1.84-.36,2.78,1.72,2.9,.89,.05,1.8-.16,2.67,.16,.32,.24,.64,.24,.96-.01Z" style="fill: #5d7dbd;"/>
    <path d="M1254.62,33.93c.39,7.97,6.79,15.76,14.25,17.33,7.02,1.48,12.25-2.59,12.69-9.79,.5-8.13-6.12-16.82-13.96-18.73-7.57-1.84-13.37,3.16-12.98,11.19Z" style="fill: #becdeb;"/>
  </g>
  <g>
    <path d="M1331.98,141.02c1.02-.32,2.09-.27,3.12-.44,1.5-.25,2.01-1.38,1.17-2.64-.95-1.43-1.91-2.85-2.93-4.23-.54-.74-.42-.97,.47-1.17,8.43-1.89,15.88-5.76,22.28-11.54,11.03-9.96,17.16-22.49,18.15-37.24,1.34-19.99-5.59-36.79-21.1-49.65-10.38-8.6-22.49-12.64-36.03-11.78-15.45,.98-27.91,7.85-37.36,19.99-8.72,11.21-12.47,24.09-11.52,38.23,1.16,17.17,8.4,31.34,21.92,42.06,9.99,7.92,21.48,11.66,34.27,11.27,.89-.03,1.79-.1,2.68-.23,.69-.1,.83,.08,.6,.73-.52,1.47-.99,2.96-1.48,4.44-.64,1.96,.07,2.8,2.14,2.61,.89-.08,1.75-.43,2.66-.25,.36,.19,.67,.14,.95-.16Z" style="fill: #bdb83a;"/>
    <path d="M1328.18,49.82c1.6,7.81,9.12,14.53,16.73,14.95,7.16,.39,11.71-4.43,11.04-11.61-.75-8.11-8.62-15.68-16.66-16.37-7.76-.67-12.73,5.17-11.11,13.04Z" style="fill: #ebe894;"/>
  </g>
  <g>
    <path d="M1408.23,141.02c1.02-.32,2.09-.27,3.12-.44,1.5-.25,2.01-1.38,1.17-2.64-.95-1.43-1.91-2.85-2.93-4.23-.54-.74-.42-.97,.47-1.17,8.43-1.89,15.88-5.76,22.28-11.54,11.03-9.96,17.16-22.49,18.15-37.24,1.34-19.99-5.59-36.79-21.1-49.65-10.38-8.6-22.49-12.64-36.03-11.78-15.45,.98-27.91,7.85-37.36,19.99-8.72,11.21-12.47,24.09-11.52,38.23,1.16,17.17,8.4,31.34,21.92,42.06,9.99,7.92,21.48,11.66,34.27,11.27,.89-.03,1.79-.1,2.68-.23,.69-.1,.83,.08,.6,.73-.52,1.47-.99,2.96-1.48,4.44-.64,1.96,.07,2.8,2.14,2.61,.89-.08,1.75-.43,2.66-.25,.36,.19,.67,.14,.95-.16Z" style="fill: #bd291b;"/>
    <path d="M1404.43,49.82c1.6,7.81,9.12,14.53,16.73,14.95,7.16,.39,11.71-4.43,11.04-11.61-.75-8.11-8.62-15.68-16.66-16.37-7.76-.67-12.73,5.17-11.11,13.04Z" style="fill: #ec776c;"/>
  </g>
  <g>
    <path d="M1453.56,119.75c1.05-.18,2.1,0,3.16-.03,1.52-.05,2.17-1.1,1.51-2.46-.76-1.54-1.52-3.08-2.35-4.58-.44-.8-.29-1.02,.62-1.1,8.61-.77,16.49-3.63,23.6-8.52,12.24-8.43,19.96-20.05,22.87-34.54,3.95-19.64-.72-37.21-14.4-51.99-9.16-9.89-20.64-15.48-34.17-16.4-15.45-1.06-28.7,4.12-39.66,14.92-10.11,9.97-15.52,22.24-16.43,36.39-1.1,17.18,4.22,32.17,16.22,44.57,8.87,9.16,19.77,14.38,32.49,15.67,.89,.09,1.79,.13,2.69,.12,.7,0,.81,.19,.5,.8-.7,1.39-1.37,2.8-2.05,4.21-.89,1.86-.29,2.79,1.78,2.86,.89,.03,1.79-.2,2.67,.1,.33,.23,.65,.23,.96-.03Z" style="fill: #49ad33;"/>
    <path d="M1461.75,28.84c.56,7.96,7.14,15.6,14.63,17.01,7.05,1.32,12.19-2.86,12.47-10.07,.32-8.14-6.49-16.68-14.37-18.42-7.61-1.68-13.29,3.45-12.73,11.47Z" style="fill: #8ec478;"/>
  </g>
</svg>