<?xml version="1.0" encoding="UTF-8"?>
<svg id="Capa_1" data-name="Capa 1" xmlns="http://www.w3.org/2000/svg" viewBox="0 0 157.19 25.67">
  <path d="M10.36,22.75s.19-.38-.16-1.17,1.01,.56,.92,1.17,.26-.62,.26-.62l.28,.63,.26-.59,.24,.53s-.2-.8,.32-1.43-.2,.8,.09,1.49" style="fill: #fff; stroke: #1d1d1b; stroke-miterlimit: 10; stroke-width: .1px;"/>
  <path d="M33.87,20.73s.19-.38-.16-1.17,1.01,.56,.92,1.17,.26-.62,.26-.62l.28,.63,.26-.59,.24,.53s-.2-.8,.32-1.43-.2,.8,.09,1.49" style="fill: #fff; stroke: #1d1d1b; stroke-miterlimit: 10; stroke-width: .1px;"/>
  <path d="M56.92,12.56s.19-.38-.16-1.17,1.01,.56,.92,1.17,.26-.62,.26-.62l.28,.63,.26-.59,.24,.53s-.2-.8,.32-1.43-.2,.8,.09,1.49" style="fill: #fff; stroke: #1d1d1b; stroke-miterlimit: 10; stroke-width: .1px;"/>
  <path d="M74.41,6.4s.19-.38-.16-1.17,1.01,.56,.92,1.17,.26-.62,.26-.62l.28,.63,.26-.59,.24,.53s-.2-.8,.32-1.43-.2,.8,.09,1.49" style="fill: #fff; stroke: #1d1d1b; stroke-miterlimit: 10; stroke-width: .1px;"/>
  <path d="M84.75,16.71s.19-.38-.16-1.17,1.01,.56,.92,1.17,.26-.62,.26-.62l.28,.63,.26-.59,.24,.53s-.2-.8,.32-1.43-.2,.8,.09,1.49" style="fill: #fff; stroke: #1d1d1b; stroke-miterlimit: 10; stroke-width: .1px;"/>
  <path d="M107.31,22.75s.19-.38-.16-1.17,1.01,.56,.92,1.17,.26-.62,.26-.62l.28,.63,.26-.59,.24,.53s-.2-.8,.32-1.43-.2,.8,.09,1.49" style="fill: #fff; stroke: #1d1d1b; stroke-miterlimit: 10; stroke-width: .1px;"/>
  <path d="M115.55,10.38s.19-.38-.16-1.17,1.01,.56,.92,1.17,.26-.62,.26-.62l.28,.63,.26-.59,.24,.53s-.2-.8,.32-1.43-.2,.8,.09,1.49" style="fill: #fff; stroke: #1d1d1b; stroke-miterlimit: 10; stroke-width: .1px;"/>
  <path d="M98.12,3.41s.19-.38-.16-1.17,1.01,.56,.92,1.17,.26-.62,.26-.62l.28,.63,.26-.59,.24,.53s-.2-.8,.32-1.43-.2,.8,.09,1.49" style="fill: #fff; stroke: #1d1d1b; stroke-miterlimit: 10; stroke-width: .1px;"/>
  <path d="M129.72,19.83s.19-.38-.16-1.17,1.01,.56,.92,1.17,.26-.62,.26-.62l.28,.63,.26-.59,.24,.53s-.2-.8,.32-1.43-.2,.8,.09,1.49" style="fill: #fff; stroke: #1d1d1b; stroke-miterlimit: 10; stroke-width: .1px;"/>
  <path d="M135.08,7.3s.19-.38-.16-1.17,1.01,.56,.92,1.17,.26-.62,.26-.62l.28,.63,.26-.59,.24,.53s-.2-.8,.32-1.43-.2,.8,.09,1.49" style="fill: #fff; stroke: #1d1d1b; stroke-miterlimit: 10; stroke-width: .1px;"/>
  <path d="M152.31,25.45s.19-.38-.16-1.17,1.01,.56,.92,1.17,.26-.62,.26-.62l.28,.63,.26-.59,.24,.53s-.2-.8,.32-1.43-.2,.8,.09,1.49" style="fill: #fff; stroke: #1d1d1b; stroke-miterlimit: 10; stroke-width: .1px;"/>
  <path d="M148.29,13.46s.19-.38-.16-1.17,1.01,.56,.92,1.17,.26-.62,.26-.62l.28,.63,.26-.59,.24,.53s-.2-.8,.32-1.43-.2,.8,.09,1.49" style="fill: #fff; stroke: #1d1d1b; stroke-miterlimit: 10; stroke-width: .1px;"/>
  <path d="M154.84,1.68s.19-.38-.16-1.17,1.01,.56,.92,1.17,.26-.62,.26-.62l.28,.63,.26-.59,.24,.53s-.2-.8,.32-1.43-.2,.8,.09,1.49" style="fill: #fff; stroke: #1d1d1b; stroke-miterlimit: 10; stroke-width: .1px;"/>
  <path d="M63.05,23.65s.19-.38-.16-1.17,1.01,.56,.92,1.17,.26-.62,.26-.62l.28,.63,.26-.59,.24,.53s-.2-.8,.32-1.43-.2,.8,.09,1.49" style="fill: #fff; stroke: #1d1d1b; stroke-miterlimit: 10; stroke-width: .1px;"/>
  <path d="M41.86,6.4s.19-.38-.16-1.17,1.01,.56,.92,1.17,.26-.62,.26-.62l.28,.63,.26-.59,.24,.53s-.2-.8,.32-1.43-.2,.8,.09,1.49" style="fill: #fff; stroke: #1d1d1b; stroke-miterlimit: 10; stroke-width: .1px;"/>
  <path d="M21.37,9.1s.19-.38-.16-1.17,1.01,.56,.92,1.17,.26-.62,.26-.62l.28,.63,.26-.59,.24,.53s-.2-.8,.32-1.43-.2,.8,.09,1.49" style="fill: #fff; stroke: #1d1d1b; stroke-miterlimit: 10; stroke-width: .1px;"/>
  <path d="M.27,4.31s.19-.38-.16-1.17,1.01,.56,.92,1.17,.26-.62,.26-.62l.28,.63,.26-.59,.24,.53s-.2-.8,.32-1.43-.2,.8,.09,1.49" style="fill: #fff; stroke: #1d1d1b; stroke-miterlimit: 10; stroke-width: .1px;"/>
</svg>