<?xml version="1.0" encoding="UTF-8"?>
<svg id="Capa_1" data-name="Capa 1" xmlns="http://www.w3.org/2000/svg" viewBox="0 0 124.94 79.39">
  <path d="M55.16,0h-14.72c0,5.59,0,11.18,.03,16.77,0,.59-.42,1.4,.72,1.65,2.28,.49,3.02-.03,3.02-2.32,0-.49,.06-.99-.01-1.47-.2-1.35,.42-1.64,1.66-1.6,2.59,.09,5.19-.03,7.77,.05,1.23,.04,1.52-.4,1.51-1.56-.05-3.84,.01-7.69,.03-11.53Zm-3.9,9.14c-.18,.73-.95,1-1.63,1.04-.47,.03-.94-.01-1.41-.01-.48,0-.96,0-1.44-.02,0,0,0,0-.01,0,0,0,0,0-.02,0-.51,0-1.04-.02-1.55-.08-.41-.05-.71-.24-.85-.64-.25-.69-.2-1.43-.13-2.16,0-.61-.02-1.22-.05-1.83-.03-.51-.02-1.08,.19-1.56,.14-.98,1.55-.99,2.33-.99,.86,0,1.71,.01,2.57,.02,.07,0,.15,0,.23,0,.69,.02,1.37,.07,1.69,.8,.18,.41,.16,.89,.18,1.32,.01,.53,0,1.06,0,1.59,0,.83,.11,1.69-.09,2.51Z" style="fill: #a72b2c;"/>
  <path d="M78.57,21.02c-.07-.06-.14-.12-.22-.18-.06-.05-.08-.07-.16-.12-.07-.04-.14-.06-.24-.08-.09-.02-.18-.02-.26-.04h-12.49c-.17,.03-.34,.07-.5,.12-.02,0-.04,.01-.06,.02-.09,.05-.18,.1-.26,.16,0,0,0,0-.01,.01,0,0,0,0,0,0,0,.01-.01,.02-.02,.03-.02,.03-.05,.06-.07,.08-.08,.13-.15,.26-.22,.39,0,5.32,0,10.63,.03,15.95,0,.59-.42,1.4,.72,1.65,2.28,.49,3.02-.03,3.02-2.32,0-.49,.06-.99-.01-1.47-.2-1.35,.42-1.64,1.66-1.6,2.59,.09,5.19-.03,7.77,.05,1.23,.04,1.52-.4,1.51-1.56l.03-10.69c-.07-.14-.13-.29-.2-.42Zm-3.69,8.73c-.18,.73-.95,1-1.63,1.04-.47,.03-.94-.01-1.41-.01-.48,0-.96,0-1.44-.02,0,0,0,0-.01,0,0,0,0,0-.02,0-.51,0-1.04-.02-1.55-.08-.41-.05-.71-.24-.85-.64-.25-.69-.2-1.43-.13-2.16,0-.61-.02-1.22-.05-1.83-.03-.51-.02-1.08,.19-1.56,.14-.98,1.55-.99,2.33-.99,.86,0,1.71,.01,2.57,.02,.07,0,.15,0,.23,0,.69,.02,1.37,.07,1.69,.8,.18,.41,.16,.89,.18,1.32,.01,.53,0,1.06,0,1.59,0,.83,.11,1.69-.09,2.51Z" style="fill: #a72b2c;"/>
  <path d="M78.77,11.08c-.15-3.69-.05-7.39-.06-11.08h-14.72c.02,5.58,.07,11.15,.04,16.73,0,1.21,.25,1.69,1.6,1.74,1.69,.07,2.5-.35,2.21-2.16-.09-.54,.05-1.12-.03-1.67-.18-1.35,.47-1.65,1.69-1.61,2.37,.08,4.75-.06,7.12,.05,1.55,.07,2.22-.25,2.14-2.01Zm-3.83-2.35c-.07,.57-.26,1.12-.83,1.27-.37,.1-.73,.11-1.1,.1-.17,.02-.34,.03-.52,.03-.14,0-.28,0-.42,0-.14,.01-.28,.04-.42,.03,0,0,0,0,0,0-.01,0-.02,0-.03,0-.12,.01-.23-.02-.35-.02,0,0,0,0-.01,0-.08,.01-.16,.02-.24,0-.05,0-.11-.02-.16-.02-.07,0-.14,0-.21,0-.49-.02-1.08,.01-1.59-.1,0,0,0,0,0,0-.06,0-.11,0-.17,0-.11-.02-.22-.05-.33-.1-.06-.03-.12-.07-.17-.12,0,0,0,0,0,0-.2-.15-.31-.34-.4-.57-.08-.23-.17-.54-.14-.82,0,0,0-.01,0-.02-.09-.5-.08-1-.04-1.49,0-.03,0-.07,0-.1,0,0,0-.02,0-.03,0-.14,0-.28,0-.42,0-.1,0-.21,0-.31,0,0,0,0,0,0,0,0,0,0,0,0,0-.08,0-.17,0-.25,0-.04,0-.07,.02-.1,0-.15,0-.3,.02-.44,0-.11,0-.21,0-.32,0-.02,0-.03,0-.05,0-.04-.01-.08,0-.11,0-.04,0-.07,.02-.11,0-.01,0-.02,0-.04,0,0,0,0,0,0,0-.06,0-.12,.02-.18,0-.1,0-.21,.03-.31,0,0,0,0,0-.01,0-.04,.01-.08,.02-.12,0,0,0,0,0-.01,0,0,0,0,0,0,.01-.05,.02-.1,.04-.15,.05-.12,.1-.24,.17-.35,.06-.12,.13-.23,.24-.3,.1-.07,.22-.09,.33-.1,.11-.03,.22-.05,.34-.05,.52-.12,1.07-.12,1.6-.12,.54,0,1.09,0,1.63,0,.11,0,.22,0,.33,.02,.33,0,.65-.02,.98,0,.33,.02,.63,.1,.85,.34,.28,.16,.39,.54,.46,.85,.13,.58,.09,1.15,.1,1.74,0,.69,.02,1.38,.04,2.08,0,.27,0,.55-.09,.79Z" style="fill: #877e72;"/>
  <path d="M55.1,21.31c-.05-.1-.1-.2-.16-.3-.03-.04-.01-.03-.06-.07-.03-.03-.07-.07-.09-.08-.05-.04-.13-.09-.2-.13-.14-.08-.31-.13-.49-.17h-12.86s-.05,.02-.08,.02c-.05,.02-.1,.04-.16,.06-.04,.01-.08,.03-.12,.05,0,0,0,0,0,0,0,0,0,0,0,0,0,0-.02,0-.02,.01-.03,.01-.05,.03-.07,.04,0,0-.01,0-.02,.01,0,0-.01,0-.02,.01,0,0-.03,.02-.03,.03,0,0-.01,.02-.02,.02,0,0,0-.01,.01-.02-.01,.02-.03,.03-.05,.05-.04,.05-.08,.11-.12,.16,0,.02-.02,.04-.03,.06-.01,.03-.02,.07-.03,.1-.01,.05-.03,.11-.05,.16,0,.09-.01,.19-.04,.28,.02,5.23,.07,10.45,.04,15.68,0,1.21,.25,1.69,1.6,1.74,1.69,.07,2.5-.35,2.21-2.16-.09-.54,.05-1.12-.03-1.67-.18-1.35,.47-1.65,1.69-1.61,2.37,.08,4.75-.06,7.12,.05,1.55,.07,2.22-.25,2.14-2.01-.14-3.44-.07-6.89-.06-10.34Zm-3.77,7.99c-.07,.57-.26,1.12-.83,1.27-.37,.1-.73,.11-1.1,.1-.17,.02-.34,.03-.52,.03-.14,0-.28,0-.42,0-.14,.01-.28,.04-.42,.03-.04,0-.09-.02-.12-.03-.29,.01-.58,.02-.88,.01-.49-.02-1.08,.01-1.59-.1,0,0,0,0,0,0-.06,0-.11,0-.17,0-.11-.02-.22-.05-.33-.1-.06-.03-.12-.07-.17-.12,0,0,0,0,0,0-.2-.15-.31-.34-.4-.57-.08-.23-.17-.54-.14-.82,0,0,0-.01,0-.02-.09-.5-.08-1-.04-1.49,0-.03,0-.07,0-.1,0,0,0-.02,0-.03,0-.14,0-.28,0-.42,0-.1,0-.21,0-.31,0,0,0,0,0,0,0,0,0,0,0,0,0-.08,0-.17,0-.25,0-.04,0-.07,.02-.1,0-.15,0-.3,.02-.44,0-.11,0-.21,0-.32,0-.02,0-.03,0-.05,0-.04-.01-.08,0-.11,0-.04,0-.07,.02-.11,0-.01,0-.02,0-.04,0,0,0,0,0,0,0-.06,0-.12,.02-.18,0-.1,0-.21,.03-.31,0,0,0,0,0-.01,0-.04,.01-.08,.02-.12,0,0,0,0,0-.01,0,0,0,0,0,0,.01-.05,.02-.1,.04-.15,.05-.12,.1-.24,.17-.35,.06-.12,.13-.23,.24-.3,.1-.07,.22-.09,.33-.1,.11-.03,.22-.05,.34-.05,.52-.12,1.07-.12,1.6-.12,.54,0,1.09,0,1.63,0,.11,0,.22,0,.33,.02,.33,0,.65-.02,.98,0,.33,.02,.63,.1,.85,.34,.27,.15,.39,.52,.46,.82,.08,.36,.11,.73,.11,1.09-.01,.92,0,1.84,.03,2.75,0,.27,0,.55-.09,.79Z" style="fill: #877e72;"/>
  <path d="M61.47,0c-.02,5.52-.1,11.04-.04,16.55,.02,1.44-.34,1.94-1.85,1.89-3.71-.11-7.42-.06-11.13-.02-1.13,.01-1.76-.07-1.78-1.52-.02-1.63,.93-1.38,1.88-1.38,2.45,0,4.91-.08,7.35,.03,1.37,.06,1.78-.34,1.76-1.73-.07-4.61,0-9.22,.02-13.83h3.79Z" style="fill: #a72c2d;"/>
  <path d="M85.03,0c0,5.51-.04,11.02,.03,16.53,.02,1.39-.27,1.97-1.81,1.92-3.7-.11-7.41-.06-11.12-.02-1.1,.01-1.82-.03-1.82-1.5,0-1.59,.92-1.4,1.9-1.4,2.52,0,5.04-.06,7.55,.03,1.2,.04,1.55-.36,1.53-1.54-.07-4.67-.04-9.35-.05-14.02h3.79Z" style="fill: #887f72;"/>
  <path d="M61.41,29.89c0,2.52-.05,5.04,.02,7.55,.03,1.14-.26,1.62-1.5,1.6-3.92-.06-7.85-.06-11.77,0-1.1,.02-1.46-.33-1.44-1.43,.02-1.01,.2-1.53,1.38-1.5,2.52,.08,5.05-.07,7.57,.05,1.52,.07,2.08-.3,2.02-1.94-.13-3.98,.02-7.97-.07-11.96-.04-1.47,.55-1.71,1.84-1.7,1.3,.01,2.1,.11,2,1.77-.14,2.51-.04,5.03-.04,7.55Z" style="fill: #887e72;"/>
  <path d="M85.02,29.92c0,2.52-.05,5.03,.02,7.55,.03,1.13-.22,1.6-1.48,1.57-3.92-.08-7.85-.06-11.77,0-1.06,.01-1.47-.25-1.48-1.39-.02-1.22,.41-1.55,1.57-1.52,2.66,.07,5.33-.03,7.99,.04,1.1,.03,1.43-.3,1.41-1.41-.06-4.19,.06-8.39-.07-12.58-.05-1.66,.8-1.57,1.92-1.57,1.11,0,2.02-.1,1.92,1.56-.16,2.58-.04,5.17-.04,7.76Z" style="fill: #a72c2c;"/>
  <path d="M123.18,58.57c-2.45,.34-2.77,.05-2.77-2.43,0-1.4-.19-2.83,.05-4.18,.34-1.9-.19-2.53-2.28-1.85,.79,.42,.95,1.1,.92,1.93-.05,1.54,.03,3.08-.03,4.61-.03,.81,.45,1.95-.98,2.15-1.29,.18-1.65-.71-2.02-1.68-.85-2.21-1.74-4.41-2.64-6.6-.15-.37-.28-.81-.81-.86-.64-.06-.84,.41-1.02,.87-.33,.84-.56,1.73-.95,2.54-.97,2-1.22,4.33-2.88,6.03,1.05,.14,2.03,.38,1.85-1.29-.06-.55,.46-1.15,.62-1.75,.34-1.24,1.33-.93,2.21-1.04,1.45-.18,1.7,.82,2.07,1.82,.32,.85,.84,1.67-.47,2.18,6.08,.61,10.06,.3,10.88-.93-.64,.18-1.19,.39-1.76,.47Zm-9.84-4.57c-.06,.22-.2,.38-.39,.49-.2,.12-.54,.2-.78,.1-.02,0-.05,0-.07,0-.11-.01-.22-.05-.31-.12-.01-.01-.03-.02-.04-.03,0,0-.01,0-.02,0,0,0,0,0,0,0-.04-.04-.07-.08-.1-.12,0,0,0,0,0,0,0,0,0,0,0-.01,0,0-.01-.01-.02-.02-.03-.04-.06-.08-.09-.12-.16-.13-.24-.34-.24-.55,0-.37,.16-.73,.32-1.05,.17-.34,.38-.67,.64-.96,.06-.07,.13-.09,.2-.09,.09-.03,.19-.02,.28,.06,.42,.4,.6,1.04,.68,1.59,.04,.29,.04,.57-.04,.85Z" style="fill: #91887b;"/>
  <path d="M79.12,59.12h-2.65c.62-.53,1.03-.98,1-1.76-.07-1.89-.03-3.78-.02-5.66,0-.8-.18-1.36-1.14-1.39-.93-.03-1.49,.3-1.5,1.3-.01,1.26,.05,2.52-.03,3.78-.17,2.67-1.98,4.16-4.85,4.06-2.87-.1-4.23-1.49-4.38-4.23-.1-1.73,.67-3.61-.8-5.23h3.02c-1.01,1.12-1.27,5.97-.36,7.23,1.11,1.52,2.7,1.57,4.35,1.15,.46-.12,.94-.34,1.28-.66,1.51-1.37,1.38-6.23-.29-7.76h3.85c.85-.23,1.72-.53,2.42,.34,.63,2.7,.11,5.45,.4,8.17-.03,.26-.14,.48-.31,.67Z" style="fill: #92897c;"/>
  <path d="M45.64,49.58c.83,.14,1.67,.21,2.47,.44,2.27,.65,2.84,2.67,1.13,4.24-.65,.6-.69,.82-.06,1.36,1.4,1.22,2.55,2.75,4.77,3.45-1.85,.45-3.02-.12-4.08-1.07-.78-.7-1.55-1.41-2.32-2.12-.63-.59-1.42-.73-2.14-.42-.72,.31-.5,1.17-.36,1.68,.7,2.55-.9,2.14-2.39,1.96-.14-.38,.24-.27,.35-.4,.13-.15,.32-.29,.38-.47,.09-.26,.12-.55,.12-.82,0-1.88-.06-3.77,.03-5.65,.06-1.11-.58-1.43-1.41-1.69,2.95-.76,3.28-.53,3.49,2.28,.05,.7-.23,1.68,.87,1.81,.78,.09,1.29-.47,1.52-1.18,.28-.86-.13-1.43-.88-1.87-.62-.37-1.75-.29-1.49-1.52Z" style="fill: #948b7e;"/>
  <path d="M61.93,74.36c0,.77,.02,1.53-.02,2.3-.06,1.18,.1,2.16,1.78,2.05-1.51,.4-2.86,.36-4.26,.21,1.51-1.64,1.08-10.23-.79-11.29,2.25,0,4.24-.13,6.2,.04,1.58,.14,3.06,.85,3.32,2.66,.26,1.84-.66,3.05-2.46,3.55-.46,.29-.81,.24-.99-.32,.09-.72,.66-1.22,.87-1.89,.33-1.02,.23-1.95-.65-2.65-.52-.41-1.15-.55-1.79-.33-.65,.22-.67,.83-.71,1.39-.08,1.25,.14,2.52-.18,3.76-.1,.18-.21,.35-.33,.51Z" style="fill: #8e8578;"/>
  <path d="M59.73,47.86h4.55c-1.74,.54-1.62,1.52-1.65,2.48-.1,3.13,.35,6.29-.33,9.39-.5,2.3-1.92,3.64-3.7,3.66-.64,0-1.3-.02-1.67-.63-.11-.18-.11-.61,.03-.75,.62-.66,1.12,.01,1.66,.22,1.45,.54,2.24-.09,2.32-2.11,.09-2.44,.03-4.88,.03-7.32,0-.84-.03-1.68,0-2.51,.04-1.03-.15-1.93-1.24-2.42Z" style="fill: #90877a;"/>
  <path d="M87.72,69.78h3.19c-.99,1.27-1.25,5.99-.41,7.28,.95,1.45,2.41,1.57,3.91,1.37,1.36-.18,2.46-.93,2.55-2.37,.13-2.12,.98-4.41-1.04-6.27h3.15c-1.79,1.35-1.06,3.12-1.12,4.69-.14,3.79-2.64,5.64-6.35,4.64-1.96-.53-2.86-1.71-2.95-3.76-.08-1.8,.69-3.77-.94-5.59Z" style="fill: #958c80;"/>
  <path d="M5.54,54.22c-.64,.76-2.54-.63-2.43,1.41,.07,1.31-.5,2.93,1.57,3.44H.72c1.51-3.19,.37-6.68,.64-10.04,.04-.51-.12-.52-1.36-1.02,1.98,.07,3.93-1.11,5.94-.07,.09,.21,.04,.39-.13,.53-1.01,.44-2.29,.35-2.34,2.13-.04,1.71,.59,2.59,2.1,3.06,.11,.2,.1,.39-.04,.56Z" style="fill: #938a7d;"/>
  <path d="M39.56,54.74c-.56-.03-1.12-.04-1.67-.1-1.16-.13-1.71,.31-1.57,1.53,.12,1.02-.44,2.39,1.42,2.41,1.38,0,2.86,.34,3.77-1.56,.28,1.51,.06,2.23-1.39,2.19-2.1-.05-4.2-.01-6.42-.01,1.48-1.05,1.88-6.9,.68-9.28,1.73,0,3.41,.08,5.08-.02,1.36-.08,1.71,.56,1.58,2.04-.9-1.85-2.39-1.52-3.76-1.43-1.51,.1-.82,1.34-.93,2.12-.12,.81-.05,1.58,1.14,1.48,.7-.06,1.4-.05,2.1-.08,.16,.24,.15,.49-.01,.73Z" style="fill: #91887b;"/>
  <path d="M71.59,70.55c-.02,.35-.11,.71-.05,1.04,.14,.76-.5,1.93,.51,2.19,.97,.25,2.21,.56,3.13-.49,.45,.61,.29,1.27,.11,1.95-1.18-.81-2.65-1.05-3.53-.2-.66,.63-.52,2.16,.03,3.15,.44,.79,3.67,.21,4.75-.77,.29,.99,.14,1.62-1.08,1.6-1.88-.03-3.76,0-5.63,0,.49-2.92,.57-5.72,.07-8.53,.6-.83,1.18-.81,1.69,.06Z" style="fill: #92897c;"/>
  <path d="M88.51,49.99h2.47c-1,1.85-.78,7.83,.4,9.11h-2.91c.64-3,.59-6.01,.04-9.11Z" style="fill: #9b9286;"/>
  <path d="M82.49,70.09c1.35-.18,2.32,.35,2.82,1.61,.38,.95,.02,1.62-1.57,3.21,1.57,1.54,2.94,3.31,5.72,4.21-2.63,.38-3.99-.71-5.32-1.99-1.13-1.08-2.15-2.51-4.08-1.85-.16-.15-.22-.33-.18-.54,.22-.29,.54-.4,.88-.48,2.72-.64,2.91-1.03,1.78-3.58-.09-.19-.11-.39-.04-.59Z" style="fill: #948b7e;"/>
  <path d="M24.89,50.03c2.26-.84,4.37-.26,6.27,.93,1.31,.82,1.91,2.23,1.63,3.79-.38,2.06-1.55,3.5-3.67,4.05-.45,.14-.54-.11-.54-.48,.47-.77,1.33-1.22,1.73-2.07,1.14-2.39-.23-4.97-2.86-5.32-.82-.11-1.68,.07-2.45-.37-.12-.1-.18-.21-.17-.34,.01-.13,.04-.2,.07-.2Z" style="fill: #958c7f;"/>
  <path d="M46.39,78.59c.75-2.52,.48-7.51-.5-8.8h3.17c-1,.43-1.02,1.29-1,2.21,.03,1.4,.13,2.81-.02,4.19-.2,1.84,.4,2.63,2.29,2.31,.48-.08,.98-.05,1.47-.07,0,.07,.03,.19,0,.2-1.81,.75-3.62,.85-5.42-.04Z" style="fill: #8d8477;"/>
  <path d="M39.62,70.55c0,1.1-.01,2.19-.02,3.29,.24,.3,.24,.6,0,.89-.02,.21-.08,.43-.04,.62,.21,1.02-.67,2.61,.6,2.96,1.4,.39,3.21,.77,4.37-.99,.3,1.08,.15,1.71-1.07,1.69-1.88-.03-3.76,0-5.6,0,.45-2.93,.55-5.72,.05-8.53,.6-.83,1.18-.81,1.69,.06Z" style="fill: #90877a;"/>
  <path d="M96.75,59.22c-2.23-.32-3.69-1.56-4.13-3.76-.45-2.24,.52-3.86,2.85-5.17,.45-.15,.54,.06,.45,.45-3.04,2.78-2.24,6.7,1.66,8.11,.02,.79-.44,.49-.83,.37Z" style="fill: #938a7d;"/>
  <path d="M106.31,59.13h-2.2c.5-3.04,.41-6.01,.05-9.18,.5-.22,1.38-.02,2.04,.01-.63,3.05-.78,6.05,.1,9.16Z" style="fill: #92897c;"/>
  <path d="M24.89,50.03c-.02,.1-.03,.2-.03,.3,.92,1.14,.59,2.5,.62,3.78,.03,1.44,.05,2.89,.03,4.33,0,.26-.08,.49-.24,.7h-2.71c1.44-1.48,1.33-7.85-.28-9.1,.95-.18,1.77-.3,2.61,0Z" style="fill: #92897c;"/>
  <path d="M17.35,49.87c2.2,.4,3.77,1.63,4.09,3.86,.33,2.3-.76,4.01-2.87,5.04-.44,.16-.53-.11-.56-.45,2.06-3.67,1.93-4.52-1.24-7.99,.03-.36,.16-.59,.58-.46Z" style="fill: #948b7e;"/>
  <path d="M14.72,59.26c-2.7-.62-4.3-1.96-4.48-4.03-.19-2.22,.75-3.92,2.82-4.9,.43-.16,.53,.1,.58,.44-.8,1.52-1.58,2.99-1.12,4.85,.39,1.6,1.88,2.1,2.78,3.17-.03,.36-.16,.59-.58,.46Z" style="fill: #938a7d;"/>
  <path d="M80.08,70.09c-.02,1.52-.05,3.04-.07,4.56,.02,.21,.03,.42,.05,.63,.02,1.2-.24,2.44,.53,3.66h-2.14c.55-2.61,.3-5.26,.21-7.89-.05-1.46,.41-1.44,1.42-.96Z" style="fill: #8d8477;"/>
  <path d="M82.52,49.92c2.08,.31,3.79,1.19,4.18,3.43,.39,2.21-.46,3.94-2.52,4.99-.41,.17-.53-.1-.63-.41-.02-.52,.31-.9,.52-1.33,1.27-2.55,.74-4.27-1.76-5.7-.3-.17-.62-.31-.76-.66,.17-.56,.52-.57,.96-.32Z" style="fill: #938a7e;"/>
  <path d="M26.18,78.57c.84-2.64,.23-5.34,.33-8,.16-1.12,.84-.63,1.42-.47,1.04,2.72,.27,5.55,.53,8.31-.69,1.03-1.45,1.11-2.28,.16Z" style="fill: #90877a;"/>
  <path d="M33.4,70.42c1.78,.67,2.55,2,2.49,3.84-.06,2.07-1.11,3.46-3.02,4.23-.43,.17-.51-.1-.55-.43,1.88-2.33,1.91-4.76,.41-7.27,.1-.34,.3-.52,.67-.36Z" style="fill: #90877a;"/>
  <path d="M5.54,54.22c0-.14-.01-.28-.02-.41,0-.14,.02-.31,.11-.39,2.08-1.64,1.4-3.43,.31-5.24,0-.08,0-.16,0-.25,2.25,.16,3.35,1.07,3.44,2.81,.1,2.01-1.16,3.15-3.84,3.48Z" style="fill: #8f8679;"/>
  <path d="M71.59,70.55c-.54-.63-1.11-.63-1.69-.06-.31-.14-.63-.28-.94-.42,0-.12,0-.24,0-.36,2.13,0,4.26-.06,6.39,.02,1.19,.05,.84,1,.77,1.93-1.26-1.81-3-.94-4.53-1.11Z" style="fill: #938a7d;"/>
  <path d="M39.62,70.55c-.54-.63-1.11-.62-1.69-.06-.31-.14-.63-.28-.94-.42,0-.12,0-.24,0-.36,2.13,0,4.26-.06,6.39,.02,1.18,.05,.84,1,.77,1.93-1.26-1.82-3-.94-4.53-1.11Z" style="fill: #938a7d;"/>
  <path d="M32.47,78.13c.13,.12,.27,.24,.4,.36-2.19,1.25-4.58,.59-6.89,.72-.25,.01-.6-.11-.35-.48,.08-.12,.37-.11,.56-.16,.68,.45,1.36,.47,2.03-.03,1.34-.95,2.78-.81,4.25-.41Z" style="fill: #938a7d;"/>
  <path d="M96.75,59.22c.28-.12,.56-.25,.83-.37,1.92,.11,3.56-.43,4.89-2.3-.58,2.71-2.68,3.57-5.73,2.67Z" style="fill: #938a7d;"/>
  <path d="M46.39,78.59c1.82,.37,3.63,.62,5.41-.16,.45-.5,.9-1,1.66-1.84-.48,2.07-1.36,2.81-3.06,2.67-1.39-.12-2.8-.02-4.2-.04-.24,0-.64-.05-.37-.46,.08-.12,.37-.11,.57-.16Z" style="fill: #938a7d;"/>
  <path d="M33.4,70.42c-.18,.16-.35,.33-.53,.49-1.7,.14-3.33-.11-4.9-.77-.54-.03-1.1-.15-1.46,.42-.33-.19-.77-.24-.98-.93,2.69,.35,5.36-.67,7.86,.79Z" style="fill: #938a7d;"/>
  <path d="M39.61,74.74c0-.3,0-.6,0-.89,1.24-.08,2.56,.43,3.7-.52,.35,.6,.17,1.21,.11,2-1.21-.96-2.53-.57-3.81-.59Z" style="fill: #938a7d;"/>
  <path d="M82.52,49.92l-.81,.37c-.91,.84-1.87,.78-2.86,.16-.59-.85-1.5-.3-2.24-.52,1.97-.56,3.94-.69,5.91-.02Z" style="fill: #938a7d;"/>
  <path d="M99.86,49.87c1.3,.19,2.79,.2,2.28,2.37-1.09-.46-1.53-1.83-2.79-1.93-.07-.42,.05-.62,.51-.45Z" style="fill: #938a7d;"/>
  <path d="M13.48,50.73c-.14-.13-.28-.26-.41-.4,1.36-.81,2.76-1.22,4.29-.46-.15,.15-.3,.3-.45,.45-1.06,.82-2.21,.85-3.42,.41Z" style="fill: #938a7d;"/>
  <path d="M99.86,49.87c-.17,.15-.34,.3-.51,.45-1.15,.03-2.32-.08-3.42,.42-.15-.15-.3-.3-.45-.45,1.4-.8,2.84-1.12,4.38-.42Z" style="fill: #938a7d;"/>
  <path d="M92.27,68.16c.59-.82,.83-2.16,2.39-1.77q-.79,1.2-2.39,1.77Z" style="fill: #a0978b;"/>
  <path d="M83.74,57.88c.15,.16,.3,.31,.45,.47-1.54,1.25-3.34,.79-5.07,.77,0-.12,.01-.24,.02-.36,1.44-.76,3-.95,4.6-.88Z" style="fill: #938a7d;"/>
  <path d="M14.72,59.26c.15-.15,.3-.3,.45-.45,.92-.78,1.93-.89,3.02-.38,.13,.12,.26,.23,.39,.35-1.21,.74-2.46,1.19-3.86,.49Z" style="fill: #938a7d;"/>
  <path d="M61.93,74.36c.02-.2,.03-.41,.05-.61,.92-.48,1.85-.86,2.86-.27,.28,.13,.57,.27,.85,.4-1.16,.87-2.52,.2-3.77,.48Z" style="fill: #938a7d;"/>
  <path d="M25.27,59.13c.01-.11,.02-.22,0-.33,1.07-.78,2.21-.9,3.42-.35,.14,.12,.28,.23,.42,.35-1.23,.76-2.56,.31-3.85,.33Z" style="fill: #938a7d;"/>
  <path d="M39.56,54.74c0-.24,0-.48,.01-.73,.18-.27,.37-.54,.74-1.08v2.58c-.49-.02-.52-.49-.75-.77Z" style="fill: #a1998f;"/>
</svg>