<?xml version="1.0" encoding="UTF-8"?>
<svg id="Capa_1" data-name="Capa 1" xmlns="http://www.w3.org/2000/svg" viewBox="0 0 59.57 100.14">
  <g>
    <path d="M40.58,38.28c.23,.01,.44,.1,.65,.14,.32,.06,.5-.13,.43-.44-.09-.35-.17-.71-.27-1.06-.05-.19-.01-.22,.18-.2,1.82,.24,3.58,0,5.28-.68,2.92-1.18,5.05-3.23,6.32-6.1,1.72-3.88,1.56-7.74-.59-11.42-1.44-2.47-3.56-4.15-6.32-4.97-3.15-.93-6.13-.47-8.9,1.26-2.55,1.6-4.24,3.89-5.07,6.78-1.02,3.51-.61,6.85,1.31,9.97,1.41,2.3,3.43,3.89,6.01,4.74,.18,.06,.36,.11,.55,.15,.15,.03,.16,.08,.07,.19-.21,.26-.41,.52-.62,.78-.27,.34-.19,.56,.24,.67,.18,.05,.38,.04,.55,.14,.06,.06,.12,.08,.2,.04Z" style="fill: #5d7dbd;"/>
    <path d="M46.46,19.84c-.25,1.67,.76,3.56,2.25,4.19,1.4,.6,2.65-.03,3.04-1.51,.44-1.67-.58-3.75-2.13-4.47-1.5-.7-2.91,.1-3.16,1.79Z" style="fill: #becdeb;"/>
  </g>
  <g>
    <path d="M15.15,58.24c.23,.01,.44,.1,.65,.14,.32,.06,.5-.13,.43-.44-.09-.35-.17-.71-.27-1.06-.05-.19-.01-.22,.18-.2,1.82,.24,3.58,0,5.28-.68,2.92-1.18,5.05-3.23,6.32-6.1,1.72-3.88,1.56-7.74-.59-11.42-1.44-2.47-3.56-4.15-6.32-4.97-3.15-.93-6.13-.47-8.9,1.26-2.55,1.6-4.24,3.89-5.07,6.78-1.02,3.51-.61,6.85,1.31,9.97,1.41,2.3,3.43,3.89,6.01,4.74,.18,.06,.36,.11,.55,.15,.15,.03,.16,.08,.07,.19-.21,.26-.41,.52-.62,.78-.27,.34-.19,.56,.24,.67,.18,.05,.38,.04,.55,.14,.06,.06,.12,.08,.2,.04Z" style="fill: #5d7dbd;"/>
    <path d="M21.03,39.8c-.25,1.67,.76,3.56,2.25,4.19,1.4,.6,2.65-.03,3.04-1.51,.44-1.67-.58-3.75-2.13-4.47-1.5-.7-2.91,.1-3.16,1.79Z" style="fill: #becdeb;"/>
  </g>
  <g>
    <path d="M29.28,81.43c.23,.01,.44,.1,.65,.14,.32,.06,.5-.13,.43-.44-.09-.35-.17-.71-.27-1.06-.05-.19-.01-.22,.18-.2,1.82,.24,3.58,0,5.28-.68,2.92-1.18,5.05-3.23,6.32-6.1,1.72-3.88,1.56-7.74-.59-11.42-1.44-2.47-3.56-4.15-6.32-4.97-3.15-.93-6.13-.47-8.9,1.26-2.55,1.6-4.24,3.89-5.07,6.78-1.02,3.51-.61,6.85,1.31,9.97,1.41,2.3,3.43,3.89,6.01,4.74,.18,.06,.36,.11,.55,.15,.15,.03,.16,.08,.07,.19-.21,.26-.41,.52-.62,.78-.27,.34-.19,.56,.24,.67,.18,.05,.38,.04,.55,.14,.06,.06,.12,.08,.2,.04Z" style="fill: #5d7dbd;"/>
    <path d="M35.16,62.98c-.25,1.67,.76,3.56,2.25,4.19,1.4,.6,2.65-.03,3.04-1.51,.44-1.67-.58-3.75-2.13-4.47-1.5-.7-2.91,.1-3.16,1.79Z" style="fill: #becdeb;"/>
  </g>
  <g>
    <path d="M8.84,99.99c.23,.01,.44,.1,.65,.14,.32,.06,.5-.13,.43-.44-.09-.35-.17-.71-.27-1.06-.05-.19-.01-.22,.18-.2,1.82,.24,3.58,0,5.28-.68,2.92-1.18,5.05-3.23,6.32-6.1,1.72-3.88,1.56-7.74-.59-11.42-1.44-2.47-3.56-4.15-6.32-4.97-3.15-.93-6.13-.47-8.9,1.26-2.55,1.6-4.24,3.89-5.07,6.78-1.02,3.51-.61,6.85,1.31,9.97,1.41,2.3,3.43,3.89,6.01,4.74,.18,.06,.36,.11,.55,.15,.15,.03,.16,.08,.07,.19-.21,.26-.41,.52-.62,.78-.27,.34-.19,.56,.24,.67,.18,.05,.38,.04,.55,.14,.06,.06,.12,.08,.2,.04Z" style="fill: #5d7dbd;"/>
    <path d="M14.72,81.55c-.25,1.67,.76,3.56,2.25,4.19,1.4,.6,2.65-.03,3.04-1.51,.44-1.67-.58-3.75-2.13-4.47-1.5-.7-2.91,.1-3.16,1.79Z" style="fill: #becdeb;"/>
  </g>
  <g>
    <path d="M17.73,95.52c-.21-.07-.44-.06-.66-.1-.32-.06-.42-.3-.24-.56,.21-.3,.41-.6,.63-.89,.12-.15,.09-.21-.1-.25-1.78-.43-3.35-1.27-4.69-2.51-2.31-2.15-3.57-4.82-3.74-7.95-.23-4.24,1.3-7.79,4.62-10.47,2.23-1.79,4.81-2.61,7.68-2.39,3.27,.25,5.9,1.75,7.86,4.35,1.81,2.4,2.57,5.15,2.33,8.14-.3,3.64-1.87,6.62-4.77,8.85-2.14,1.65-4.59,2.41-7.3,2.29-.19,0-.38-.03-.57-.06-.15-.02-.18,.01-.13,.15,.11,.31,.2,.63,.3,.95,.13,.42-.02,.59-.46,.55-.19-.02-.37-.1-.56-.06-.08,.04-.14,.03-.2-.04Z" style="fill: #bd291b;"/>
    <path d="M18.81,76.19c-.36,1.65-1.98,3.05-3.59,3.12-1.52,.06-2.47-.97-2.31-2.5,.18-1.72,1.87-3.3,3.58-3.42,1.65-.12,2.68,1.13,2.32,2.8Z" style="fill: #ec776c;"/>
  </g>
  <g>
    <path d="M34.68,67.06c-.18-.13-.4-.2-.6-.3-.28-.15-.31-.41-.05-.61,.29-.22,.58-.44,.88-.65,.16-.11,.15-.17-.01-.27-1.56-.96-2.79-2.25-3.68-3.85-1.53-2.76-1.9-5.69-1.08-8.72,1.1-4.1,3.65-7,7.64-8.51,2.67-1.01,5.38-.99,8.04,.11,3.03,1.26,5.06,3.49,6.12,6.58,.98,2.85,.85,5.69-.32,8.46-1.41,3.37-3.84,5.71-7.29,6.93-2.55,.9-5.11,.86-7.65-.09-.18-.07-.35-.14-.52-.23-.13-.07-.17-.04-.17,.11,0,.33,0,.66,0,.99,0,.44-.21,.56-.61,.38-.17-.08-.32-.21-.52-.23-.08,.01-.14-.02-.18-.1Z" style="fill: #bd291b;"/>
    <path d="M41.71,49.02c-.86,1.46-2.83,2.29-4.38,1.85-1.46-.41-2.04-1.69-1.42-3.09,.71-1.58,2.81-2.55,4.47-2.14,1.6,.4,2.2,1.91,1.33,3.38Z" style="fill: #ec776c;"/>
  </g>
  <g>
    <path d="M16.67,70.14c-.19-.13-.41-.18-.61-.28-.29-.14-.32-.4-.08-.61,.28-.23,.56-.46,.85-.68,.15-.12,.14-.17-.02-.27-1.6-.9-2.87-2.15-3.81-3.71-1.63-2.7-2.1-5.62-1.39-8.67,.96-4.14,3.4-7.12,7.34-8.78,2.63-1.11,5.34-1.18,8.04-.18,3.08,1.15,5.18,3.31,6.35,6.36,1.08,2.81,1.05,5.66-.01,8.47-1.29,3.41-3.63,5.84-7.04,7.19-2.51,.99-5.08,1.05-7.65,.18-.18-.06-.36-.13-.53-.21-.13-.06-.17-.03-.17,.11,.01,.33,.02,.66,.03,.99,0,.44-.19,.56-.59,.4-.17-.07-.33-.2-.52-.21-.08,.02-.15-.01-.18-.09Z" style="fill: #bdb83a;"/>
    <path d="M23.05,51.87c-.81,1.49-2.75,2.39-4.32,2-1.48-.36-2.1-1.62-1.53-3.04,.65-1.6,2.71-2.65,4.39-2.3,1.62,.34,2.27,1.83,1.45,3.33Z" style="fill: #ebe894;"/>
  </g>
  <g>
    <path d="M42.11,49.55c-.19-.13-.41-.18-.61-.28-.29-.14-.32-.4-.08-.61,.28-.23,.56-.46,.85-.68,.15-.12,.14-.17-.02-.27-1.6-.9-2.87-2.15-3.81-3.71-1.63-2.7-2.1-5.62-1.39-8.67,.96-4.14,3.4-7.12,7.34-8.78,2.63-1.11,5.34-1.18,8.04-.18,3.08,1.15,5.18,3.31,6.35,6.36,1.08,2.81,1.05,5.66-.01,8.47-1.29,3.41-3.63,5.84-7.04,7.19-2.51,.99-5.08,1.05-7.65,.18-.18-.06-.36-.13-.53-.21-.13-.06-.17-.03-.17,.11,.01,.33,.02,.66,.03,.99,0,.44-.19,.56-.59,.4-.17-.07-.33-.2-.52-.21-.08,.02-.15-.01-.18-.09Z" style="fill: #bdb83a;"/>
    <path d="M48.49,31.28c-.81,1.49-2.75,2.39-4.32,2-1.48-.36-2.1-1.62-1.53-3.04,.65-1.6,2.71-2.65,4.39-2.3,1.62,.34,2.27,1.83,1.45,3.33Z" style="fill: #ebe894;"/>
  </g>
  <g>
    <path d="M25.7,23.88c-.19-.13-.41-.18-.61-.28-.29-.14-.32-.4-.08-.61,.28-.23,.56-.46,.85-.68,.15-.12,.14-.17-.02-.27-1.6-.9-2.87-2.15-3.81-3.71-1.63-2.7-2.1-5.62-1.39-8.67,.96-4.14,3.4-7.12,7.34-8.78,2.63-1.11,5.34-1.18,8.04-.18,3.08,1.15,5.18,3.31,6.35,6.36,1.08,2.81,1.05,5.66-.01,8.47-1.29,3.41-3.63,5.84-7.04,7.19-2.51,.99-5.08,1.05-7.65,.18-.18-.06-.36-.13-.53-.21-.13-.06-.17-.03-.17,.11,.01,.33,.02,.66,.03,.99,0,.44-.19,.56-.59,.4-.17-.07-.33-.2-.52-.21-.08,.02-.15-.01-.18-.09Z" style="fill: #bdb83a;"/>
    <path d="M32.08,5.61c-.81,1.49-2.75,2.39-4.32,2-1.48-.36-2.1-1.62-1.53-3.04,.65-1.6,2.71-2.65,4.39-2.3,1.62,.34,2.27,1.83,1.45,3.33Z" style="fill: #ebe894;"/>
  </g>
  <g>
    <path d="M10.87,82.78c-.2-.1-.43-.12-.64-.18-.31-.1-.38-.35-.17-.59,.24-.27,.48-.54,.74-.8,.13-.14,.12-.19-.06-.26-1.72-.64-3.17-1.67-4.34-3.07-2.03-2.41-2.95-5.22-2.73-8.35,.3-4.24,2.25-7.57,5.88-9.82,2.43-1.51,5.09-2,7.91-1.43,3.22,.66,5.64,2.46,7.27,5.29,1.51,2.61,1.92,5.42,1.31,8.37-.74,3.57-2.68,6.34-5.83,8.2-2.33,1.37-4.85,1.83-7.53,1.37-.19-.03-.37-.07-.56-.13-.14-.04-.18,0-.15,.14,.07,.32,.12,.65,.18,.98,.08,.43-.1,.59-.53,.49-.18-.04-.35-.14-.55-.13-.08,.03-.15,0-.19-.06Z" style="fill: #49ad33;"/>
    <path d="M14.32,63.73c-.56,1.6-2.34,2.79-3.95,2.65-1.52-.13-2.33-1.27-1.98-2.76,.39-1.68,2.27-3.04,3.98-2.95,1.65,.09,2.52,1.46,1.96,3.06Z" style="fill: #8ec478;"/>
  </g>
  <g>
    <path d="M11.34,28.32c-.2-.1-.43-.12-.64-.18-.31-.1-.38-.35-.17-.59,.24-.27,.48-.54,.74-.8,.13-.14,.12-.19-.06-.26-1.72-.64-3.17-1.67-4.34-3.07-2.03-2.41-2.95-5.22-2.73-8.35,.3-4.24,2.25-7.57,5.88-9.82,2.43-1.51,5.09-2,7.91-1.43,3.22,.66,5.64,2.46,7.27,5.29,1.51,2.61,1.92,5.42,1.31,8.37-.74,3.57-2.68,6.34-5.83,8.2-2.33,1.37-4.85,1.83-7.53,1.37-.19-.03-.37-.07-.56-.13-.14-.04-.18,0-.15,.14,.07,.32,.12,.65,.18,.98,.08,.43-.1,.59-.53,.49-.18-.04-.35-.14-.55-.13-.08,.03-.15,0-.19-.06Z" style="fill: #49ad33;"/>
    <path d="M14.79,9.27c-.56,1.6-2.34,2.79-3.95,2.65-1.52-.13-2.33-1.27-1.98-2.76,.39-1.68,2.27-3.04,3.98-2.95,1.65,.09,2.52,1.46,1.96,3.06Z" style="fill: #8ec478;"/>
  </g>
  <g>
    <path d="M30.05,55.55c-.2-.1-.43-.12-.64-.18-.31-.1-.38-.35-.17-.59,.24-.27,.48-.54,.74-.8,.13-.14,.12-.19-.06-.26-1.72-.64-3.17-1.67-4.34-3.07-2.03-2.41-2.95-5.22-2.73-8.35,.3-4.24,2.25-7.57,5.88-9.82,2.43-1.51,5.09-2,7.91-1.43,3.22,.66,5.64,2.46,7.27,5.29,1.51,2.61,1.92,5.42,1.31,8.37-.74,3.57-2.68,6.34-5.83,8.2-2.33,1.37-4.85,1.83-7.53,1.37-.19-.03-.37-.07-.56-.13-.14-.04-.18,0-.15,.14,.07,.32,.12,.65,.18,.98,.08,.43-.1,.59-.53,.49-.18-.04-.35-.14-.55-.13-.08,.03-.15,0-.19-.06Z" style="fill: #49ad33;"/>
    <path d="M33.5,36.5c-.56,1.6-2.34,2.79-3.95,2.65-1.52-.13-2.33-1.27-1.98-2.76,.39-1.68,2.27-3.04,3.98-2.95,1.65,.09,2.52,1.46,1.96,3.06Z" style="fill: #8ec478;"/>
  </g>
  <g>
    <path d="M17.6,40.37c-.19-.12-.41-.17-.61-.27-.29-.14-.33-.4-.09-.61,.28-.24,.55-.47,.84-.7,.15-.12,.14-.17-.03-.27-1.61-.87-2.91-2.09-3.89-3.63-1.68-2.67-2.21-5.58-1.57-8.64,.87-4.16,3.25-7.19,7.15-8.93,2.61-1.16,5.32-1.29,8.03-.34,3.1,1.09,5.25,3.2,6.48,6.22,1.14,2.79,1.17,5.63,.16,8.47-1.22,3.44-3.51,5.92-6.89,7.33-2.49,1.04-5.05,1.15-7.64,.34-.18-.06-.36-.12-.53-.2-.14-.06-.17-.03-.16,.11,.02,.33,.03,.66,.05,.99,.02,.44-.18,.57-.59,.41-.18-.07-.33-.19-.53-.2-.08,.02-.15,0-.18-.09Z" style="fill: #bd291b;"/>
    <path d="M23.61,21.97c-.78,1.5-2.7,2.44-4.27,2.09-1.49-.33-2.14-1.58-1.59-3,.62-1.61,2.66-2.71,4.34-2.39,1.62,.31,2.3,1.78,1.52,3.3Z" style="fill: #ec776c;"/>
  </g>
</svg>