<?xml version="1.0" encoding="UTF-8"?>
<svg id="Capa_1" data-name="Capa 1" xmlns="http://www.w3.org/2000/svg" viewBox="0 0 117.38 125">
  <path d="M58.59,0c26.38-.14,48.12,21.38,48.09,47.85-.02,27.06-21.67,47.34-46.65,48.05-26.89,.76-49.37-20.79-49.43-47.94C10.55,21.57,31.98,.14,58.59,0Z" style="fill: #e62e2f;"/>
  <path d="M99.55,115.98c0-1.72-.02-3.44,0-5.16,.02-1.52,.62-2.75,2.09-3.37,1.37-.58,2.69-.42,3.73,.68,.59,.63,1,.24,1.48-.03,2.08-1.18,4.29-1.33,6.48-.5,2.46,.93,3.88,2.81,3.97,5.47,.09,2.71,.09,5.43,0,8.14-.07,2.28-1.72,3.81-3.79,3.69-2.05-.12-3.33-1.61-3.34-3.92,0-1.93,.01-3.86,0-5.79-.02-1.35-.82-2.36-1.84-2.25-1.29,.15-1.67,1.06-1.66,2.23,.01,1.93,.02,3.86,0,5.79-.02,2.42-1.35,3.84-3.55,3.84-2.2,0-3.52-1.39-3.57-3.83-.04-1.67,0-3.34,0-5.01,0,0,0,0,.01,0Z" style="fill: #030505;"/>
  <path d="M34.82,118.4c-1.06-.03-2.04,.36-3.07,.53-1.71,.28-3.39,.32-4.82-1.2,2.53,0,5.06,.05,7.59-.01,2.52-.07,3.43-1.33,2.86-3.79-1.01-4.42-5.16-7.14-10.24-6.72-3.93,.32-7.42,3.43-8.04,7.16-.68,4.14,1.28,7.86,5.17,9.5,3.63,1.54,7.31,1.31,10.94-.11,.51-.2,.99-.58,1.4-.97,.86-.81,.97-1.86,.56-2.88-.4-1-1.25-1.47-2.35-1.5Zm-8.08-3.98s-.06,.01-.08,.02c-.1,.02-.19,.04-.29,.04-.18,.01-.35-.04-.46-.19-.05-.07-.07-.15-.09-.23-.04-.11-.04-.21-.02-.32,.02-.1,.04-.2,.08-.29,0-.02,.02-.04,.03-.06,.01-.04,.03-.08,.05-.11,0-.01,.02-.02,.03-.03,.04-.11,.11-.2,.2-.28,0,0,0,0,0,0,.07-.12,.2-.22,.32-.3,.02-.01,.04-.02,.05-.03,.05-.05,.1-.09,.17-.13,.02-.02,.04-.04,.08-.05,.14-.04,.26-.13,.39-.2,.14-.07,.29-.07,.44-.12,.28-.09,.56-.1,.85-.07,.4,.03,.85,.15,1.19,.38,.03,.01,.06,.02,.09,.04,.04,.02,.07,.05,.11,.08,.04,.02,.07,.04,.1,.07,.03,.03,.06,.06,.09,.09,.03,.02,.06,.04,.08,.07,.06,.07,.12,.14,.17,.23,0,0,.01,.02,.02,.02,.03,.04,.06,.08,.08,.13,.04,.06,.08,.13,.09,.2,.01,.03,.03,.06,.04,.09,.07,.13,.14,.27,.15,.42,0,0,0,0,0,.01,0,.01,0,.03,0,.04,0,0,0,0,0,.01,0,0,0,0,0,0,0,.08,0,.16-.04,.23-.02,.03-.04,.06-.07,.09-.05,.06-.11,.1-.19,.13-.22,.12-.54,.1-.76,.07-.22-.03-.43-.06-.65-.06-.01,0-.02,0-.03,0-.11,0-.22,0-.32,.01-.08,0-.16,.01-.24,0-.02,0-.03,0-.05,0-.36,0-.71,.05-1.07,0-.15,0-.31,0-.46,0-.02,0-.05,0-.08,0Z" style="fill: #040505;"/>
  <path d="M63.29,118.34c-1.06-.03-2.04,.36-3.07,.53-1.71,.28-3.39,.32-4.82-1.2,2.53,0,5.06,.05,7.59-.01,2.52-.07,3.43-1.33,2.86-3.79-1.01-4.42-5.16-7.14-10.24-6.72-3.93,.32-7.42,3.43-8.04,7.16-.68,4.14,1.28,7.86,5.17,9.5,3.63,1.54,7.31,1.31,10.94-.11,.51-.2,.99-.58,1.4-.97,.86-.81,.97-1.86,.56-2.88-.4-1-1.25-1.47-2.35-1.5Zm-8.08-3.98s-.06,.01-.08,.02c-.1,.02-.19,.04-.29,.04-.18,.01-.35-.04-.46-.19-.05-.07-.07-.15-.09-.23-.04-.11-.04-.21-.02-.32,.02-.1,.04-.2,.08-.29,0-.02,.02-.04,.03-.06,.01-.04,.03-.08,.05-.11,0-.01,.02-.02,.03-.03,.04-.11,.11-.2,.2-.28,0,0,0,0,0,0,.07-.12,.2-.22,.32-.3,.02-.01,.04-.02,.05-.03,.05-.05,.1-.09,.17-.13,.02-.02,.04-.04,.08-.05,.14-.04,.26-.13,.39-.2,.14-.07,.29-.07,.44-.12,.28-.09,.56-.1,.85-.07,.4,.03,.85,.15,1.19,.38,.03,.01,.06,.02,.09,.04,.04,.02,.07,.05,.11,.08,.04,.02,.07,.04,.1,.07,.03,.03,.06,.06,.09,.09,.03,.02,.06,.04,.08,.07,.06,.07,.12,.14,.17,.23,0,0,.01,.02,.02,.02,.03,.04,.06,.08,.08,.13,.04,.06,.08,.13,.09,.2,.01,.03,.03,.06,.04,.09,.07,.13,.14,.27,.15,.42,0,0,0,0,0,.01,0,.01,0,.03,0,.04,0,0,0,0,0,.01,0,0,0,0,0,0,0,.08,0,.16-.04,.23-.02,.03-.04,.06-.07,.09-.05,.06-.11,.1-.19,.13-.22,.12-.54,.1-.76,.07-.22-.03-.43-.06-.65-.06-.01,0-.02,0-.03,0-.11,0-.22,0-.32,.01-.08,0-.16,.01-.24,0-.02,0-.03,0-.05,0-.36,0-.71,.05-1.07,0-.15,0-.31,0-.46,0-.02,0-.05,0-.08,0Z" style="fill: #040505;"/>
  <path d="M88.77,106.96c-5.18-.03-9.42,3.97-9.51,8.99-.1,4.94,4.14,9.03,9.39,9.06,5.28,.03,9.4-3.89,9.42-8.96,.02-5.1-4.03-9.05-9.29-9.08Zm2.35,9.32s0,.01,0,.02c0,.04,0,.07,0,.11,0,0,0,.01,0,.02,0,0,0,0,0,0,0,0,0,0,0,0,.01,.03,0,.07,0,.1,0,.04,0,.09,0,.13-.01,.08-.02,.16-.04,.24-.01,.07-.04,.13-.05,.2-.01,.07-.03,.14-.06,.2,0,.01,0,.02-.01,.03-.01,.07-.03,.13-.07,.19,0,0,0,0,0,0-.01,.03-.02,.06-.04,.09-.02,.03-.03,.06-.05,.09,0,.01,0,.02-.01,.03,0,.03-.02,.05-.04,.07,0,.01,0,.02-.02,.04-.01,.02-.03,.04-.05,.06-.02,.06-.06,.12-.1,.16,0,0,0,0,0,0-.04,.06-.09,.11-.14,.16-.02,.04-.04,.07-.08,.08-.04,.04-.08,.07-.12,.1-.13,.11-.27,.21-.42,.29-.02,.01-.04,.02-.06,.02-.2,.11-.41,.19-.64,.22-.13,.01-.26,.01-.39,0-.05,0-.09,0-.14,0-.1,0-.2-.01-.29-.03-.09-.02-.16-.06-.25-.07-.01,0-.03,0-.04,0-.03,0-.05-.02-.08-.03-.02,0-.04-.02-.07-.02-.03-.01-.06-.03-.09-.04-.01,0-.02-.01-.03-.02,0,0,0,0,0,0-.05-.02-.1-.05-.15-.08-.08-.04-.16-.09-.22-.16-.03-.02-.05-.03-.08-.05-.05-.04-.1-.08-.14-.13-.03-.04-.05-.09-.09-.12,0,0,0,0,0,0-.05-.06-.1-.12-.14-.18-.12-.13-.18-.32-.26-.47-.05-.09-.1-.2-.12-.3-.05-.14-.08-.28-.1-.42,0-.04-.02-.07-.03-.1-.01-.05-.02-.1-.02-.15,0,0,0,0,0,0,0,0,0,0,0,0,0-.01,0-.02,0-.03,0-.03,0-.06-.01-.09,0-.05,0-.1,0-.14,0-.05-.01-.09-.01-.14,0-.01,0-.03,0-.04,0,0,0,0,0-.02,.02-.13,0-.27,.01-.4,.01-.13,.06-.25,.08-.38,0-.05,.02-.1,.03-.14,0,0,0,0,0,0,.01-.04,.02-.08,.03-.12,.01-.04,.03-.07,.04-.11,0,0,0,0,0,0,0,0,0,0,0,0,0,0,0-.01,0-.02,.05-.11,.1-.23,.16-.34,0,0,0,0,0,0,0,0,0-.01,.01-.02,0,0,0-.02,0-.02,.01-.04,.03-.07,.04-.11,.03-.06,.08-.12,.12-.18,.03-.04,.06-.07,.09-.11,0,0,0-.01,0-.02,.01-.02,.02-.04,.04-.05,.02-.02,.03-.03,.05-.05,.02-.02,.03-.04,.05-.06,.02-.03,.05-.05,.08-.07,0,0,0-.01,.01-.01,.05-.05,.09-.09,.15-.13,.01-.01,.03-.02,.04-.03,0,0,0,0,0,0,.04-.04,.09-.08,.14-.11,0,0,0,0,.01,0,.02-.01,.03-.03,.05-.04,.04-.03,.09-.05,.13-.06,0,0,.01-.01,.02-.02,.02-.01,.05-.02,.07-.03,0,0,0,0,.01-.01,.01,0,.03-.02,.04-.02,.02,0,.04-.01,.06-.02,0,0,.01,0,.02-.01,.03-.02,.07-.03,.11-.04,.02,0,.05,0,.07-.01,.05-.02,.11-.05,.16-.06,.07-.01,.15,0,.22,0,.07,0,.14,0,.2,0,.08,0,.16,.01,.24,.03,.07,.01,.15,.02,.22,.03,.01,0,.02,0,.04,.02,.2,.04,.38,.12,.55,.23,.03,.02,.07,.03,.1,.05,.07,.04,.14,.09,.19,.15,0,0,.02,.01,.03,.02,.05,.04,.09,.09,.14,.13,.09,.08,.18,.17,.26,.26,.1,.1,.17,.22,.21,.35,0,0,0,0,0,.01,.03,.04,.05,.07,.08,.11,.14,.23,.23,.5,.29,.77,.05,.22,.06,.45,.05,.67,0,.02,0,.04,0,.06,0,.06,0,.12,0,.18Z" style="fill: #030405;"/>
  <path d="M5.61,115.09c0-2.03-.04-4.07,.02-6.1,.02-.83-.26-1.13-1.07-1.05-.52,.05-1.04,.03-1.56,0C1.24,107.83,0,106.5,0,104.77c0-1.69,1.31-3.14,3.02-3.16,3.86-.05,7.71-.02,11.57,0,1.12,0,2.15,.46,3.09,1,.88,.51,1.14,1.5,1.04,2.46-.14,1.26-.8,2.26-2.03,2.74-.47,.18-1.01,.23-1.53,.24-2.24,.07-2.23,.06-2.24,2.38,0,3.7,.02,7.4-.06,11.1-.04,1.76-1.37,3.11-2.98,3.29-1.98,.23-3.6-.76-4.12-2.55-.13-.44-.14-.92-.15-1.39-.02-1.93,0-3.86,0-5.78Z" style="fill: #030505;"/>
  <path d="M69.12,117.8c0-.73-.01-1.46,0-2.19,.03-1.27,.31-2.5-1.66-2.8-1.25-.19-1.83-1.5-1.69-2.83,.14-1.32,.9-2.3,2.21-2.5,1.02-.16,1.19-.59,1.19-1.51,0-2.25,1.46-3.75,3.51-3.75,2.04,0,3.51,1.49,3.55,3.74,.02,.91,.16,1.34,1.2,1.51,1.46,.25,2.18,1.36,2.19,2.83,0,1.48-.79,2.58-2.21,2.82-1.1,.19-1.15,.69-1.16,1.56-.02,2.45,.21,4.91-.12,7.34-.24,1.76-1.78,2.95-3.52,2.9-1.8-.05-3.27-1.4-3.44-3.21-.06-.67-.03-1.35-.03-2.03,0-.63,0-1.25,0-1.88Z" style="fill: #040505;"/>
  <path d="M46.02,112.36c0,2.92,0,5.84,0,8.76,0,2.25-1.39,3.76-3.46,3.79-2.13,.04-3.6-1.48-3.61-3.82-.02-5.94-.02-11.89,0-17.83,0-2.18,1.54-3.76,3.55-3.77,1.96,0,3.5,1.64,3.51,3.8,.02,3.02,0,6.05,0,9.07Z" style="fill: #040506;"/>
  <path d="M86.84,97.17c.11-1.04,.32-2.13,1.32-2.92,1.28-1,2.78-.7,3.52,.75,.12,.23,.25,.47,.29,.72,.23,1.75,1.02,1.78,2.32,.88,1.04-.72,2.22-.74,3.16,.19,.94,.94,.77,2.1,.27,3.2-.85,1.84-2.52,2.78-4.28,3.43-4.5,1.68-3.4,2.05-5.58-2.23-.62-1.22-.91-2.55-1.01-4.04Z" style="fill: #e62e2f;"/>
  <path d="M20.98,48.05c.06-6.28,1.54-12.18,4.81-17.58,.65-1.08,1.4-2.07,2.42-2.85,1.87-1.42,3.65-1.26,5.21,.57,1.62,1.9,3,4.01,4.8,5.77,2.1,2.07,4.38,3.87,7.21,4.83,1.25,.42,2.6,.75,3.69-.3,1.1-1.05,.86-2.42,.49-3.68-1.03-3.52-3.34-6.22-5.94-8.67-1.25-1.18-2.64-2.21-3.92-3.36-1.66-1.51-1.82-3.14-.55-5.01,.69-1.01,1.62-1.76,2.62-2.43,10.01-6.69,23.7-6.69,33.67,.02,.6,.41,1.18,.86,1.7,1.37,2.41,2.36,2.36,4.46-.24,6.57-2.84,2.32-5.6,4.7-7.57,7.84-.89,1.42-1.64,2.9-1.91,4.59-.38,2.48,1,3.82,3.48,3.28,3.01-.66,5.36-2.47,7.56-4.51,1.84-1.71,3.32-3.74,4.86-5.71,2.19-2.78,4.58-2.86,6.82-.08,3.12,3.87,4.72,8.43,5.57,13.27,.35,2,.44,4.04,.64,6.06-.07,.07-.13,.14-.2,.21-1.54,.71-3.21,.88-4.85,1.14-8.39,1.36-16.82,2.36-25.33,2.62-3.59,.11-7.19,.31-10.78,.21-11.01-.31-21.95-1.32-32.77-3.47-.46-.09-.92-.2-1.31-.49-.06-.07-.12-.15-.19-.22Z" style="fill: #fff;"/>
  <path d="M96.42,48.05c2.57-.6,5.14-1.21,7.93-1.86-.12,17.61-7.04,31.51-21.99,40.53-16.19,9.76-32.89,9.44-48.75-.86-14.09-9.15-20.61-22.71-20.6-39.66,2.81,.65,5.4,1.25,7.98,1.85,0,0-.03-.03-.03-.03,.7,1.18,.54,2.53,.68,3.79,.54,4.85,2.03,9.36,4.58,13.52,.11,.18,.22,.36,.34,.52,2.72,3.53,4.83,4.12,7.57,.33,2.3-3.19,4.9-6.11,8.35-8.13,1.5-.88,3.06-1.61,4.84-1.63,1.79-.02,2.7,.86,2.84,2.63,.1,1.28-.17,2.47-.69,3.65-1.63,3.7-4.51,6.35-7.41,8.98-.7,.63-1.42,1.23-2.07,1.9-1.33,1.39-1.46,2.74-.35,4.36,1.42,2.06,3.6,3.2,5.76,4.18,10.08,4.6,19.93,4.08,29.45-1.67,1.36-.82,2.57-1.79,3.25-3.29,.55-1.22,.46-2.32-.46-3.33-1.13-1.25-2.5-2.21-3.76-3.3-2.67-2.33-4.86-5.01-6.22-8.32-.22-.53-.37-1.08-.49-1.65-.61-3.05,1.17-4.81,4.21-3.99,3.65,.98,6.46,3.3,8.94,6.05,1.4,1.55,2.51,3.34,4,4.81,1.69,1.67,3.12,1.73,4.91,.14,1.76-1.56,2.79-3.63,3.71-5.74,1.6-3.66,2.69-7.45,2.78-11.48,.02-.83,.11-1.67,.71-2.35l-.02,.03Z" style="fill: #fff;"/>
  <path d="M96.44,48.02c-.33,5.02-1.11,9.94-3.36,14.52-.78,1.59-1.6,3.16-2.74,4.54-2.41,2.89-4.76,2.89-7.04-.09-2.32-3.04-4.68-6.01-7.93-8.14-1.32-.86-2.69-1.61-4.23-1.96-2.64-.6-4.08,.77-3.6,3.42,.5,2.77,2.07,4.98,3.83,7.07,1.55,1.85,3.38,3.4,5.25,4.9,3.09,2.49,3.14,4.91,0,7.4-3.89,3.07-8.4,4.8-13.27,5.54-7.39,1.12-14.31-.3-20.72-4.16-1.26-.76-2.44-1.6-3.32-2.81-1.37-1.88-1.26-3.56,.45-5.13,1.88-1.73,3.97-3.21,5.68-5.14,1.64-1.85,3.12-3.81,3.94-6.15,.52-1.47,1.08-3.12-.26-4.41-1.29-1.24-2.86-.65-4.27-.09-3.71,1.46-6.44,4.17-8.91,7.18-.93,1.13-1.75,2.34-2.73,3.43-1.43,1.58-2.95,1.7-4.74,.52-1.39-.92-2.27-2.29-3.07-3.69-2.99-5.18-4.31-10.81-4.44-16.75,8.2,1.54,16.44,2.73,24.77,3.28,9.85,.65,19.68,.55,29.52-.29,7.12-.61,14.16-1.74,21.19-2.99Z" style="fill: #e62e2f;"/>
</svg>